<?xml version="1.0" encoding="UTF-8" standalone="no"?>
<!-- Created with Inkscape (http://www.inkscape.org/) -->

<svg
   xmlns:ns0="http://www.iki.fi/pav/software/textext/"
   xmlns:dc="http://purl.org/dc/elements/1.1/"
   xmlns:cc="http://creativecommons.org/ns#"
   xmlns:rdf="http://www.w3.org/1999/02/22-rdf-syntax-ns#"
   xmlns:svg="http://www.w3.org/2000/svg"
   xmlns="http://www.w3.org/2000/svg"
   xmlns:sodipodi="http://sodipodi.sourceforge.net/DTD/sodipodi-0.dtd"
   xmlns:inkscape="http://www.inkscape.org/namespaces/inkscape"
   width="431.25"
   height="750"
   id="svg2"
   version="1.1"
   inkscape:version="0.48.0 r9654"
   sodipodi:docname="coupling.pdf">
  <sodipodi:namedview
     id="base"
     pagecolor="#ffffff"
     bordercolor="#666666"
     borderopacity="1.0"
     inkscape:pageopacity="0.0"
     inkscape:pageshadow="2"
     inkscape:zoom="2.1129617"
     inkscape:cx="205.2026"
     inkscape:cy="562.00695"
     inkscape:document-units="px"
     inkscape:current-layer="layer1"
     showgrid="false"
     inkscape:window-width="1440"
     inkscape:window-height="801"
     inkscape:window-x="0"
     inkscape:window-y="0"
     inkscape:window-maximized="1"
     units="pt"
     showguides="true"
     inkscape:guide-bbox="true" />
  <defs
     id="defs4">
    <inkscape:path-effect
       is_visible="true"
       id="path-effect7111"
       effect="spiro" />
    <inkscape:path-effect
       is_visible="true"
       id="path-effect6923"
       effect="spiro" />
    <inkscape:path-effect
       is_visible="true"
       id="path-effect6735"
       effect="spiro" />
    <inkscape:path-effect
       is_visible="true"
       id="path-effect5751"
       effect="spiro" />
    <inkscape:path-effect
       is_visible="true"
       id="path-effect5747"
       effect="spiro" />
    <inkscape:path-effect
       is_visible="true"
       id="path-effect5743"
       effect="spiro" />
    <inkscape:path-effect
       is_visible="true"
       id="path-effect5739"
       effect="spiro" />
    <inkscape:path-effect
       is_visible="true"
       id="path-effect5735"
       effect="spiro" />
    <inkscape:path-effect
       is_visible="true"
       id="path-effect5547"
       effect="spiro" />
    <inkscape:path-effect
       is_visible="true"
       id="path-effect5175"
       effect="spiro" />
    <inkscape:path-effect
       is_visible="true"
       id="path-effect5171"
       effect="spiro" />
    <inkscape:path-effect
       is_visible="true"
       id="path-effect4203"
       effect="spiro" />
    <marker
       style="overflow:visible"
       id="Arrow1Lstart"
       refX="0.0"
       refY="0.0"
       orient="auto"
       inkscape:stockid="Arrow1Lstart">
      <path
         transform="scale(0.8) translate(12.5,0)"
         style="fill-rule:evenodd;stroke:#000000;stroke-width:1.0pt;marker-start:none"
         d="M 0.0,0.0 L 5.0,-5.0 L -12.5,0.0 L 5.0,5.0 L 0.0,0.0 z "
         id="path4061" />
    </marker>
    <inkscape:path-effect
       effect="spiro"
       id="path-effect4690"
       is_visible="true" />
    <inkscape:path-effect
       effect="spiro"
       id="path-effect4504"
       is_visible="true" />
    <marker
       inkscape:stockid="Arrow2Mend"
       orient="auto"
       refY="0.0"
       refX="0.0"
       id="Arrow2Mend"
       style="overflow:visible;">
      <path
         id="path4088"
         style="font-size:12.0;fill-rule:evenodd;stroke-width:0.62500000;stroke-linejoin:round;"
         d="M 8.7185878,4.0337352 L -2.2072895,0.016013256 L 8.7185884,-4.0017078 C 6.9730900,-1.6296469 6.9831476,1.6157441 8.7185878,4.0337352 z "
         transform="scale(0.6) rotate(180) translate(0,0)" />
    </marker>
    <inkscape:path-effect
       effect="spiro"
       id="path-effect4056"
       is_visible="true" />
  </defs>
  <metadata
     id="metadata7">
    <rdf:RDF>
      <cc:Work
         rdf:about="">
        <dc:format>image/svg+xml</dc:format>
        <dc:type
           rdf:resource="http://purl.org/dc/dcmitype/StillImage" />
        <dc:title></dc:title>
      </cc:Work>
    </rdf:RDF>
  </metadata>
  <g
     id="layer1"
     inkscape:groupmode="layer"
     inkscape:label="Layer 1"
     transform="translate(0,-302.36221)">
    <rect
       ry="2.5463202"
       style="fill:#dd0000;stroke:#000000;stroke-width:0.58375001000000004;stroke-linecap:butt;stroke-linejoin:round;stroke-miterlimit:4;stroke-opacity:1;stroke-dasharray:none;fill-opacity:0.28;opacity:1"
       id="rect3130"
       width="92.074631"
       height="61.404449"
       x="166.95973"
       y="352.68912" />
    <rect
       ry="2.5013013"
       y="442.74054"
       x="166.95973"
       height="30.838053"
       width="91.586372"
       id="rect4048"
       style="fill:#ddcc00;stroke:#000000;stroke-width:0.58375001000000004;stroke-linejoin:miter;stroke-miterlimit:4;stroke-opacity:1;stroke-dasharray:none;fill-opacity:0.296" />
    <rect
       ry="2.5613184"
       style="fill:#5ccc00;stroke:#000000;stroke-width:0.58375001000000004;stroke-linejoin:miter;stroke-miterlimit:4;stroke-opacity:1;stroke-dasharray:none;fill-opacity:0.352"
       id="rect4050"
       width="91.586372"
       height="61.404453"
       x="166.95973"
       y="566.61694" />
    <rect
       ry="2.0130506"
       style="fill:#ddcc00;stroke:#000000;stroke-width:0.58375001000000004;stroke-linejoin:miter;stroke-miterlimit:4;stroke-opacity:1;stroke-dasharray:none;fill-opacity:0.296"
       id="rect4052"
       width="91.586372"
       height="30.838053"
       x="166.95973"
       y="504.49011" />
    <path
       style="fill:none;stroke:#000000;stroke-width:1px;stroke-linecap:butt;stroke-linejoin:miter;stroke-opacity:1;marker-end:url(#Arrow2Mend)"
       d="m 166.4987,80.099088 c -10.9429,4.903384 -19.33259,15.157458 -21.97197,26.854632 -1.12361,4.97959 -1.2523,10.16579 -0.54765,15.22171 1.91048,13.70773 10.22263,26.38644 22.03135,33.60489"
       id="path4054"
       inkscape:path-effect="#path-effect4056"
       inkscape:original-d="m 166.4987,80.099088 c -54.12336,3.343009 -18.49141,18.760214 -21.97197,26.854632 -3.48056,8.09442 -3.5435,6.03413 -0.54765,15.22171 2.99584,9.18758 5.82581,29.12117 22.03135,33.60489"
       inkscape:connector-curvature="0"
       transform="translate(0,302.36221)"
       sodipodi:nodetypes="czzc" />
    <path
       style="fill:none;stroke:#000000;stroke-width:1px;stroke-linecap:butt;stroke-linejoin:miter;stroke-opacity:1;marker-end:url(#Arrow2Mend)"
       d="m 166.4987,80.099087 c -15.29635,2.820936 -28.89965,13.590208 -35.15516,27.831153 -4.54161,10.33916 -5.28053,22.15684 -2.92959,33.20209 4.30795,20.23975 19.29636,37.88434 38.57301,45.40874"
       id="path4502"
       inkscape:path-effect="#path-effect4504"
       inkscape:original-d="m 166.4987,80.099087 c 0,0 -23.51687,9.394922 -35.15516,27.831153 -11.63828,18.43623 -8.0753,-30.37881 -2.92959,33.20209 5.14572,63.5809 38.57301,45.40874 38.57301,45.40874"
       inkscape:connector-curvature="0"
       transform="translate(0,302.36221)"
       sodipodi:nodetypes="czzc" />
    <path
       style="fill:none;stroke:#000000;stroke-width:1px;stroke-linecap:butt;stroke-linejoin:miter;stroke-opacity:1;marker-end:url(#Arrow2Mend)"
       d="m 166.98696,80.099087 c -19.3088,1.625857 -37.53173,13.085639 -47.3618,29.784223 -7.38626,12.54722 -10.05991,27.66433 -8.16382,42.1002 1.89609,14.43587 8.24304,28.15354 17.44088,39.44023 9.84545,12.08138 22.97503,21.45964 37.59648,26.85462"
       id="path4688"
       inkscape:path-effect="#path-effect4690"
       inkscape:original-d="m 166.98696,80.099087 c 0,0 -31.44538,5.072294 -47.3618,29.784223 -15.91642,24.71193 -8.94236,60.2295 9.27706,81.54043 18.21943,21.31093 37.59648,26.85462 37.59648,26.85462"
       inkscape:connector-curvature="0"
       transform="translate(0,302.36221)"
       sodipodi:nodetypes="czzc" />
    <g
       style="font-style:normal;font-variant:normal;font-weight:normal;font-stretch:normal;letter-spacing:normal;word-spacing:normal;text-anchor:start;fill:none;stroke:#000000;stroke-linecap:butt;stroke-linejoin:miter;stroke-miterlimit:10.43299961;stroke-opacity:1;stroke-dasharray:none;stroke-dashoffset:0"
       id="g3336"
       transform="matrix(2,0,0,-2,-252.72415,1877.728)"
       xml:space="preserve"
       stroke-miterlimit="10.433"
       font-style="normal"
       font-variant="normal"
       font-weight="normal"
       font-stretch="normal"
       font-size-adjust="none"
       letter-spacing="normal"
       word-spacing="normal"
       ns0:text="NP$_1$\n"
       ns0:preamble="">
<path
   style="fill:#000000;stroke-width:0"
   inkscape:connector-curvature="0"
   d="m 225.74,713.79 0,0.01 -0.01,0.01 -0.01,0.01 -0.01,0.01 0,0.01 -0.01,0.01 -0.01,0.01 0,0 -0.01,0.01 0,0.01 -0.01,0 -0.01,0.01 0,0 -0.01,0.01 -0.01,0 0,0 -0.01,0.01 -0.01,0 0,0 -0.01,0 -0.01,0.01 -0.01,0 -0.01,0 -0.01,0 -0.01,0 -0.01,0 -0.02,0 -0.01,0 -0.02,0 0,0 -0.01,0 -0.01,0 -0.01,0 -0.01,0 0,0 h -1.7 v -0.31 h 0.29 c 0.15,0 0.35,-0.01 0.5,-0.02 0.23,-0.03 0.24,-0.04 0.24,-0.23 v -5.19 c 0,-0.27 0,-0.74 -1.03,-0.74 v -0.31 c 0.35,0.02 0.84,0.04 1.17,0.04 0.33,0 0.81,-0.02 1.16,-0.04 v 0.31 c -1.02,0 -1.02,0.47 -1.02,0.74 v 5.17 c 0.05,-0.05 0.06,-0.05 0.1,-0.11 l 4.06,-5.98 c 0.09,-0.11 0.1,-0.13 0.17,-0.13 0.14,0 0.14,0.08 0.14,0.26 v 5.5 c 0,0.27 0,0.73 1.03,0.73 v 0.31 c -0.35,-0.01 -0.84,-0.03 -1.17,-0.03 -0.33,0 -0.81,0.02 -1.16,0.03 v -0.31 c 1.02,0 1.02,-0.46 1.02,-0.73 v -4.25 z"
   id="path3338" />
<path
   style="fill:#000000;stroke-width:0"
   inkscape:connector-curvature="0"
   d="m 233.17,710.27 -0.03,0.26 v 2.69 c 0,0.32 0.02,0.39 0.48,0.39 h 0.89 c 1.59,0 1.59,-1.05 1.59,-1.54 0,-0.47 0,-1.54 -1.59,-1.54 h -1.37 l 0.03,-0.26 h 1.68 c 1.2,0 2.27,0.81 2.27,1.8 0,0.98 -0.98,1.85 -2.35,1.85 h -3.52 v -0.31 h 0.24 c 0.77,0 0.79,-0.1 0.79,-0.46 v -5.25 c 0,-0.36 -0.02,-0.47 -0.79,-0.47 h -0.24 v -0.31 c 0.35,0.04 1.09,0.04 1.47,0.04 0.38,0 1.13,0 1.47,-0.04 v 0.31 h -0.24 c -0.76,0 -0.78,0.11 -0.78,0.47 z"
   id="path3340" />
<path
   style="fill:#000000;stroke-width:0"
   inkscape:connector-curvature="0"
   d="m 240.02,710.05 0,0.01 0,0.01 0,0.01 0,0.01 0,0 0,0.01 0,0.01 0,0.01 0,0 0,0.01 -0.01,0 0,0.01 0,0.01 0,0 0,0.01 0,0 0,0.01 0,0 0,0.01 0,0.01 -0.01,0.01 0,0 -0.01,0.01 0,0.01 0,0 -0.01,0.01 -0.01,0 0,0 -0.01,0.01 -0.01,0 -0.01,0 -0.01,0 0,0 -0.01,0 0,0 -0.01,0.01 0,0 -0.01,0 -0.01,0 0,0 -0.01,0 -0.01,0 0,0 -0.01,0 -0.01,0 -0.01,0 -0.01,0 0,0 -0.01,0 -0.01,0 c -0.45,-0.44 -1.08,-0.45 -1.37,-0.45 v -0.25 c 0.17,0 0.63,0 1.01,0.2 v -3.55 c 0,-0.23 0,-0.32 -0.69,-0.32 h -0.27 v -0.25 c 0.13,0.01 0.98,0.03 1.24,0.03 0.22,0 1.09,-0.02 1.25,-0.03 v 0.25 h -0.27 c -0.69,0 -0.69,0.09 -0.69,0.32 z"
   id="path3342" />
</g>    <g
       ns0:preamble=""
       ns0:text="NP$_n$\n"
       word-spacing="normal"
       letter-spacing="normal"
       font-size-adjust="none"
       font-stretch="normal"
       font-weight="normal"
       font-variant="normal"
       font-style="normal"
       stroke-miterlimit="10.433"
       xml:space="preserve"
       transform="matrix(2,0,0,-2,-252.23608,1940.1434)"
       id="g3394"
       style="font-style:normal;font-variant:normal;font-weight:normal;font-stretch:normal;letter-spacing:normal;word-spacing:normal;text-anchor:start;fill:none;stroke:#000000;stroke-linecap:butt;stroke-linejoin:miter;stroke-miterlimit:10.43299961;stroke-opacity:1;stroke-dasharray:none;stroke-dashoffset:0">
<path
   id="path3396"
   d="m 225.74,713.79 0,0.01 -0.01,0.01 -0.01,0.01 -0.01,0.01 0,0.01 -0.01,0.01 -0.01,0.01 0,0 -0.01,0.01 0,0.01 -0.01,0 -0.01,0.01 0,0 -0.01,0.01 -0.01,0 0,0 -0.01,0.01 -0.01,0 0,0 -0.01,0 -0.01,0.01 -0.01,0 -0.01,0 -0.01,0 -0.01,0 -0.01,0 -0.02,0 -0.01,0 -0.02,0 0,0 -0.01,0 -0.01,0 -0.01,0 -0.01,0 0,0 h -1.7 v -0.31 h 0.29 c 0.15,0 0.35,-0.01 0.5,-0.02 0.23,-0.03 0.24,-0.04 0.24,-0.23 v -5.19 c 0,-0.27 0,-0.74 -1.03,-0.74 v -0.31 c 0.35,0.02 0.84,0.04 1.17,0.04 0.33,0 0.81,-0.02 1.16,-0.04 v 0.31 c -1.02,0 -1.02,0.47 -1.02,0.74 v 5.17 c 0.05,-0.05 0.06,-0.05 0.1,-0.11 l 4.06,-5.98 c 0.09,-0.11 0.1,-0.13 0.17,-0.13 0.14,0 0.14,0.08 0.14,0.26 v 5.5 c 0,0.27 0,0.73 1.03,0.73 v 0.31 c -0.35,-0.01 -0.84,-0.03 -1.17,-0.03 -0.33,0 -0.81,0.02 -1.16,0.03 v -0.31 c 1.02,0 1.02,-0.46 1.02,-0.73 v -4.25 z"
   inkscape:connector-curvature="0"
   style="fill:#000000;stroke-width:0" />
<path
   id="path3398"
   d="m 233.17,710.27 -0.03,0.26 v 2.69 c 0,0.32 0.02,0.39 0.48,0.39 h 0.89 c 1.59,0 1.59,-1.05 1.59,-1.54 0,-0.47 0,-1.54 -1.59,-1.54 h -1.37 l 0.03,-0.26 h 1.68 c 1.2,0 2.27,0.81 2.27,1.8 0,0.98 -0.98,1.85 -2.35,1.85 h -3.52 v -0.31 h 0.24 c 0.77,0 0.79,-0.1 0.79,-0.46 v -5.25 c 0,-0.36 -0.02,-0.47 -0.79,-0.47 h -0.24 v -0.31 c 0.35,0.04 1.09,0.04 1.47,0.04 0.38,0 1.13,0 1.47,-0.04 v 0.31 h -0.24 c -0.76,0 -0.78,0.11 -0.78,0.47 z"
   inkscape:connector-curvature="0"
   style="fill:#000000;stroke-width:0" />
<path
   id="path3400"
   d="m 238.53,706.07 0,-0.01 0,-0.01 0,-0.01 -0.01,-0.01 0,-0.01 0,-0.01 -0.01,-0.01 0,-0.01 0,-0.02 -0.01,-0.03 -0.01,-0.02 0,-0.02 0,-0.01 -0.01,-0.01 0,-0.01 0,-0.01 0,-0.01 -0.01,-0.01 0,-0.01 0,-0.01 0,0 0,-0.01 0,-0.01 0,0 0,-0.01 -0.01,0 0,0 0,0 0,0 0,-0.01 c 0,-0.15 0.13,-0.22 0.24,-0.22 0.13,0 0.24,0.09 0.27,0.15 0.04,0.07 0.09,0.29 0.13,0.44 0.03,0.13 0.11,0.45 0.15,0.62 0.04,0.15 0.09,0.31 0.12,0.47 0.08,0.28 0.09,0.34 0.29,0.62 0.2,0.28 0.52,0.64 1.05,0.64 0.4,0 0.41,-0.35 0.41,-0.48 0,-0.42 -0.3,-1.19 -0.41,-1.49 -0.08,-0.19 -0.11,-0.25 -0.11,-0.37 0,-0.37 0.31,-0.6 0.66,-0.6 0.7,0 1.01,0.96 1.01,1.06 0,0.1 -0.09,0.1 -0.12,0.1 -0.09,0 -0.1,-0.05 -0.13,-0.12 -0.16,-0.56 -0.46,-0.84 -0.73,-0.84 -0.15,0 -0.18,0.09 -0.18,0.24 0,0.16 0.04,0.25 0.16,0.56 0.08,0.22 0.37,0.96 0.37,1.35 0,0.67 -0.54,0.79 -0.91,0.79 -0.57,0 -0.96,-0.36 -1.17,-0.63 -0.05,0.47 -0.46,0.63 -0.75,0.63 -0.3,0 -0.46,-0.22 -0.55,-0.38 -0.15,-0.25 -0.25,-0.65 -0.25,-0.69 0,-0.09 0.1,-0.09 0.12,-0.09 0.1,0 0.1,0.02 0.15,0.21 0.11,0.41 0.24,0.75 0.51,0.75 0.18,0 0.23,-0.15 0.23,-0.34 0,-0.13 -0.06,-0.39 -0.11,-0.57 -0.05,-0.19 -0.12,-0.48 -0.15,-0.63 z"
   inkscape:connector-curvature="0"
   style="fill:#000000;stroke-width:0" />
</g>    <g
       style="font-style:normal;font-variant:normal;font-weight:normal;font-stretch:normal;letter-spacing:normal;word-spacing:normal;text-anchor:start;fill:none;stroke:#000000;stroke-linecap:butt;stroke-linejoin:miter;stroke-miterlimit:10.43299961;stroke-opacity:1;stroke-dasharray:none;stroke-dashoffset:0"
       id="g3460"
       transform="matrix(3,0,0,-3,-478.37914,2727.6108)"
       xml:space="preserve"
       stroke-miterlimit="10.433"
       font-style="normal"
       font-variant="normal"
       font-weight="normal"
       font-stretch="normal"
       font-size-adjust="none"
       letter-spacing="normal"
       word-spacing="normal"
       ns0:text="NS\n"
       ns0:preamble="">
<path
   style="fill:#000000;stroke-width:0"
   inkscape:connector-curvature="0"
   d="m 225.74,713.79 0,0.01 -0.01,0.01 -0.01,0.01 -0.01,0.01 0,0.01 -0.01,0.01 -0.01,0.01 0,0 -0.01,0.01 0,0.01 -0.01,0 -0.01,0.01 0,0 -0.01,0.01 -0.01,0 0,0 -0.01,0.01 -0.01,0 0,0 -0.01,0 -0.01,0.01 -0.01,0 -0.01,0 -0.01,0 -0.01,0 -0.01,0 -0.02,0 -0.01,0 -0.02,0 0,0 -0.01,0 -0.01,0 -0.01,0 -0.01,0 0,0 h -1.7 v -0.31 h 0.29 c 0.15,0 0.35,-0.01 0.5,-0.02 0.23,-0.03 0.24,-0.04 0.24,-0.23 v -5.19 c 0,-0.27 0,-0.74 -1.03,-0.74 v -0.31 c 0.35,0.02 0.84,0.04 1.17,0.04 0.33,0 0.81,-0.02 1.16,-0.04 v 0.31 c -1.02,0 -1.02,0.47 -1.02,0.74 v 5.17 c 0.05,-0.05 0.06,-0.05 0.1,-0.11 l 4.06,-5.98 c 0.09,-0.11 0.1,-0.13 0.17,-0.13 0.14,0 0.14,0.08 0.14,0.26 v 5.5 c 0,0.27 0,0.73 1.03,0.73 v 0.31 c -0.35,-0.01 -0.84,-0.03 -1.17,-0.03 -0.33,0 -0.81,0.02 -1.16,0.03 v -0.31 c 1.02,0 1.02,-0.46 1.02,-0.73 v -4.25 z"
   id="path3462" />
<path
   style="fill:#000000;stroke-width:0"
   inkscape:connector-curvature="0"
   d="m 234.38,710.99 -1.27,0.3 c -0.62,0.15 -1.01,0.69 -1.01,1.27 0,0.7 0.54,1.3 1.32,1.3 1.66,0 1.88,-1.63 1.94,-2.08 0.01,-0.06 0.01,-0.12 0.12,-0.12 0.13,0 0.13,0.05 0.13,0.24 v 2 c 0,0.17 0,0.24 -0.11,0.24 -0.07,0 -0.08,-0.01 -0.15,-0.13 L 235,713.45 c -0.3,0.28 -0.71,0.69 -1.59,0.69 -1.11,0 -1.95,-0.87 -1.95,-1.93 0,-0.82 0.53,-1.55 1.31,-1.82 0.11,-0.04 0.62,-0.16 1.31,-0.33 0.27,-0.07 0.57,-0.14 0.85,-0.51 0.21,-0.26 0.31,-0.58 0.31,-0.91 0,-0.71 -0.5,-1.42 -1.34,-1.42 -0.28,0 -1.04,0.04 -1.57,0.53 -0.58,0.54 -0.61,1.18 -0.62,1.53 -0.01,0.1 -0.09,0.1 -0.12,0.1 -0.13,0 -0.13,-0.06 -0.13,-0.24 v -1.99 c 0,-0.17 0,-0.24 0.11,-0.24 0.07,0 0.08,0.02 0.15,0.12 0,0.01 0.03,0.05 0.36,0.57 0.31,-0.34 0.95,-0.69 1.83,-0.69 1.17,0 1.97,0.97 1.97,2.07 0,0.99 -0.66,1.81 -1.5,2.01 z"
   id="path3464" />
</g>    <g
       ns0:preamble=""
       ns0:text="PE\n"
       word-spacing="normal"
       letter-spacing="normal"
       font-size-adjust="none"
       font-stretch="normal"
       font-weight="normal"
       font-variant="normal"
       font-style="normal"
       stroke-miterlimit="10.433"
       xml:space="preserve"
       transform="matrix(3,0,0,-3,-478.27538,2514.3427)"
       id="content"
       style="font-style:normal;font-variant:normal;font-weight:normal;font-stretch:normal;letter-spacing:normal;word-spacing:normal;text-anchor:start;fill:none;stroke:#000000;stroke-linecap:butt;stroke-linejoin:miter;stroke-miterlimit:10.43299961;stroke-opacity:1;stroke-dasharray:none;stroke-dashoffset:0">
<path
   id="path3528"
   d="m 225.7,710.27 -0.04,0.26 v 2.69 c 0,0.32 0.02,0.39 0.49,0.39 h 0.89 c 1.59,0 1.59,-1.05 1.59,-1.54 0,-0.47 0,-1.54 -1.59,-1.54 h -1.38 l 0.04,-0.26 h 1.68 c 1.2,0 2.27,0.81 2.27,1.8 0,0.98 -0.99,1.85 -2.35,1.85 h -3.52 v -0.31 h 0.24 c 0.77,0 0.79,-0.1 0.79,-0.46 v -5.25 c 0,-0.36 -0.02,-0.47 -0.79,-0.47 h -0.24 v -0.31 c 0.35,0.04 1.09,0.04 1.47,0.04 0.37,0 1.12,0 1.47,-0.04 v 0.31 h -0.24 c -0.77,0 -0.78,0.11 -0.78,0.47 z"
   inkscape:connector-curvature="0"
   style="fill:#000000;stroke-width:0" />
<path
   id="path3530"
   d="m 236.71,709.69 h -0.25 c -0.25,-1.53 -0.48,-2.26 -2.19,-2.26 h -1.33 c -0.46,0 -0.48,0.07 -0.48,0.4 v 2.66 h 0.89 c 0.97,0 1.08,-0.32 1.08,-1.17 h 0.25 v 2.64 h -0.25 c 0,-0.85 -0.11,-1.16 -1.08,-1.16 h -0.89 v 2.39 c 0,0.33 0.02,0.39 0.48,0.39 h 1.29 c 1.53,0 1.79,-0.54 1.95,-1.93 h 0.25 l -0.28,2.24 h -5.61 v -0.31 h 0.24 c 0.77,0 0.79,-0.11 0.79,-0.46 v -5.22 c 0,-0.36 -0.02,-0.47 -0.79,-0.47 h -0.24 v -0.31 h 5.75 z"
   inkscape:connector-curvature="0"
   style="fill:#000000;stroke-width:0" />
</g>    <g
       style="font-style:normal;font-variant:normal;font-weight:normal;font-stretch:normal;letter-spacing:normal;word-spacing:normal;text-anchor:start;fill:none;stroke:#000000;stroke-linecap:butt;stroke-linejoin:miter;stroke-miterlimit:10.43299961;stroke-opacity:1;stroke-dasharray:none;stroke-dashoffset:0"
       id="g3938"
       transform="matrix(1.5,0,0,-1.5,-254.65198,1510.4582)"
       xml:space="preserve"
       stroke-miterlimit="10.433"
       font-style="normal"
       font-variant="normal"
       font-weight="normal"
       font-stretch="normal"
       font-size-adjust="none"
       letter-spacing="normal"
       word-spacing="normal"
       ns0:text="$\\nabla \\mathrm{\\psi}$\n"
       ns0:preamble="">
<path
   style="fill:#000000;stroke-width:0"
   inkscape:connector-curvature="0"
   d="m 231.21,713.72 0,0.01 0,0 0,0.01 0.01,0 0,0 0,0.01 0,0 0,0 0.01,0.01 0,0 0,0 0,0.01 0,0 0,0 0,0.01 0.01,0 0,0 0,0.01 0,0 0,0.01 0.01,0 0,0.01 0,0 0,0 0,0.01 0,0 0,0 0,0 0,0.01 0.01,0 0,0 0,0 0,0 0,0.01 0,0 0,0 0,0 0,0 0,0 c 0,0.08 -0.06,0.08 -0.22,0.08 h -6.92 c -0.16,0 -0.22,0 -0.22,-0.08 0,-0.01 0,-0.03 0.05,-0.12 l 3.37,-6.74 c 0.07,-0.13 0.09,-0.18 0.26,-0.18 0.17,0 0.19,0.05 0.26,0.18 l 0.03,0.75 -2.74,5.49 h 5.48 l -2.73,-5.49 h -0.01 l -0.03,-0.75 z"
   id="path3940" />
<path
   style="fill:#000000;stroke-width:0"
   inkscape:connector-curvature="0"
   d="m 236.54,713.77 0,0.01 0,0 0,0 0,0.01 0.01,0.01 0,0.01 0,0.01 0,0 0.01,0.01 0,0.01 0,0.01 0,0.01 0,0.01 0.01,0.01 0,0.01 0,0.01 0,0.01 0,0 0,0.01 0,0 c 0,0.1 -0.07,0.11 -0.12,0.11 -0.1,0 -0.11,-0.02 -0.15,-0.2 l -1.65,-6.58 c -0.76,0.09 -1.14,0.46 -1.14,1.12 0,0.2 0,0.46 0.54,1.85 0.04,0.12 0.11,0.29 0.11,0.49 0,0.45 -0.32,0.81 -0.82,0.81 -0.95,0 -1.32,-1.44 -1.32,-1.53 0,-0.1 0.1,-0.1 0.12,-0.1 0.1,0 0.11,0.02 0.16,0.18 0.27,0.95 0.67,1.23 1.01,1.23 0.08,0 0.25,0 0.25,-0.31 0,-0.26 -0.1,-0.51 -0.23,-0.86 -0.48,-1.25 -0.48,-1.51 -0.48,-1.68 0,-0.95 0.78,-1.36 1.74,-1.42 -0.08,-0.35 -0.08,-0.37 -0.22,-0.9 -0.03,-0.11 -0.23,-0.92 -0.23,-0.95 0,-0.01 0,-0.09 0.12,-0.09 0.02,0 0.07,0 0.09,0.03 0.03,0.02 0.08,0.27 0.11,0.41 0.14,0.49 0.25,0.99 0.38,1.49 0.37,0 1.25,0 2.19,1.06 0.41,0.46 0.62,0.9 0.73,1.2 0.09,0.24 0.3,1.11 0.3,1.55 0,0.56 -0.27,0.69 -0.44,0.69 -0.24,0 -0.49,-0.25 -0.49,-0.47 0,-0.13 0.06,-0.19 0.15,-0.27 0.11,-0.11 0.35,-0.37 0.35,-0.85 0,-0.64 -0.51,-1.45 -0.86,-1.81 -0.88,-0.89 -1.52,-0.89 -1.88,-0.89 z"
   id="path3942" />
</g>    <path
       transform="matrix(0.81955704,0,0,0.91061894,38.489004,316.3658)"
       d="m 212.30982,180.17998 c 0,1.21299 -1.09258,2.19631 -2.44034,2.19631 -1.34777,0 -2.44035,-0.98332 -2.44035,-2.19631 0,-1.21299 1.09258,-2.19631 2.44035,-2.19631 1.34776,0 2.44034,0.98332 2.44034,2.19631 z"
       sodipodi:ry="2.1963084"
       sodipodi:rx="2.4403427"
       sodipodi:cy="180.17998"
       sodipodi:cx="209.86948"
       id="path4000"
       style="fill:#000000;fill-opacity:1;stroke:none"
       sodipodi:type="arc" />
    <path
       sodipodi:type="arc"
       style="fill:#000000;fill-opacity:1;stroke:none"
       id="path4002"
       sodipodi:cx="209.86948"
       sodipodi:cy="180.17998"
       sodipodi:rx="2.4403427"
       sodipodi:ry="2.1963084"
       d="m 212.30982,180.17998 c 0,1.21299 -1.09258,2.19631 -2.44034,2.19631 -1.34777,0 -2.44035,-0.98332 -2.44035,-2.19631 0,-1.21299 1.09258,-2.19631 2.44035,-2.19631 1.34776,0 2.44034,0.98332 2.44034,2.19631 z"
       transform="matrix(0.81955704,0,0,0.91061894,38.489004,324.1749)" />
    <path
       transform="matrix(0.81955704,0,0,0.91061894,38.489004,332.96013)"
       d="m 212.30982,180.17998 c 0,1.21299 -1.09258,2.19631 -2.44034,2.19631 -1.34777,0 -2.44035,-0.98332 -2.44035,-2.19631 0,-1.21299 1.09258,-2.19631 2.44035,-2.19631 1.34776,0 2.44034,0.98332 2.44034,2.19631 z"
       sodipodi:ry="2.1963084"
       sodipodi:rx="2.4403427"
       sodipodi:cy="180.17998"
       sodipodi:cx="209.86948"
       id="path4004"
       style="fill:#000000;fill-opacity:1;stroke:none"
       sodipodi:type="arc" />
    <g
       ns0:preamble=""
       ns0:text="$\\rho_e$\n"
       word-spacing="normal"
       letter-spacing="normal"
       font-size-adjust="none"
       font-stretch="normal"
       font-weight="normal"
       font-variant="normal"
       font-style="normal"
       stroke-miterlimit="10.433"
       xml:space="preserve"
       transform="matrix(1.5,0,0,-1.5,-22.301202,1491.202)"
       id="g4064"
       style="font-style:normal;font-variant:normal;font-weight:normal;font-stretch:normal;letter-spacing:normal;word-spacing:normal;text-anchor:start;fill:none;stroke:#000000;stroke-linecap:butt;stroke-linejoin:miter;stroke-miterlimit:10.43299961;stroke-opacity:1;stroke-dasharray:none;stroke-dashoffset:0">
<path
   id="path4066"
   d="m 223.76,705.4 0,0 0,-0.01 0,0 0,-0.01 -0.01,0 0,-0.01 0,0 0,-0.01 0,0 0,-0.01 0,0 0,0 0,-0.01 0,0 -0.01,-0.01 0,-0.01 0,0 0,-0.01 0,0 0,-0.01 0,0 0,-0.01 -0.01,0 0,-0.01 0,0 0,0 0,-0.01 0,0 0,0 0,-0.01 0,0 0,0 0,0 0,-0.01 0,0 0,-0.01 c 0,-0.15 0.11,-0.27 0.28,-0.27 0.21,0 0.33,0.18 0.35,0.21 0.05,0.09 0.37,1.43 0.64,2.5 0.2,-0.4 0.51,-0.66 0.98,-0.66 l -0.01,0.21 c -0.69,0 -0.85,0.8 -0.85,0.89 0,0.04 0.05,0.24 0.08,0.37 0.28,1.11 0.37,1.47 0.59,1.87 0.43,0.73 0.93,0.94 1.24,0.94 0.37,0 0.69,-0.28 0.69,-0.97 0,-0.55 -0.29,-1.66 -0.56,-2.15 -0.33,-0.63 -0.81,-0.95 -1.19,-0.95 h 0 l 0.01,-0.21 c 1.17,0 2.46,1.4 2.46,2.88 0,1.06 -0.66,1.62 -1.39,1.62 -0.97,0 -2.01,-0.99 -2.31,-2.2 z"
   inkscape:connector-curvature="0"
   style="fill:#000000;stroke-width:0" />
<path
   id="path4068"
   d="m 230.14,707.22 0.02,0 0.02,0 0.03,0 0.02,0 0.03,0 0.03,0 0.03,0 0.03,0 0.03,0 0.03,0 0.04,0.01 0.03,0 0.04,0 0.04,0 0.08,0.01 0.07,0.01 0.09,0.01 0.08,0.01 0.08,0.01 0.08,0.02 0.04,0.01 0.04,0.01 0.03,0.01 0.04,0.01 0.04,0.01 0.03,0.01 c 0.52,0.18 0.62,0.52 0.62,0.73 0,0.38 -0.39,0.61 -0.87,0.61 v -0.2 c 0.31,0 0.57,-0.15 0.57,-0.41 0,-0.68 -1.18,-0.68 -1.48,-0.68 h -0.34 c 0.29,1.01 1.06,1.09 1.25,1.09 v 0.2 c -0.83,0 -1.96,-0.64 -1.96,-1.83 0,-0.7 0.44,-1.31 1.25,-1.31 1.18,0 1.73,0.69 1.73,0.79 0,0.04 -0.06,0.12 -0.12,0.12 -0.04,0 -0.05,-0.02 -0.11,-0.07 -0.54,-0.64 -1.36,-0.64 -1.48,-0.64 -0.42,0 -0.7,0.27 -0.7,0.84 0,0.1 0,0.23 0.08,0.62 z"
   inkscape:connector-curvature="0"
   style="fill:#000000;stroke-width:0" />
</g>    <path
       sodipodi:nodetypes="csc"
       transform="translate(0,302.36221)"
       inkscape:connector-curvature="0"
       inkscape:original-d="m 258.40506,155.10043 c 0,0 18.27559,-1.16178 28.39617,-4.73269 10.83045,-3.82138 23.19019,-15.14462 23.19019,-15.14462"
       inkscape:path-effect="#path-effect4203"
       id="path4201"
       d="m 258.40506,155.10043 c 9.6573,0.44056 19.40376,-1.18385 28.39617,-4.73269 8.64693,-3.4125 16.58919,-8.59928 23.19019,-15.14462"
       style="fill:none;stroke:#000000;stroke-width:1px;stroke-linecap:butt;stroke-linejoin:miter;stroke-opacity:1;marker-end:url(#Arrow2Mend)" />
    <path
       sodipodi:nodetypes="cac"
       transform="translate(0,302.36221)"
       inkscape:connector-curvature="0"
       inkscape:original-d="m 256.03872,188.22929 c 0,0 19.86074,-4.22824 27.92289,-9.93866 14.73723,-10.43837 34.0754,-42.12097 34.0754,-42.12097"
       inkscape:path-effect="#path-effect5171"
       id="path5169"
       d="m 256.03872,188.22929 c 9.8293,-1.48387 19.36652,-4.87847 27.92289,-9.93866 15.87887,-9.39067 28.20814,-24.63102 34.0754,-42.12097"
       style="fill:none;stroke:#000000;stroke-width:1px;stroke-linecap:butt;stroke-linejoin:miter;stroke-opacity:1;marker-end:url(#Arrow2Mend)" />
    <path
       sodipodi:nodetypes="cac"
       inkscape:connector-curvature="0"
       inkscape:original-d="m 258.87833,521.354 c 0,0 16.52212,-3.70548 22.71693,-8.99211 21.8972,-18.68698 44.01405,-74.30329 44.01405,-74.30329"
       inkscape:path-effect="#path-effect5175"
       id="path5173"
       d="m 258.87833,521.354 c 7.9439,-1.91251 15.61621,-4.94946 22.71693,-8.99211 13.0868,-7.45069 24.1845,-18.35894 31.85942,-31.31552 7.67491,-12.95657 11.90878,-27.93066 12.15463,-42.98777"
       style="fill:none;stroke:#000000;stroke-width:1px;stroke-linecap:butt;stroke-linejoin:miter;stroke-opacity:1;marker-end:url(#Arrow2Mend)" />
    <path
       sodipodi:nodetypes="cac"
       transform="translate(0,302.36221)"
       inkscape:connector-curvature="0"
       inkscape:original-d="m 318.037,117.23888 c 0,0 -16.22623,-21.772911 -27.44962,-28.869427 -8.98129,-5.678841 -30.28924,-9.938657 -30.28924,-9.938657"
       inkscape:path-effect="#path-effect5547"
       id="path5545"
       d="M 318.037,117.23888 C 311.76215,105.3454 302.14958,95.235621 290.58738,88.369453 281.37759,82.900251 270.95783,79.481267 260.29814,78.430796"
       style="fill:none;stroke:#000000;stroke-width:1px;stroke-linecap:butt;stroke-linejoin:miter;stroke-opacity:1;marker-end:url(#Arrow2Mend)" />
    <path
       sodipodi:nodetypes="cac"
       transform="translate(0,302.36221)"
       inkscape:connector-curvature="0"
       inkscape:original-d="m 167.06408,186.80948 c 0,0 -28.16839,15.57567 -39.75463,26.50308 -7.62049,7.18716 -18.93077,25.08327 -18.93077,25.08327"
       inkscape:path-effect="#path-effect5739"
       id="path5737"
       d="m 167.06408,186.80948 c -14.86361,6.02009 -28.48084,15.09825 -39.75463,26.50308 -7.38586,7.47172 -13.77074,15.93168 -18.93077,25.08327"
       style="fill:none;stroke:#000000;stroke-width:1px;stroke-linecap:butt;stroke-linejoin:miter;stroke-opacity:1;marker-end:url(#Arrow2Mend)" />
    <path
       sodipodi:nodetypes="cac"
       transform="translate(0,302.36221)"
       inkscape:connector-curvature="0"
       inkscape:original-d="m 166.11754,156.04697 c 0,0 -36.07001,15.3196 -47.32693,30.28924 -10.67993,14.20235 -15.14462,51.11309 -15.14462,51.11309"
       inkscape:path-effect="#path-effect5743"
       id="path5741"
       d="m 166.11754,156.04697 c -18.76333,3.8582 -35.96458,14.86701 -47.32693,30.28924 -10.75464,14.59738 -16.21116,33.01314 -15.14462,51.11309"
       style="fill:none;stroke:#000000;stroke-width:1px;stroke-linecap:butt;stroke-linejoin:miter;stroke-opacity:1;marker-end:url(#Arrow2Mend)" />
    <path
       sodipodi:nodetypes="cac"
       transform="translate(0,302.36221)"
       inkscape:connector-curvature="0"
       inkscape:original-d="m 166.59081,218.51852 c 0,0 -20.42205,3.08272 -29.81597,7.09904 -8.81142,3.76727 -24.13674,15.61789 -24.13674,15.61789"
       inkscape:path-effect="#path-effect5747"
       id="path5745"
       d="m 166.59081,218.51852 c -10.25204,0.59488 -20.39585,3.01008 -29.81597,7.09904 -8.83046,3.83302 -17.02195,9.13339 -24.13674,15.61789"
       style="fill:none;stroke:#000000;stroke-width:1px;stroke-linecap:butt;stroke-linejoin:miter;stroke-opacity:1;marker-end:url(#Arrow2Mend)" />
    <path
       sodipodi:nodetypes="csc"
       transform="translate(0,302.36221)"
       inkscape:connector-curvature="0"
       inkscape:original-d="m 105.53907,256.85334 c 8.01723,-2.29064 4.81216,16.09665 18.4575,23.66346 12.30664,6.82446 42.12097,15.6179 42.12097,15.6179"
       inkscape:path-effect="#path-effect5751"
       id="path5749"
       d="m 105.53907,256.85334 c 4.3158,9.11472 10.66784,17.25835 18.4575,23.66346 11.7831,9.68874 26.86972,15.28266 42.12097,15.6179"
       style="fill:none;stroke:#000000;stroke-width:1px;stroke-linecap:butt;stroke-linejoin:miter;stroke-opacity:1;marker-end:url(#Arrow2Mend)" />
    <g
       id="g6670"
       transform="matrix(1.5,0,0,-1.5,-235.82287,1615.7566)"
       xml:space="preserve"
       stroke-miterlimit="10.433"
       font-style="normal"
       font-variant="normal"
       font-weight="normal"
       font-stretch="normal"
       font-size-adjust="none"
       letter-spacing="normal"
       word-spacing="normal"
       ns0:text="$\\mathbf{F}$\n\n\n"
       ns0:preamble=""
       style="font-style:normal;font-variant:normal;font-weight:normal;font-stretch:normal;letter-spacing:normal;word-spacing:normal;text-anchor:start;fill:none;stroke:#000000;stroke-linecap:butt;stroke-linejoin:miter;stroke-miterlimit:10.43299961;stroke-opacity:1;stroke-dasharray:none;stroke-dashoffset:0">
<path
   style="fill:#000000;stroke-width:0"
   inkscape:connector-curvature="0"
   d="m 229.85,713.89 h -6.03 v -0.47 h 1.08 v -5.83 h -1.08 v -0.47 c 0.38,0.04 1.39,0.04 1.83,0.04 0.48,0 1.57,0 2.01,-0.04 v 0.47 h -1.35 v 2.69 h 0.5 c 0.96,0 1.05,-0.43 1.05,-1.16 h 0.47 v 2.79 h -0.47 c 0,-0.73 -0.08,-1.16 -1.05,-1.16 h -0.5 v 2.67 h 1.4 c 1.6,0 1.83,-0.76 1.98,-1.93 h 0.47 z"
   id="path6672" />
</g>    <path
       sodipodi:nodetypes="cac"
       transform="translate(0,302.36221)"
       inkscape:connector-curvature="0"
       inkscape:original-d="m 258.40506,296.60797 c 0,0 22.90475,-26.92351 22.24367,-43.06751 -0.54803,-13.38323 -21.29713,-34.0754 -21.29713,-34.0754"
       inkscape:path-effect="#path-effect6735"
       id="path6733"
       d="m 258.40506,296.60797 c 7.39317,-4.26432 13.52429,-10.68694 17.44086,-18.27008 3.91657,-7.58314 5.60493,-16.30037 4.80281,-24.79743 -1.30527,-13.827 -9.44034,-26.8431 -21.29713,-34.0754"
       style="fill:none;stroke:#000000;stroke-width:1px;stroke-linecap:butt;stroke-linejoin:miter;stroke-opacity:1;marker-end:url(#Arrow2Mend)" />
    <path
       sodipodi:nodetypes="cac"
       transform="translate(0,302.36221)"
       inkscape:connector-curvature="0"
       inkscape:original-d="m 258.40506,297.08124 c 0,0 40.46552,-35.51748 39.28136,-59.15867 -1.07112,-21.38452 -40.70116,-49.69328 -40.70116,-49.69328"
       inkscape:path-effect="#path-effect6923"
       id="path6921"
       d="m 258.40506,297.08124 c 12.16429,-3.91584 22.92218,-12.06081 29.99105,-22.70669 7.06886,-10.64588 10.40133,-23.72134 9.29031,-36.45198 -0.98888,-11.33111 -5.46842,-22.33347 -12.67554,-31.13286 -7.20713,-8.79939 -17.11138,-15.35865 -28.02562,-18.56042"
       style="fill:none;stroke:#000000;stroke-width:1px;stroke-linecap:butt;stroke-linejoin:miter;stroke-opacity:1;marker-end:url(#Arrow2Mend)" />
    <path
       sodipodi:nodetypes="cac"
       transform="translate(0,302.36221)"
       inkscape:connector-curvature="0"
       inkscape:original-d="m 259.3516,296.1347 c 0,0 58.40069,-50.09281 55.37252,-83.29541 C 312.31243,186.39623 259.3516,155.5737 259.3516,155.5737"
       inkscape:path-effect="#path-effect7111"
       id="path7109"
       d="m 259.3516,296.1347 c 18.0057,-3.94168 34.32458,-15.10146 44.52873,-30.45129 10.20415,-15.34983 14.17818,-34.71613 10.84379,-52.84412 -2.54524,-13.83764 -9.25721,-26.88108 -19.03745,-36.99569 -9.78025,-10.11461 -22.59077,-17.2611 -36.33507,-20.2699"
       style="fill:none;stroke:#000000;stroke-width:1px;stroke-linecap:butt;stroke-linejoin:miter;stroke-opacity:1;marker-end:url(#Arrow2Mend)" />
    <g
       ns0:preamble=""
       ns0:text="$\\mathbf{u}$\n"
       word-spacing="normal"
       letter-spacing="normal"
       font-size-adjust="none"
       font-stretch="normal"
       font-weight="normal"
       font-variant="normal"
       font-style="normal"
       stroke-miterlimit="10.433"
       xml:space="preserve"
       transform="matrix(1.5,0,0,-1.5,-15.132827,1605.6522)"
       id="g7364"
       style="font-style:normal;font-variant:normal;font-weight:normal;font-stretch:normal;letter-spacing:normal;word-spacing:normal;text-anchor:start;fill:none;stroke:#000000;stroke-linecap:butt;stroke-linejoin:miter;stroke-miterlimit:10.43299961;stroke-opacity:1;stroke-dasharray:none;stroke-dashoffset:0">
<path
   id="path7366"
   d="m 227.8,707.84 v -0.77 l 1.76,0.05 v 0.47 c -0.61,0 -0.68,0 -0.68,0.39 v 3.62 l -1.83,-0.08 v -0.46 c 0.62,0 0.69,0 0.69,-0.39 v -1.9 c 0,-0.82 -0.51,-1.35 -1.24,-1.35 -0.76,0 -0.79,0.25 -0.79,0.79 v 3.39 l -1.83,-0.08 v -0.46 c 0.62,0 0.69,0 0.69,-0.39 v -2.32 c 0,-1.07 0.81,-1.28 1.79,-1.28 0.26,0 0.98,0 1.44,0.77 z"
   inkscape:connector-curvature="0"
   style="fill:#000000;stroke-width:0" />
</g>  </g>
</svg>
