<?xml version="1.0" encoding="UTF-8" standalone="no"?>
<!-- Created with Inkscape (http://www.inkscape.org/) -->

<svg
   xmlns:ns0="http://www.iki.fi/pav/software/textext/"
   xmlns:dc="http://purl.org/dc/elements/1.1/"
   xmlns:cc="http://creativecommons.org/ns#"
   xmlns:rdf="http://www.w3.org/1999/02/22-rdf-syntax-ns#"
   xmlns:svg="http://www.w3.org/2000/svg"
   xmlns="http://www.w3.org/2000/svg"
   xmlns:sodipodi="http://sodipodi.sourceforge.net/DTD/sodipodi-0.dtd"
   xmlns:inkscape="http://www.inkscape.org/namespaces/inkscape"
   width="431.25"
   height="562.5"
   id="svg7504"
   version="1.1"
   inkscape:version="0.48.0 r9654"
   sodipodi:docname="full_algorithm.pdf">
  <sodipodi:namedview
     id="base"
     pagecolor="#ffffff"
     bordercolor="#666666"
     borderopacity="1.0"
     inkscape:pageopacity="0.0"
     inkscape:pageshadow="2"
     inkscape:zoom="2.0534282"
     inkscape:cx="207.13913"
     inkscape:cy="361.34149"
     inkscape:document-units="px"
     inkscape:current-layer="layer1"
     showgrid="false"
     units="pt"
     inkscape:window-width="1440"
     inkscape:window-height="801"
     inkscape:window-x="0"
     inkscape:window-y="0"
     inkscape:window-maximized="1" />
  <defs
     id="defs7506">
    <marker
       style="overflow:visible"
       id="Arrow1Mend"
       refX="0"
       refY="0"
       orient="auto"
       inkscape:stockid="Arrow1Mend">
      <path
         transform="matrix(-0.4,0,0,-0.4,-4,0)"
         style="fill-rule:evenodd;stroke:#000000;stroke-width:1pt;marker-start:none"
         d="M 0,0 5,-5 -12.5,0 5,5 0,0 z"
         id="path4007"
         inkscape:connector-curvature="0" />
    </marker>
    <inkscape:path-effect
       is_visible="true"
       id="path-effect9349"
       effect="spiro" />
    <inkscape:path-effect
       effect="spiro"
       id="path-effect8177"
       is_visible="true" />
    <inkscape:path-effect
       effect="spiro"
       id="path-effect8173"
       is_visible="true" />
    <inkscape:path-effect
       effect="spiro"
       id="path-effect8169"
       is_visible="true" />
    <inkscape:path-effect
       effect="spiro"
       id="path-effect8165"
       is_visible="true" />
  </defs>
  <metadata
     id="metadata7509">
    <rdf:RDF>
      <cc:Work
         rdf:about="">
        <dc:format>image/svg+xml</dc:format>
        <dc:type
           rdf:resource="http://purl.org/dc/dcmitype/StillImage" />
        <dc:title></dc:title>
      </cc:Work>
    </rdf:RDF>
  </metadata>
  <g
     inkscape:label="Layer 1"
     inkscape:groupmode="layer"
     id="layer1"
     transform="translate(0,-489.86218)">
    <rect
       style="fill:none;stroke:#000000;stroke-width:0.76117766;stroke-miterlimit:4;stroke-opacity:1;stroke-dasharray:none;stroke-dashoffset:0"
       id="rect7647"
       width="103.98799"
       height="29.81431"
       x="155.19682"
       y="543.47693" />
    <rect
       y="710.11456"
       x="155.19682"
       height="29.81431"
       width="103.98799"
       id="rect8157"
       style="fill:none;stroke:#000000;stroke-width:0.76117766;stroke-miterlimit:4;stroke-opacity:1;stroke-dasharray:none;stroke-dashoffset:0" />
    <rect
       style="fill:none;stroke:#000000;stroke-width:0.76117766;stroke-miterlimit:4;stroke-opacity:1;stroke-dasharray:none;stroke-dashoffset:0"
       id="rect8159"
       width="103.98799"
       height="29.81431"
       x="155.19682"
       y="603.32526" />
    <rect
       y="656.71991"
       x="155.19682"
       height="29.81431"
       width="103.98799"
       id="rect8161"
       style="fill:none;stroke:#000000;stroke-width:0.76117766;stroke-miterlimit:4;stroke-opacity:1;stroke-dasharray:none;stroke-dashoffset:0" />
    <path
       style="fill:none;stroke:#000000;stroke-width:1px;stroke-linecap:butt;stroke-linejoin:miter;stroke-opacity:1;marker-end:url(#Arrow1Mend)"
       d="m 206.18997,573.07097 0,28.65667"
       id="path8163"
       inkscape:path-effect="#path-effect8165"
       inkscape:original-d="m 206.18997,573.07097 0,28.65667"
       inkscape:connector-curvature="0"
       sodipodi:nodetypes="cc" />
    <path
       style="fill:none;stroke:#000000;stroke-width:1px;stroke-linecap:butt;stroke-linejoin:miter;stroke-opacity:1;marker-end:url(#Arrow1Mend)"
       d="m 206.18997,633.42495 1e-5,21.8538"
       id="path8167"
       inkscape:path-effect="#path-effect8169"
       inkscape:original-d="m 206.18997,633.42495 1e-5,21.8538"
       inkscape:connector-curvature="0"
       sodipodi:nodetypes="cc" />
    <path
       style="fill:none;stroke:#000000;stroke-width:1px;stroke-linecap:butt;stroke-linejoin:miter;stroke-opacity:1;marker-end:url(#Arrow1Mend)"
       d="m 206.18997,686.61176 0,22.34079"
       id="path8171"
       inkscape:path-effect="#path-effect8173"
       inkscape:original-d="m 206.18997,686.61176 0,22.34079"
       inkscape:connector-curvature="0"
       sodipodi:nodetypes="cc" />
    <path
       style="fill:none;stroke:#000000;stroke-width:1px;stroke-linecap:butt;stroke-linejoin:miter;stroke-opacity:1;marker-end:url(#Arrow1Mend)"
       d="m 206.67696,740.04017 0,55.12718"
       id="path8175"
       inkscape:path-effect="#path-effect8177"
       inkscape:original-d="m 206.67696,740.04017 0,55.12718"
       inkscape:connector-curvature="0"
       sodipodi:nodetypes="cc" />
    <g
       ns0:preamble=""
       ns0:text="Convergence?\n"
       word-spacing="normal"
       letter-spacing="normal"
       font-size-adjust="none"
       font-stretch="normal"
       font-weight="normal"
       font-variant="normal"
       font-style="normal"
       stroke-miterlimit="10.433"
       xml:space="preserve"
       transform="matrix(1,0,0,-1,-84.510783,1476.6549)"
       id="g8991"
       style="font-style:normal;font-variant:normal;font-weight:normal;font-stretch:normal;letter-spacing:normal;word-spacing:normal;text-anchor:start;fill:none;stroke:#000000;stroke-linecap:butt;stroke-linejoin:miter;stroke-miterlimit:10.43299961;stroke-opacity:1;stroke-dasharray:none;stroke-dashoffset:0">
<path
   id="path8993"
   d="m 230.06,713.9 0,0.02 0,0.01 0,0.02 0,0.01 0,0.02 0,0.01 0,0.01 0,0.01 0,0.01 0,0.01 0,0.01 0,0.01 -0.01,0.01 0,0.01 0,0.01 0,0.01 -0.01,0 0,0.01 0,0 -0.01,0.01 0,0.01 0,0 -0.01,0 -0.01,0.01 0,0 -0.01,0 -0.01,0.01 0,0 -0.01,0 -0.01,0 -0.01,0 -0.01,0 c -0.04,0 -0.08,0 -0.16,-0.12 l -0.5,-0.73 c -0.36,0.35 -0.87,0.85 -1.83,0.85 -1.86,0 -3.47,-1.58 -3.47,-3.61 0,-2.06 1.61,-3.62 3.47,-3.62 1.62,0 2.6,1.38 2.6,2.53 0,0.1 0,0.17 -0.13,0.17 -0.11,0 -0.11,-0.06 -0.12,-0.16 -0.08,-1.42 -1.15,-2.23 -2.23,-2.23 -0.61,0 -2.56,0.33 -2.56,3.3 0,2.97 1.94,3.31 2.55,3.31 1.08,0 1.97,-0.9 2.17,-2.36 0.02,-0.13 0.02,-0.17 0.16,-0.17 0.16,0 0.16,0.04 0.16,0.24 z"
   inkscape:connector-curvature="0"
   style="fill:#000000;stroke-width:0" />
<path
   id="path8995"
   d="m 235.32,709.26 0,0.11 -0.01,0.12 -0.01,0.12 -0.02,0.11 -0.03,0.11 -0.03,0.11 -0.03,0.11 -0.04,0.11 -0.05,0.1 -0.05,0.1 -0.05,0.1 -0.06,0.09 -0.06,0.09 -0.06,0.09 -0.07,0.09 -0.08,0.08 -0.07,0.07 -0.08,0.08 -0.09,0.07 -0.08,0.06 -0.09,0.06 -0.1,0.06 -0.09,0.05 -0.1,0.05 -0.1,0.04 -0.1,0.04 -0.1,0.03 -0.11,0.03 -0.11,0.02 -0.11,0.01 -0.11,0.01 -0.11,0 -0.01,-0.22 c 0.44,0 0.87,-0.21 1.13,-0.64 0.25,-0.43 0.25,-1.01 0.25,-1.39 0,-0.35 0,-0.89 -0.22,-1.33 -0.21,-0.45 -0.65,-0.74 -1.15,-0.74 h 0 c -0.43,0 -0.87,0.21 -1.14,0.67 -0.25,0.44 -0.25,1.05 -0.25,1.4 0,0.39 0,0.93 0.24,1.37 0.27,0.46 0.74,0.66 1.14,0.66 l 0.01,0.22 c -1.25,0 -2.21,-1.08 -2.21,-2.32 0,-1.29 1.03,-2.24 2.2,-2.24 1.21,0 2.21,0.97 2.21,2.24 z"
   inkscape:connector-curvature="0"
   style="fill:#000000;stroke-width:0" />
<path
   id="path8997"
   d="m 236.71,710.55 v -2.67 c 0,-0.45 -0.11,-0.45 -0.78,-0.45 v -0.31 c 0.35,0.02 0.85,0.04 1.12,0.04 0.26,0 0.78,-0.02 1.12,-0.04 v 0.31 c -0.67,0 -0.78,0 -0.78,0.45 v 1.83 c 0,1.04 0.71,1.59 1.35,1.59 0.63,0 0.74,-0.53 0.74,-1.1 v -2.32 c 0,-0.45 -0.11,-0.45 -0.78,-0.45 v -0.31 c 0.35,0.02 0.86,0.04 1.12,0.04 0.26,0 0.78,-0.02 1.12,-0.04 v 0.31 c -0.52,0 -0.77,0 -0.78,0.3 v 1.9 c 0,0.86 0,1.17 -0.31,1.53 -0.14,0.17 -0.46,0.36 -1.04,0.36 -0.73,0 -1.2,-0.42 -1.48,-1.04 v 1.04 l -1.4,-0.11 v -0.3 c 0.69,0 0.78,-0.07 0.78,-0.56 z"
   inkscape:connector-curvature="0"
   style="fill:#000000;stroke-width:0" />
<path
   id="path8999"
   d="m 245.01,710.44 0.01,0.02 0.01,0.02 0.01,0.03 0.01,0.02 0.01,0.03 0.01,0.02 0.02,0.03 0.01,0.03 0.01,0.03 0.02,0.02 0.02,0.03 0.02,0.03 0.02,0.03 0.02,0.02 0.02,0.03 0.03,0.02 0.02,0.03 0.03,0.02 0.03,0.03 0.03,0.02 0.04,0.02 0.03,0.02 0.04,0.02 0.04,0.02 0.04,0.02 0.05,0.01 0.04,0.01 0.05,0.01 0.06,0.01 0.02,0.01 0.03,0 0.03,0 0.03,0 0.03,0.01 0.03,0 v 0.3 c -0.23,-0.01 -0.52,-0.02 -0.75,-0.02 -0.24,0 -0.7,0.02 -0.87,0.02 v -0.3 c 0.37,-0.01 0.48,-0.24 0.48,-0.43 0,-0.09 -0.02,-0.13 -0.06,-0.24 l -1.02,-2.54 -1.11,2.78 c -0.06,0.13 -0.06,0.15 -0.06,0.17 0,0.26 0.39,0.26 0.57,0.26 v 0.3 c -0.3,0 -0.86,-0.02 -1.09,-0.02 -0.27,0 -0.67,0.01 -0.97,0.02 v -0.3 c 0.63,0 0.67,-0.06 0.8,-0.37 l 1.44,-3.53 c 0.06,-0.14 0.08,-0.19 0.21,-0.19 0.13,0 0.17,0.08 0.21,0.19 z"
   inkscape:connector-curvature="0"
   style="fill:#000000;stroke-width:0" />
<path
   id="path9001"
   d="m 249.73,709.42 0.01,0 0.01,0 0.01,0 0.01,0 0.01,0 0.01,0 0.01,0 0,0 0.01,0 0.01,0 0.01,0.01 0.01,0 0.01,0 0.01,0 0.02,0 0.01,0 0.01,0 0.01,0.01 0.01,0 0,0 0.01,0.01 0.01,0 0,0.01 0.01,0 0.01,0.01 0,0.01 0,0 0.01,0.01 0,0.01 0,0 0,0.01 0,0 0,0.01 0.01,0 0,0.01 0,0.01 0,0 0,0.01 0,0.01 0,0 0,0.01 0,0.01 0,0.01 0,0.01 0,0 0,0.01 0,0.01 0,0.01 c 0,0.99 -0.54,1.95 -1.78,1.95 -1.16,0 -2.08,-1.02 -2.08,-2.26 0,-1.34 1.05,-2.3 2.2,-2.3 1.21,0 1.66,1.1 1.66,1.29 0,0.1 -0.08,0.12 -0.13,0.12 -0.09,0 -0.11,-0.06 -0.13,-0.14 -0.35,-1.03 -1.24,-1.03 -1.34,-1.03 -0.5,0 -0.9,0.3 -1.13,0.67 -0.3,0.48 -0.3,1.14 -0.3,1.49 l 0.01,0.21 c 0.06,1.49 0.9,1.73 1.24,1.73 1.02,0 1.12,-1.34 1.12,-1.73 h -2.36 l -0.01,-0.21 z"
   inkscape:connector-curvature="0"
   style="fill:#000000;stroke-width:0" />
<path
   id="path9003"
   d="m 251.99,707.9 v 1.53 c 0,0.99 0.41,1.87 1.17,1.87 0.07,0 0.09,0 0.11,-0.01 -0.03,-0.01 -0.23,-0.12 -0.23,-0.38 0,-0.28 0.21,-0.43 0.43,-0.43 0.18,0 0.43,0.12 0.43,0.44 0,0.31 -0.31,0.6 -0.74,0.6 -0.73,0 -1.09,-0.66 -1.22,-1.09 v 1.09 l -1.39,-0.11 v -0.3 c 0.7,0 0.78,-0.07 0.78,-0.56 v -2.67 c 0,-0.45 -0.11,-0.45 -0.78,-0.45 v -0.31 c 0.39,0.02 0.86,0.04 1.14,0.04 0.4,0 0.86,0 1.26,-0.04 v 0.31 h -0.21 c -0.73,0 -0.75,0.11 -0.75,0.47 z"
   inkscape:connector-curvature="0"
   style="fill:#000000;stroke-width:0" />
<path
   id="path9005"
   d="m 255.4,708.92 0.04,-0.03 0.03,-0.02 0.04,-0.03 0.04,-0.02 0.03,-0.02 0.04,-0.02 0.04,-0.01 0.03,-0.02 0.04,-0.01 0.03,-0.02 0.04,-0.01 0.03,-0.01 0.04,-0.01 0.03,-0.01 0.03,-0.01 0.04,-0.01 0.03,-0.01 0.03,-0.01 0.03,0 0.03,-0.01 0.03,0 0.03,-0.01 0.03,0 0.03,0 0.02,-0.01 0.03,0 0.02,0 0.03,0 0.02,0 0.02,0 0.02,0 0.02,0 v 0.23 c -0.87,0 -0.87,0.99 -0.87,1.22 0,0.27 0.01,0.59 0.16,0.84 0.08,0.12 0.31,0.39 0.71,0.39 0.86,0 0.86,-0.99 0.86,-1.22 0,-0.27 -0.01,-0.59 -0.16,-0.84 -0.08,-0.11 -0.3,-0.39 -0.7,-0.39 h 0 v -0.23 c 0.92,0 1.61,0.68 1.61,1.45 0,0.37 -0.16,0.74 -0.41,0.97 0.36,0.33 0.72,0.38 0.9,0.38 0.02,0 0.07,0 0.1,0 -0.11,-0.05 -0.16,-0.15 -0.16,-0.27 0,-0.17 0.13,-0.29 0.29,-0.29 0.1,0 0.29,0.07 0.29,0.3 0,0.17 -0.12,0.48 -0.51,0.48 -0.2,0 -0.64,-0.06 -1.06,-0.46 -0.42,0.32 -0.83,0.35 -1.05,0.35 -0.93,0 -1.62,-0.68 -1.62,-1.45 0,-0.44 0.22,-0.81 0.47,-1.02 -0.13,-0.15 -0.31,-0.48 -0.31,-0.83 0,-0.31 0.13,-0.69 0.44,-0.89 -0.6,-0.17 -0.92,-0.59 -0.92,-0.99 0,-0.72 0.99,-1.26 2.21,-1.26 l 0.01,0.22 c -1.01,0 -1.7,0.51 -1.7,1.04 0,0.46 0.38,0.82 0.82,0.86 h 0.59 c 0.85,0 1.97,0 1.97,-0.86 0,-0.54 -0.71,-1.04 -1.68,-1.04 h 0 l -0.01,-0.22 c 1.17,0 2.21,0.5 2.21,1.28 0,0.35 -0.14,0.86 -0.65,1.13 -0.53,0.28 -1.11,0.28 -1.71,0.28 -0.25,0 -0.68,0 -0.75,0.01 -0.32,0.04 -0.53,0.35 -0.53,0.67 0,0.04 0,0.27 0.17,0.47 z"
   inkscape:connector-curvature="0"
   style="fill:#000000;stroke-width:0" />
<path
   id="path9007"
   d="m 263.04,709.42 0.01,0 0.01,0 0.01,0 0.01,0 0.01,0 0.01,0 0.01,0 0.01,0 0,0 0.01,0 0.01,0.01 0.01,0 0.01,0 0.01,0 0.02,0 0.01,0 0.01,0 0.01,0.01 0.01,0 0.01,0 0,0.01 0.01,0 0.01,0.01 0,0 0.01,0.01 0,0.01 0,0 0.01,0.01 0,0.01 0,0 0,0.01 0,0 0.01,0.01 0,0 0,0.01 0,0.01 0,0 0,0.01 0,0.01 0,0 0,0.01 0,0.01 0,0.01 0,0.01 0,0 0,0.01 0,0.01 0,0.01 c 0,0.99 -0.54,1.95 -1.78,1.95 -1.16,0 -2.08,-1.02 -2.08,-2.26 0,-1.34 1.05,-2.3 2.2,-2.3 1.21,0 1.66,1.1 1.66,1.29 0,0.1 -0.08,0.12 -0.13,0.12 -0.09,0 -0.11,-0.06 -0.13,-0.14 -0.35,-1.03 -1.24,-1.03 -1.34,-1.03 -0.5,0 -0.9,0.3 -1.13,0.67 -0.3,0.48 -0.3,1.14 -0.3,1.49 l 0.01,0.21 c 0.06,1.49 0.9,1.73 1.24,1.73 1.02,0 1.12,-1.34 1.12,-1.73 h -2.36 l -0.01,-0.21 z"
   inkscape:connector-curvature="0"
   style="fill:#000000;stroke-width:0" />
<path
   id="path9009"
   d="m 264.68,710.55 v -2.67 c 0,-0.45 -0.11,-0.45 -0.78,-0.45 v -0.31 c 0.35,0.02 0.86,0.04 1.13,0.04 0.26,0 0.77,-0.02 1.11,-0.04 v 0.31 c -0.66,0 -0.77,0 -0.77,0.45 v 1.83 c 0,1.04 0.7,1.59 1.34,1.59 0.63,0 0.74,-0.53 0.74,-1.1 v -2.32 c 0,-0.45 -0.11,-0.45 -0.78,-0.45 v -0.31 c 0.35,0.02 0.86,0.04 1.13,0.04 0.26,0 0.78,-0.02 1.12,-0.04 v 0.31 c -0.52,0 -0.77,0 -0.78,0.3 v 1.9 c 0,0.86 0,1.17 -0.31,1.53 -0.14,0.17 -0.47,0.36 -1.05,0.36 -0.73,0 -1.19,-0.42 -1.47,-1.04 v 1.04 l -1.41,-0.11 v -0.3 c 0.7,0 0.78,-0.07 0.78,-0.56 z"
   inkscape:connector-curvature="0"
   style="fill:#000000;stroke-width:0" />
<path
   id="path9011"
   d="m 272.7,710.97 -0.02,0 -0.02,-0.01 -0.02,0 -0.02,0 -0.01,0 -0.02,-0.01 -0.02,0 -0.01,-0.01 -0.02,0 -0.01,-0.01 -0.02,0 -0.01,-0.01 -0.01,0 -0.02,-0.01 -0.02,-0.01 -0.02,-0.01 -0.02,-0.02 -0.02,-0.01 -0.02,-0.02 -0.02,-0.01 -0.01,-0.02 -0.02,-0.02 -0.01,-0.01 -0.01,-0.02 -0.01,-0.02 -0.01,-0.02 -0.01,-0.02 -0.01,-0.02 -0.01,-0.01 0,-0.02 -0.01,-0.02 0,-0.02 0,-0.01 -0.01,-0.02 0,-0.02 0,-0.01 0,-0.01 0,-0.02 0,-0.01 c 0,-0.26 0.18,-0.46 0.46,-0.46 0.26,0 0.45,0.17 0.45,0.47 0,0.68 -0.75,1.06 -1.52,1.06 -1.25,0 -2.16,-1.07 -2.16,-2.3 0,-1.28 0.98,-2.26 2.14,-2.26 1.33,0 1.65,1.19 1.65,1.29 0,0.1 -0.1,0.1 -0.13,0.1 -0.08,0 -0.1,-0.04 -0.13,-0.1 -0.28,-0.93 -0.93,-1.05 -1.3,-1.05 -0.53,0 -1.41,0.43 -1.41,2.03 0,1.63 0.82,2.05 1.35,2.05 0.09,0 0.72,-0.01 1.07,-0.37 z"
   inkscape:connector-curvature="0"
   style="fill:#000000;stroke-width:0" />
<path
   id="path9013"
   d="m 277.43,709.42 0.01,0 0.01,0 0.01,0 0.01,0 0.01,0 0.01,0 0.01,0 0.01,0 0,0 0.01,0 0.01,0.01 0.01,0 0.01,0 0.01,0 0.02,0 0.01,0 0.01,0 0.01,0.01 0.01,0 0.01,0 0,0.01 0.01,0 0.01,0.01 0,0 0.01,0.01 0,0.01 0,0 0.01,0.01 0,0.01 0,0 0,0.01 0,0 0.01,0.01 0,0 0,0.01 0,0.01 0,0 0,0.01 0,0.01 0,0 0,0.01 0,0.01 0,0.01 0,0.01 0,0 0,0.01 0,0.01 0,0.01 c 0,0.99 -0.54,1.95 -1.78,1.95 -1.16,0 -2.08,-1.02 -2.08,-2.26 0,-1.34 1.05,-2.3 2.2,-2.3 1.21,0 1.66,1.1 1.66,1.29 0,0.1 -0.08,0.12 -0.13,0.12 -0.09,0 -0.11,-0.06 -0.13,-0.14 -0.35,-1.03 -1.24,-1.03 -1.34,-1.03 -0.5,0 -0.9,0.3 -1.13,0.67 -0.3,0.48 -0.3,1.14 -0.3,1.49 l 0.01,0.21 c 0.06,1.49 0.9,1.73 1.24,1.73 1.02,0 1.12,-1.34 1.12,-1.73 h -2.36 l -0.01,-0.21 z"
   inkscape:connector-curvature="0"
   style="fill:#000000;stroke-width:0" />
<path
   id="path9015"
   d="m 280.33,709.6 0,0.12 0.01,0.11 0.01,0.11 0.02,0.11 0.02,0.1 0.03,0.1 0.03,0.1 0.03,0.09 0.04,0.09 0.04,0.09 0.04,0.09 0.05,0.08 0.05,0.08 0.05,0.07 0.05,0.08 0.05,0.07 0.06,0.06 0.05,0.07 0.06,0.06 0.05,0.06 0.06,0.05 0.05,0.06 0.05,0.05 0.06,0.04 0.05,0.05 0.05,0.04 0.05,0.04 0.04,0.03 0.05,0.04 0.04,0.03 0.04,0.03 0.03,0.02 c 0.27,0.2 0.48,0.56 0.48,0.98 0,0.58 -0.4,1.34 -1.89,1.34 -1.07,0 -1.69,-0.67 -1.69,-1.32 0,-0.34 0.23,-0.48 0.46,-0.48 0.28,0 0.46,0.2 0.46,0.46 0,0.45 -0.42,0.45 -0.56,0.45 0.31,0.52 0.89,0.67 1.3,0.67 1.09,0 1.09,-0.67 1.09,-1.06 0,-0.59 -0.16,-0.77 -0.34,-0.95 -0.65,-0.71 -0.87,-1.63 -0.87,-2.24 v -0.45 c 0,-0.17 0,-0.23 0.12,-0.23 0.13,0 0.13,0.09 0.13,0.27 z"
   inkscape:connector-curvature="0"
   style="fill:#000000;stroke-width:0" />
<path
   id="path9017"
   d="m 280.72,707.65 0,0.03 0,0.03 0,0.02 -0.01,0.03 0,0.02 -0.01,0.03 -0.01,0.02 -0.01,0.03 -0.01,0.02 -0.01,0.02 -0.01,0.02 -0.02,0.03 -0.01,0.02 -0.02,0.02 -0.02,0.02 -0.01,0.01 -0.02,0.02 -0.02,0.02 -0.02,0.01 -0.02,0.02 -0.02,0.01 -0.02,0.02 -0.03,0.01 -0.02,0.01 -0.02,0.01 -0.03,0.01 -0.02,0 -0.03,0.01 -0.03,0 -0.02,0.01 -0.03,0 -0.02,0 c -0.29,0 -0.53,-0.24 -0.53,-0.53 0,-0.29 0.24,-0.53 0.53,-0.53 0.28,0 0.52,0.24 0.52,0.53 z"
   inkscape:connector-curvature="0"
   style="fill:#000000;stroke-width:0" />
</g>    <g
       style="font-style:normal;font-variant:normal;font-weight:normal;font-stretch:normal;letter-spacing:normal;word-spacing:normal;text-anchor:start;fill:none;stroke:#000000;stroke-linecap:butt;stroke-linejoin:miter;stroke-miterlimit:10.43299961;stroke-opacity:1;stroke-dasharray:none;stroke-dashoffset:0"
       id="g9199"
       transform="matrix(1,0,0,-1,-62.602959,1522.419)"
       xml:space="preserve"
       stroke-miterlimit="10.433"
       font-style="normal"
       font-variant="normal"
       font-weight="normal"
       font-stretch="normal"
       font-size-adjust="none"
       letter-spacing="normal"
       word-spacing="normal"
       ns0:text="Steady state reached\n"
       ns0:preamble="">
<path
   style="fill:#000000;stroke-width:0"
   inkscape:connector-curvature="0"
   d="m 226.91,710.99 -1.28,0.3 c -0.61,0.15 -1,0.69 -1,1.27 0,0.7 0.54,1.3 1.31,1.3 1.67,0 1.89,-1.63 1.95,-2.08 0.01,-0.06 0.01,-0.12 0.12,-0.12 0.13,0 0.13,0.05 0.13,0.24 v 2 c 0,0.17 0,0.24 -0.11,0.24 -0.07,0 -0.08,-0.01 -0.15,-0.13 l -0.35,-0.56 c -0.3,0.28 -0.71,0.69 -1.6,0.69 -1.1,0 -1.94,-0.87 -1.94,-1.93 0,-0.82 0.53,-1.55 1.31,-1.82 0.11,-0.04 0.61,-0.16 1.31,-0.33 0.27,-0.07 0.57,-0.14 0.85,-0.51 0.21,-0.26 0.31,-0.58 0.31,-0.91 0,-0.71 -0.5,-1.42 -1.34,-1.42 -0.29,0 -1.04,0.04 -1.57,0.53 -0.58,0.54 -0.61,1.18 -0.62,1.53 -0.01,0.1 -0.09,0.1 -0.12,0.1 -0.13,0 -0.13,-0.06 -0.13,-0.24 v -1.99 c 0,-0.17 0,-0.24 0.11,-0.24 0.07,0 0.08,0.02 0.15,0.12 0,0.01 0.03,0.05 0.36,0.57 0.31,-0.34 0.94,-0.69 1.83,-0.69 1.17,0 1.97,0.97 1.97,2.07 0,0.99 -0.66,1.81 -1.5,2.01 z"
   id="path9201" />
<path
   style="fill:#000000;stroke-width:0"
   inkscape:connector-curvature="0"
   d="m 230.69,711.11 h 1.43 v 0.3 h -1.43 v 1.84 h -0.25 c -0.01,-0.82 -0.31,-1.89 -1.28,-1.92 v -0.22 H 230 v -2.75 c 0,-1.22 0.93,-1.34 1.29,-1.34 0.71,0 0.99,0.7 0.99,1.34 v 0.57 h -0.25 v -0.55 c 0,-0.74 -0.3,-1.12 -0.67,-1.12 -0.67,0 -0.67,0.91 -0.67,1.08 z"
   id="path9203" />
<path
   style="fill:#000000;stroke-width:0"
   inkscape:connector-curvature="0"
   d="m 236.73,709.42 0.01,0 0.01,0 0.01,0 0.01,0 0.01,0 0.01,0 0,0 0.01,0 0.01,0 0.01,0 0.01,0.01 0,0 0.02,0 0.01,0 0.01,0 0.01,0 0.02,0 0,0.01 0.01,0 0.01,0 0.01,0.01 0.01,0 0,0.01 0.01,0 0,0.01 0.01,0.01 0,0 0.01,0.01 0,0.01 0,0 0,0.01 0,0 0,0.01 0,0 0,0.01 0,0.01 0.01,0 0,0.01 0,0.01 0,0 0,0.01 0,0.01 0,0.01 0,0.01 0,0 0,0.01 0,0.01 0,0.01 c 0,0.99 -0.54,1.95 -1.79,1.95 -1.15,0 -2.07,-1.02 -2.07,-2.26 0,-1.34 1.05,-2.3 2.19,-2.3 1.22,0 1.67,1.1 1.67,1.29 0,0.1 -0.08,0.12 -0.13,0.12 -0.09,0 -0.11,-0.06 -0.13,-0.14 -0.35,-1.03 -1.25,-1.03 -1.35,-1.03 -0.49,0 -0.89,0.3 -1.12,0.67 -0.3,0.48 -0.3,1.14 -0.3,1.49 l 0.01,0.21 c 0.06,1.49 0.89,1.73 1.23,1.73 1.03,0 1.13,-1.34 1.13,-1.73 h -2.36 l -0.01,-0.21 z"
   id="path9205" />
<path
   style="fill:#000000;stroke-width:0"
   inkscape:connector-curvature="0"
   d="m 240.59,707.88 0,-0.04 0.01,-0.03 0.01,-0.04 0,-0.04 0.01,-0.04 0.02,-0.03 0.01,-0.04 0.01,-0.03 0.02,-0.04 0.01,-0.03 0.02,-0.04 0.02,-0.03 0.02,-0.03 0.02,-0.04 0.02,-0.03 0.03,-0.03 0.02,-0.02 0.03,-0.03 0.03,-0.03 0.02,-0.02 0.03,-0.02 0.04,-0.03 0.03,-0.02 0.03,-0.01 0.04,-0.02 0.03,-0.01 0.04,-0.02 0.04,-0.01 0.04,0 0.04,-0.01 0.04,0 0.05,0 c 0.2,0 0.81,0.14 0.81,0.94 v 0.56 h -0.25 v -0.56 c 0,-0.58 -0.25,-0.64 -0.36,-0.64 -0.32,0 -0.36,0.45 -0.36,0.5 v 1.99 c 0,0.42 0,0.81 -0.36,1.18 -0.39,0.38 -0.89,0.54 -1.37,0.54 -0.82,0 -1.5,-0.46 -1.5,-1.12 0,-0.3 0.2,-0.47 0.45,-0.47 0.28,0 0.46,0.2 0.46,0.46 0,0.12 -0.05,0.45 -0.51,0.46 0.27,0.35 0.76,0.45 1.08,0.45 0.49,0 1.06,-0.38 1.06,-1.27 v -0.37 -0.21 -0.99 c 0,-0.95 -0.72,-1.29 -1.17,-1.29 -0.49,0 -0.89,0.35 -0.89,0.85 0,0.55 0.41,1.37 2.06,1.43 h 0 v 0.21 c -0.51,-0.03 -1.21,-0.06 -1.84,-0.36 -0.74,-0.33 -0.99,-0.85 -0.99,-1.29 0,-0.81 0.96,-1.05 1.59,-1.05 0.66,0 1.12,0.39 1.31,0.86 z"
   id="path9207" />
<path
   style="fill:#000000;stroke-width:0"
   inkscape:connector-curvature="0"
   d="m 246.04,707.67 v -0.65 l 1.46,0.1 v 0.31 c -0.69,0 -0.77,0.07 -0.77,0.56 v 6.04 l -1.44,-0.11 v -0.31 c 0.7,0 0.78,-0.07 0.78,-0.55 v -2.15 c -0.29,0.36 -0.72,0.61 -1.26,0.61 l 0.04,-0.22 c 0.35,0 0.77,-0.14 1.08,-0.59 0.11,-0.17 0.11,-0.19 0.11,-0.37 h 0 v -2.04 c 0,-0.18 0,-0.2 -0.11,-0.37 -0.3,-0.48 -0.75,-0.7 -1.18,-0.7 -0.45,0 -0.8,0.26 -1.04,0.64 -0.26,0.41 -0.29,0.98 -0.29,1.39 0,0.36 0.02,0.96 0.31,1.41 0.2,0.31 0.58,0.63 1.12,0.63 l -0.04,0.22 c -1.17,0 -2.22,-0.97 -2.22,-2.25 0,-1.27 0.98,-2.25 2.11,-2.25 0.64,0 1.09,0.33 1.34,0.65 z"
   id="path9209" />
<path
   style="fill:#000000;stroke-width:0"
   inkscape:connector-curvature="0"
   d="m 251.92,710.47 0.01,0.03 0.02,0.03 0.01,0.02 0.01,0.03 0.02,0.02 0.01,0.03 0.02,0.02 0.01,0.03 0.03,0.04 0.03,0.04 0.03,0.04 0.03,0.03 0.04,0.04 0.03,0.02 0.03,0.03 0.04,0.03 0.03,0.02 0.04,0.02 0.03,0.02 0.03,0.01 0.04,0.02 0.03,0.01 0.03,0.01 0.03,0.01 0.04,0.01 0.03,0 0.03,0.01 0.02,0 0.03,0.01 0.03,0 0.02,0 0.02,0 0.03,0.01 0.02,0 0.01,0 0.02,0 v 0.3 c -0.23,-0.01 -0.52,-0.02 -0.75,-0.02 -0.18,0 -0.65,0.02 -0.86,0.02 v -0.3 c 0.3,-0.01 0.46,-0.18 0.46,-0.43 0,-0.1 -0.01,-0.12 -0.06,-0.24 l -1,-2.45 -1.11,2.68 c -0.04,0.1 -0.06,0.14 -0.06,0.18 0,0.26 0.37,0.26 0.56,0.26 v 0.3 c -0.26,0 -0.92,-0.02 -1.09,-0.02 -0.27,0 -0.67,0.01 -0.96,0.02 v -0.3 c 0.47,0 0.66,0 0.8,-0.35 l 1.5,-3.64 c -0.05,-0.12 -0.19,-0.45 -0.25,-0.58 -0.22,-0.55 -0.5,-1.24 -1.14,-1.24 -0.05,0 -0.28,0 -0.47,0.18 0.31,0.04 0.39,0.26 0.39,0.42 0,0.26 -0.19,0.42 -0.42,0.42 -0.2,0 -0.41,-0.13 -0.41,-0.43 0,-0.45 0.41,-0.8 0.91,-0.8 0.63,0 1.04,0.56 1.28,1.13 z"
   id="path9211" />
<path
   style="fill:#000000;stroke-width:0"
   inkscape:connector-curvature="0"
   d="m 258.43,709.06 0.03,-0.01 0.02,0 0.03,-0.01 0.03,-0.01 0.04,0 0.03,-0.01 0.04,-0.01 0.04,-0.01 0.04,-0.02 0.04,-0.01 0.05,-0.02 0.04,-0.01 0.04,-0.02 0.05,-0.02 0.04,-0.02 0.05,-0.03 0.04,-0.02 0.04,-0.03 0.04,-0.03 0.04,-0.04 0.04,-0.03 0.03,-0.04 0.04,-0.04 0.03,-0.04 0.03,-0.04 0.01,-0.03 0.01,-0.02 0.02,-0.03 0.01,-0.02 0.01,-0.03 0.01,-0.03 0,-0.02 0.01,-0.03 0.01,-0.03 0,-0.03 0.01,-0.03 0,-0.03 0,-0.04 0,-0.03 c 0,-0.51 -0.35,-0.91 -1.12,-0.91 -0.84,0 -1.2,0.57 -1.39,1.42 -0.03,0.13 -0.04,0.17 -0.14,0.17 -0.13,0 -0.13,-0.07 -0.13,-0.25 v -1.32 c 0,-0.16 0,-0.23 0.11,-0.23 0.05,0 0.06,0.01 0.25,0.2 0.02,0.01 0.02,0.03 0.2,0.22 0.44,-0.41 0.89,-0.42 1.1,-0.42 1.14,0 1.6,0.66 1.6,1.38 0,0.53 -0.3,0.82 -0.42,0.94 -0.33,0.32 -0.72,0.4 -1.14,0.48 -0.55,0.11 -1.22,0.24 -1.22,0.82 0,0.35 0.26,0.76 1.12,0.76 1.09,0 1.14,-0.9 1.16,-1.21 0.01,-0.09 0.1,-0.09 0.12,-0.09 0.13,0 0.13,0.05 0.13,0.24 v 1 c 0,0.17 0,0.24 -0.11,0.24 -0.05,0 -0.07,0 -0.2,-0.12 -0.03,-0.04 -0.13,-0.12 -0.17,-0.16 -0.38,0.28 -0.79,0.28 -0.93,0.28 -1.22,0 -1.6,-0.66 -1.6,-1.22 0,-0.35 0.16,-0.63 0.43,-0.85 0.32,-0.25 0.6,-0.31 1.31,-0.45 z"
   id="path9213" />
<path
   style="fill:#000000;stroke-width:0"
   inkscape:connector-curvature="0"
   d="m 262.02,711.11 h 1.42 v 0.3 h -1.42 v 1.84 h -0.25 c -0.01,-0.82 -0.31,-1.89 -1.29,-1.92 v -0.22 h 0.85 v -2.75 c 0,-1.22 0.92,-1.34 1.28,-1.34 0.71,0 0.99,0.7 0.99,1.34 v 0.57 h -0.25 v -0.55 c 0,-0.74 -0.3,-1.12 -0.67,-1.12 -0.66,0 -0.66,0.91 -0.66,1.08 z"
   id="path9215" />
<path
   style="fill:#000000;stroke-width:0"
   inkscape:connector-curvature="0"
   d="m 267.48,707.88 0.01,-0.04 0,-0.03 0.01,-0.04 0.01,-0.04 0.01,-0.04 0.01,-0.03 0.01,-0.04 0.02,-0.03 0.01,-0.04 0.02,-0.03 0.02,-0.04 0.01,-0.03 0.02,-0.03 0.03,-0.04 0.02,-0.03 0.02,-0.03 0.03,-0.02 0.02,-0.03 0.03,-0.03 0.03,-0.02 0.03,-0.02 0.03,-0.03 0.03,-0.02 0.04,-0.01 0.03,-0.02 0.04,-0.01 0.04,-0.02 0.04,-0.01 0.04,0 0.04,-0.01 0.04,0 0.04,0 c 0.21,0 0.82,0.14 0.82,0.94 v 0.56 h -0.25 v -0.56 c 0,-0.58 -0.25,-0.64 -0.36,-0.64 -0.33,0 -0.37,0.45 -0.37,0.5 v 1.99 c 0,0.42 0,0.81 -0.36,1.18 -0.38,0.38 -0.88,0.54 -1.36,0.54 -0.82,0 -1.51,-0.46 -1.51,-1.12 0,-0.3 0.2,-0.47 0.46,-0.47 0.28,0 0.46,0.2 0.46,0.46 0,0.12 -0.05,0.45 -0.51,0.46 0.27,0.35 0.76,0.45 1.08,0.45 0.49,0 1.06,-0.38 1.06,-1.27 v -0.37 -0.21 -0.99 c 0,-0.95 -0.72,-1.29 -1.17,-1.29 -0.49,0 -0.9,0.35 -0.9,0.85 0,0.55 0.42,1.37 2.07,1.43 h 0 v 0.21 c -0.51,-0.03 -1.21,-0.06 -1.84,-0.36 -0.75,-0.33 -1,-0.85 -1,-1.29 0,-0.81 0.97,-1.05 1.6,-1.05 0.66,0 1.12,0.39 1.3,0.86 z"
   id="path9217" />
<path
   style="fill:#000000;stroke-width:0"
   inkscape:connector-curvature="0"
   d="m 270.87,711.11 h 1.43 v 0.3 h -1.43 v 1.84 h -0.25 c -0.01,-0.82 -0.31,-1.89 -1.28,-1.92 v -0.22 h 0.84 v -2.75 c 0,-1.22 0.93,-1.34 1.29,-1.34 0.71,0 0.99,0.7 0.99,1.34 v 0.57 h -0.25 v -0.55 c 0,-0.74 -0.3,-1.12 -0.67,-1.12 -0.67,0 -0.67,0.91 -0.67,1.08 z"
   id="path9219" />
<path
   style="fill:#000000;stroke-width:0"
   inkscape:connector-curvature="0"
   d="m 276.91,709.42 0.01,0 0.01,0 0.01,0 0.01,0 0.01,0 0,0 0.01,0 0.01,0 0.01,0 0.01,0 0.01,0.01 0,0 0.02,0 0.01,0 0.01,0 0.01,0 0.01,0 0.01,0.01 0.01,0 0.01,0 0.01,0.01 0.01,0 0,0.01 0.01,0 0,0.01 0.01,0.01 0,0 0,0.01 0.01,0.01 0,0 0,0.01 0,0 0,0.01 0,0 0,0.01 0,0.01 0,0 0.01,0.01 0,0.01 0,0 0,0.01 0,0.01 0,0.01 0,0.01 0,0 0,0.01 0,0.01 0,0.01 c 0,0.99 -0.54,1.95 -1.79,1.95 -1.15,0 -2.07,-1.02 -2.07,-2.26 0,-1.34 1.05,-2.3 2.19,-2.3 1.22,0 1.67,1.1 1.67,1.29 0,0.1 -0.08,0.12 -0.13,0.12 -0.09,0 -0.11,-0.06 -0.13,-0.14 -0.35,-1.03 -1.25,-1.03 -1.35,-1.03 -0.5,0 -0.89,0.3 -1.12,0.67 -0.3,0.48 -0.3,1.14 -0.3,1.49 l 0.01,0.21 c 0.06,1.49 0.89,1.73 1.23,1.73 1.03,0 1.13,-1.34 1.13,-1.73 h -2.36 l -0.01,-0.21 z"
   id="path9221" />
<path
   style="fill:#000000;stroke-width:0"
   inkscape:connector-curvature="0"
   d="m 282.49,707.9 v 1.53 c 0,0.99 0.42,1.87 1.18,1.87 0.07,0 0.09,0 0.11,-0.01 -0.03,-0.01 -0.23,-0.12 -0.23,-0.38 0,-0.28 0.21,-0.43 0.43,-0.43 0.17,0 0.42,0.12 0.42,0.44 0,0.31 -0.3,0.6 -0.73,0.6 -0.73,0 -1.09,-0.66 -1.23,-1.09 v 1.09 l -1.39,-0.11 v -0.3 c 0.7,0 0.78,-0.07 0.78,-0.56 v -2.67 c 0,-0.45 -0.11,-0.45 -0.78,-0.45 v -0.31 c 0.39,0.02 0.86,0.04 1.14,0.04 0.4,0 0.87,0 1.27,-0.04 v 0.31 h -0.21 c -0.74,0 -0.76,0.11 -0.76,0.47 z"
   id="path9223" />
<path
   style="fill:#000000;stroke-width:0"
   inkscape:connector-curvature="0"
   d="m 288.57,709.42 0.01,0 0.01,0 0.01,0 0,0 0.01,0 0.01,0 0.01,0 0.01,0 0.01,0 0.01,0 0,0.01 0.01,0 0.01,0 0.02,0 0.01,0 0.01,0 0.01,0 0.01,0.01 0.01,0 0.01,0 0.01,0.01 0,0 0.01,0.01 0,0 0.01,0.01 0,0.01 0.01,0 0,0.01 0,0.01 0,0 0.01,0.01 0,0 0,0.01 0,0 0,0.01 0,0.01 0,0 0,0.01 0,0.01 0,0 0,0.01 0,0.01 0,0.01 0,0.01 0,0 0,0.01 0,0.01 0.01,0.01 c 0,0.99 -0.54,1.95 -1.79,1.95 -1.16,0 -2.07,-1.02 -2.07,-2.26 0,-1.34 1.04,-2.3 2.19,-2.3 1.22,0 1.67,1.1 1.67,1.29 0,0.1 -0.09,0.12 -0.14,0.12 -0.08,0 -0.1,-0.06 -0.12,-0.14 -0.35,-1.03 -1.25,-1.03 -1.35,-1.03 -0.5,0 -0.9,0.3 -1.13,0.67 -0.3,0.48 -0.3,1.14 -0.3,1.49 l 0.01,0.21 c 0.06,1.49 0.9,1.73 1.24,1.73 1.03,0 1.13,-1.34 1.13,-1.73 h -2.37 l -0.01,-0.21 z"
   id="path9225" />
<path
   style="fill:#000000;stroke-width:0"
   inkscape:connector-curvature="0"
   d="m 292.42,707.88 0.01,-0.04 0.01,-0.03 0,-0.04 0.01,-0.04 0.01,-0.04 0.01,-0.03 0.01,-0.04 0.02,-0.03 0.01,-0.04 0.02,-0.03 0.02,-0.04 0.02,-0.03 0.02,-0.03 0.02,-0.04 0.02,-0.03 0.02,-0.03 0.03,-0.02 0.02,-0.03 0.03,-0.03 0.03,-0.02 0.03,-0.02 0.03,-0.03 0.04,-0.02 0.03,-0.01 0.03,-0.02 0.04,-0.01 0.04,-0.02 0.04,-0.01 0.04,0 0.04,-0.01 0.04,0 0.04,0 c 0.21,0 0.82,0.14 0.82,0.94 v 0.56 h -0.25 v -0.56 c 0,-0.58 -0.25,-0.64 -0.36,-0.64 -0.33,0 -0.37,0.45 -0.37,0.5 v 1.99 c 0,0.42 0,0.81 -0.36,1.18 -0.38,0.38 -0.88,0.54 -1.36,0.54 -0.82,0 -1.51,-0.46 -1.51,-1.12 0,-0.3 0.2,-0.47 0.46,-0.47 0.28,0 0.46,0.2 0.46,0.46 0,0.12 -0.05,0.45 -0.51,0.46 0.27,0.35 0.76,0.45 1.08,0.45 0.49,0 1.06,-0.38 1.06,-1.27 v -0.37 -0.21 -0.99 c 0,-0.95 -0.72,-1.29 -1.17,-1.29 -0.49,0 -0.9,0.35 -0.9,0.85 0,0.55 0.42,1.37 2.07,1.43 h 0 v 0.21 c -0.51,-0.03 -1.21,-0.06 -1.84,-0.36 -0.75,-0.33 -1,-0.85 -1,-1.29 0,-0.81 0.97,-1.05 1.6,-1.05 0.66,0 1.11,0.39 1.3,0.86 z"
   id="path9227" />
<path
   style="fill:#000000;stroke-width:0"
   inkscape:connector-curvature="0"
   d="m 297.67,710.97 -0.02,0 -0.02,-0.01 -0.02,0 -0.02,0 -0.01,0 -0.02,-0.01 -0.02,0 -0.01,-0.01 -0.02,0 -0.01,-0.01 -0.02,0 -0.01,-0.01 -0.01,0 -0.02,-0.01 -0.02,-0.01 -0.02,-0.01 -0.02,-0.02 -0.02,-0.01 -0.02,-0.02 -0.02,-0.01 -0.01,-0.02 -0.02,-0.02 -0.01,-0.01 -0.01,-0.02 -0.01,-0.02 -0.01,-0.02 -0.01,-0.02 -0.01,-0.02 -0.01,-0.01 0,-0.02 -0.01,-0.02 0,-0.02 0,-0.01 -0.01,-0.02 0,-0.02 0,-0.01 0,-0.01 0,-0.02 0,-0.01 c 0,-0.26 0.18,-0.46 0.45,-0.46 0.26,0 0.46,0.17 0.46,0.47 0,0.68 -0.75,1.06 -1.52,1.06 -1.25,0 -2.16,-1.07 -2.16,-2.3 0,-1.28 0.98,-2.26 2.14,-2.26 1.33,0 1.65,1.19 1.65,1.29 0,0.1 -0.1,0.1 -0.13,0.1 -0.09,0 -0.11,-0.04 -0.13,-0.1 -0.29,-0.93 -0.93,-1.05 -1.3,-1.05 -0.53,0 -1.41,0.43 -1.41,2.03 0,1.63 0.82,2.05 1.35,2.05 0.09,0 0.72,-0.01 1.07,-0.37 z"
   id="path9229" />
<path
   style="fill:#000000;stroke-width:0"
   inkscape:connector-curvature="0"
   d="m 302.79,709.63 0,0.08 0,0.08 0,0.07 0,0.07 0,0.07 0,0.06 0,0.06 0,0.06 -0.01,0.06 0,0.05 0,0.06 -0.01,0.05 0,0.05 0,0.04 -0.01,0.05 -0.01,0.04 -0.01,0.04 0,0.04 -0.01,0.04 -0.01,0.04 -0.02,0.04 -0.01,0.04 -0.01,0.03 -0.02,0.04 -0.02,0.03 -0.01,0.04 -0.02,0.03 -0.03,0.03 -0.02,0.04 -0.02,0.03 -0.03,0.03 -0.03,0.04 c -0.14,0.17 -0.47,0.36 -1.05,0.36 -0.83,0 -1.27,-0.59 -1.43,-0.95 h -0.01 v 3.46 l -1.44,-0.11 v -0.31 c 0.7,0 0.78,-0.07 0.78,-0.55 v -5.18 c 0,-0.45 -0.11,-0.45 -0.78,-0.45 v -0.31 c 0.35,0.02 0.86,0.04 1.13,0.04 0.26,0 0.78,-0.02 1.12,-0.04 v 0.31 c -0.67,0 -0.78,0 -0.78,0.45 v 1.83 c 0,1.04 0.71,1.59 1.34,1.59 0.63,0 0.74,-0.53 0.74,-1.1 v -2.32 c 0,-0.45 -0.11,-0.45 -0.77,-0.45 v -0.31 c 0.34,0.02 0.85,0.04 1.12,0.04 0.26,0 0.78,-0.02 1.12,-0.04 v 0.31 c -0.52,0 -0.77,0 -0.78,0.3 z"
   id="path9231" />
<path
   style="fill:#000000;stroke-width:0"
   inkscape:connector-curvature="0"
   d="m 307.66,709.42 0.01,0 0.01,0 0.01,0 0.01,0 0.01,0 0,0 0.01,0 0.01,0 0.01,0 0.01,0 0,0.01 0.01,0 0.02,0 0.01,0 0.01,0 0.01,0 0.01,0 0.01,0.01 0.01,0 0.01,0 0.01,0.01 0,0 0.01,0.01 0.01,0 0,0.01 0.01,0.01 0,0 0,0.01 0,0.01 0.01,0 0,0.01 0,0 0,0.01 0,0 0,0.01 0,0.01 0,0 0,0.01 0,0.01 0.01,0 0,0.01 0,0.01 0,0.01 0,0.01 0,0 0,0.01 0,0.01 0,0.01 c 0,0.99 -0.54,1.95 -1.79,1.95 -1.15,0 -2.07,-1.02 -2.07,-2.26 0,-1.34 1.05,-2.3 2.19,-2.3 1.22,0 1.67,1.1 1.67,1.29 0,0.1 -0.08,0.12 -0.13,0.12 -0.09,0 -0.11,-0.06 -0.13,-0.14 -0.35,-1.03 -1.25,-1.03 -1.35,-1.03 -0.5,0 -0.9,0.3 -1.12,0.67 -0.3,0.48 -0.3,1.14 -0.3,1.49 l 0.01,0.21 c 0.06,1.49 0.89,1.73 1.23,1.73 1.03,0 1.13,-1.34 1.13,-1.73 h -2.36 l -0.01,-0.21 z"
   id="path9233" />
<path
   style="fill:#000000;stroke-width:0"
   inkscape:connector-curvature="0"
   d="m 311.99,707.67 v -0.65 l 1.46,0.1 v 0.31 c -0.7,0 -0.78,0.07 -0.78,0.56 v 6.04 l -1.43,-0.11 v -0.31 c 0.7,0 0.78,-0.07 0.78,-0.55 v -2.15 c -0.29,0.36 -0.72,0.61 -1.26,0.61 l 0.04,-0.22 c 0.35,0 0.77,-0.14 1.08,-0.59 0.11,-0.17 0.11,-0.19 0.11,-0.37 h 0 v -2.04 c 0,-0.18 0,-0.2 -0.11,-0.37 -0.3,-0.48 -0.75,-0.7 -1.18,-0.7 -0.45,0 -0.81,0.26 -1.05,0.64 -0.26,0.41 -0.29,0.98 -0.29,1.39 0,0.36 0.02,0.96 0.31,1.41 0.21,0.31 0.59,0.63 1.13,0.63 l -0.04,0.22 c -1.18,0 -2.22,-0.97 -2.22,-2.25 0,-1.27 0.97,-2.25 2.11,-2.25 0.64,0 1.09,0.33 1.34,0.65 z"
   id="path9235" />
</g>    <rect
       style="fill:none;stroke:#000000;stroke-width:0.76117766;stroke-miterlimit:4;stroke-opacity:1;stroke-dasharray:none;stroke-dashoffset:0"
       id="rect9345"
       width="103.98799"
       height="29.81431"
       x="154.22264"
       y="796.81689" />
    <g
       ns0:preamble=""
       ns0:text="$t = t + \\delta_t$\n"
       word-spacing="normal"
       letter-spacing="normal"
       font-size-adjust="none"
       font-stretch="normal"
       font-weight="normal"
       font-variant="normal"
       font-style="normal"
       stroke-miterlimit="10.433"
       xml:space="preserve"
       transform="matrix(1,0,0,-1,44.267391,1383.1929)"
       id="g9650"
       style="font-style:normal;font-variant:normal;font-weight:normal;font-stretch:normal;letter-spacing:normal;word-spacing:normal;text-anchor:start;fill:none;stroke:#000000;stroke-linecap:butt;stroke-linejoin:miter;stroke-miterlimit:10.43299961;stroke-opacity:1;stroke-dasharray:none;stroke-dashoffset:0">
<path
   id="path9652"
   d="m 225.49,711.11 h 0.93 c 0.2,0 0.3,0 0.3,0.19 0,0.11 -0.1,0.11 -0.28,0.11 h -0.87 c 0.35,1.42 0.4,1.62 0.4,1.68 0,0.17 -0.12,0.26 -0.29,0.26 -0.03,0 -0.3,-0.01 -0.39,-0.35 l -0.39,-1.59 h -0.94 c -0.2,0 -0.3,0 -0.3,-0.19 0,-0.11 0.08,-0.11 0.28,-0.11 h 0.88 c -0.72,-2.83 -0.76,-3 -0.76,-3.18 0,-0.54 0.38,-0.91 0.92,-0.91 1.01,0 1.58,1.45 1.58,1.53 0,0.1 -0.08,0.1 -0.12,0.1 -0.09,0 -0.1,-0.03 -0.15,-0.14 -0.43,-1.04 -0.95,-1.28 -1.29,-1.28 -0.21,0 -0.31,0.13 -0.31,0.46 0,0.24 0.02,0.31 0.06,0.48 z"
   inkscape:connector-curvature="0"
   style="fill:#000000;stroke-width:0" />
<path
   id="path9654"
   d="m 236.65,710.38 0.02,0 0.03,0 0.03,0 0.02,0 0.01,0 0.02,0 0.01,0.01 0.01,0 0.02,0 0.01,0 0.02,0.01 0.01,0 0.01,0 0.01,0.01 0.01,0 0.02,0.01 0.01,0.01 0.01,0.01 0.01,0 0,0.01 0.01,0.01 0.01,0.01 0,0 0,0.01 0.01,0.01 0,0 0,0.01 0,0.01 0.01,0 0,0.01 0,0.01 0,0 0,0.01 0,0.01 0,0.01 0,0.01 0,0.01 c 0,0.2 -0.19,0.2 -0.33,0.2 h -5.97 c -0.14,0 -0.33,0 -0.33,-0.2 0,-0.2 0.19,-0.2 0.34,-0.2 z"
   inkscape:connector-curvature="0"
   style="fill:#000000;stroke-width:0" />
<path
   id="path9656"
   d="m 236.65,708.45 0.03,0 0.03,0 0.03,0 0.01,0 0.02,0 0.01,0 0.01,0.01 0.02,0 0.01,0 0.01,0 0.02,0.01 0.01,0 0.01,0 0.01,0.01 0.02,0 0.01,0.01 0.01,0.01 0.01,0.01 0.01,0 0,0.01 0.01,0.01 0,0 0.01,0.01 0,0 0,0.01 0.01,0.01 0,0 0,0.01 0,0.01 0.01,0 0,0.01 0,0.01 0,0 0,0.01 0,0.01 0,0.01 0,0.01 0,0.01 c 0,0.2 -0.19,0.2 -0.33,0.2 h -5.96 c -0.15,0 -0.34,0 -0.34,-0.2 0,-0.2 0.19,-0.2 0.33,-0.2 z"
   inkscape:connector-curvature="0"
   style="fill:#000000;stroke-width:0" />
<path
   id="path9658"
   d="m 242.37,711.11 h 0.93 c 0.2,0 0.3,0 0.3,0.19 0,0.11 -0.1,0.11 -0.28,0.11 h -0.87 c 0.35,1.42 0.4,1.62 0.4,1.68 0,0.17 -0.11,0.26 -0.28,0.26 -0.03,0 -0.31,-0.01 -0.4,-0.35 l -0.39,-1.59 h -0.94 c -0.2,0 -0.3,0 -0.3,-0.19 0,-0.11 0.08,-0.11 0.28,-0.11 h 0.88 c -0.72,-2.83 -0.76,-3 -0.76,-3.18 0,-0.54 0.38,-0.91 0.92,-0.91 1.02,0 1.58,1.45 1.58,1.53 0,0.1 -0.08,0.1 -0.12,0.1 -0.09,0 -0.1,-0.03 -0.15,-0.14 -0.43,-1.04 -0.95,-1.28 -1.29,-1.28 -0.21,0 -0.31,0.13 -0.31,0.46 0,0.24 0.02,0.31 0.06,0.48 z"
   inkscape:connector-curvature="0"
   style="fill:#000000;stroke-width:0" />
<path
   id="path9660"
   d="m 250.2,709.41 h 2.78 c 0.14,0 0.33,0 0.33,0.2 0,0.2 -0.19,0.2 -0.33,0.2 h -2.78 v 2.79 c 0,0.14 0,0.33 -0.2,0.33 -0.2,0 -0.2,-0.19 -0.2,-0.33 v -2.79 h -2.79 c -0.14,0 -0.33,0 -0.33,-0.2 0,-0.2 0.19,-0.2 0.33,-0.2 h 2.79 v -2.78 c 0,-0.14 0,-0.33 0.2,-0.33 0.2,0 0.2,0.19 0.2,0.33 z"
   inkscape:connector-curvature="0"
   style="fill:#000000;stroke-width:0" />
<path
   id="path9662"
   d="m 258.72,711.47 -0.12,-0.03 -0.11,-0.03 -0.11,-0.05 -0.11,-0.04 -0.11,-0.05 -0.11,-0.06 -0.1,-0.06 -0.1,-0.07 -0.1,-0.07 -0.1,-0.07 -0.09,-0.08 -0.09,-0.08 -0.09,-0.09 -0.08,-0.09 -0.08,-0.09 -0.07,-0.09 -0.08,-0.1 -0.07,-0.1 -0.06,-0.1 -0.06,-0.11 -0.06,-0.1 -0.05,-0.11 -0.05,-0.11 -0.04,-0.11 -0.04,-0.11 -0.04,-0.11 -0.03,-0.12 -0.02,-0.11 -0.02,-0.11 -0.01,-0.12 -0.01,-0.11 0,-0.11 c 0,-0.96 0.63,-1.67 1.57,-1.67 v 0.21 c -0.55,0 -0.96,0.42 -0.96,1.18 0,0.63 0.37,2.5 1.72,2.86 h 0 c 0.25,-0.46 0.55,-1 0.55,-1.72 0,-0.65 -0.38,-2.32 -1.31,-2.32 v -0.21 c 1.17,0 1.99,1.56 1.99,2.93 0,0.91 -0.39,1.4 -0.73,1.85 -0.36,0.45 -0.95,1.2 -0.95,1.63 0,0.22 0.2,0.46 0.55,0.46 0.3,0 0.5,-0.13 0.71,-0.27 0.2,-0.12 0.39,-0.25 0.54,-0.25 0.25,0 0.4,0.24 0.4,0.4 0,0.22 -0.16,0.25 -0.52,0.33 -0.51,0.11 -0.65,0.11 -0.81,0.11 -0.78,0 -1.14,-0.43 -1.14,-1.02 0,-0.54 0.29,-1.1 0.6,-1.71 z"
   inkscape:connector-curvature="0"
   style="fill:#000000;stroke-width:0" />
<path
   id="path9664"
   d="m 262.23,708.38 h 0.71 c 0.13,0 0.22,0 0.22,0.15 0,0.1 -0.09,0.1 -0.21,0.1 h -0.66 l 0.26,1.03 c 0.01,0.03 0.02,0.07 0.02,0.09 0,0.13 -0.1,0.23 -0.24,0.23 -0.17,0 -0.28,-0.12 -0.32,-0.3 -0.05,-0.18 0.04,0.16 -0.27,-1.05 h -0.71 c -0.13,0 -0.22,0 -0.22,-0.16 0,-0.09 0.08,-0.09 0.21,-0.09 h 0.66 c -0.13,-0.55 -0.27,-1.09 -0.41,-1.64 -0.04,-0.18 -0.11,-0.43 -0.11,-0.52 0,-0.41 0.35,-0.66 0.75,-0.66 0.77,0 1.21,0.97 1.21,1.06 0,0.1 -0.09,0.1 -0.11,0.1 -0.09,0 -0.09,-0.02 -0.15,-0.14 -0.19,-0.43 -0.55,-0.82 -0.93,-0.82 -0.15,0 -0.25,0.09 -0.25,0.34 0,0.07 0.03,0.21 0.05,0.28 z"
   inkscape:connector-curvature="0"
   style="fill:#000000;stroke-width:0" />
</g>    <g
       id="content"
       transform="matrix(1,0,0,-1,-56.047959,1269.9671)"
       xml:space="preserve"
       stroke-miterlimit="10.433"
       font-style="normal"
       font-variant="normal"
       font-weight="normal"
       font-stretch="normal"
       font-size-adjust="none"
       letter-spacing="normal"
       word-spacing="normal"
       ns0:text="Initialise $c_i$ and $\\mathbf{u}$\n\n\n"
       ns0:preamble=""
       style="font-style:normal;font-variant:normal;font-weight:normal;font-stretch:normal;letter-spacing:normal;word-spacing:normal;text-anchor:start;fill:none;stroke:#000000;stroke-linecap:butt;stroke-linejoin:miter;stroke-miterlimit:10.43299961;stroke-opacity:1;stroke-dasharray:none;stroke-dashoffset:0">
<path
   style="fill:#000000;stroke-width:0"
   inkscape:connector-curvature="0"
   d="m 225.68,713.15 0,0.03 0,0.03 0,0.03 0,0.03 0,0.03 0,0.02 0.01,0.03 0,0.02 0.01,0.02 0.01,0.02 0.01,0.02 0.01,0.02 0.01,0.02 0.01,0.02 0.02,0.01 0.02,0.01 0.02,0.02 0.02,0.01 0.02,0.01 0.01,0 0.01,0.01 0.02,0 0.01,0.01 0.02,0 0.02,0 0.01,0.01 0.02,0 0.02,0.01 0.02,0 0.02,0 0.02,0 0.03,0.01 0.02,0 0.02,0 0.03,0 0.03,0.01 0.02,0 0.03,0 0.03,0 0.03,0 0.03,0 0.03,0 0.04,0 0.03,0 0.04,0 0.03,0 h 0.26 v 0.31 c -0.35,-0.03 -1.13,-0.03 -1.51,-0.03 -0.39,0 -1.18,0 -1.53,0.03 v -0.31 h 0.26 c 0.79,0 0.82,-0.1 0.82,-0.46 v -5.25 c 0,-0.36 -0.03,-0.47 -0.82,-0.47 h -0.26 v -0.31 c 0.35,0.04 1.14,0.04 1.52,0.04 0.39,0 1.17,0 1.52,-0.04 v 0.31 h -0.26 c -0.78,0 -0.81,0.11 -0.81,0.47 z"
   id="path3226" />
<path
   style="fill:#000000;stroke-width:0"
   inkscape:connector-curvature="0"
   d="m 228.13,710.55 v -2.67 c 0,-0.45 -0.11,-0.45 -0.78,-0.45 v -0.31 c 0.35,0.02 0.86,0.04 1.13,0.04 0.25,0 0.77,-0.02 1.11,-0.04 v 0.31 c -0.67,0 -0.78,0 -0.78,0.45 v 1.83 c 0,1.04 0.71,1.59 1.35,1.59 0.63,0 0.74,-0.53 0.74,-1.1 v -2.32 c 0,-0.45 -0.11,-0.45 -0.78,-0.45 v -0.31 c 0.35,0.02 0.86,0.04 1.13,0.04 0.26,0 0.77,-0.02 1.11,-0.04 v 0.31 c -0.52,0 -0.76,0 -0.77,0.3 v 1.9 c 0,0.86 0,1.17 -0.31,1.53 -0.14,0.17 -0.47,0.36 -1.05,0.36 -0.73,0 -1.2,-0.42 -1.48,-1.04 v 1.04 l -1.4,-0.11 v -0.3 c 0.7,0 0.78,-0.07 0.78,-0.56 z"
   id="path3228" />
<path
   style="fill:#000000;stroke-width:0"
   inkscape:connector-curvature="0"
   d="m 234.33,711.52 -1.4,-0.11 v -0.3 c 0.65,0 0.74,-0.06 0.74,-0.55 v -2.68 c 0,-0.45 -0.11,-0.45 -0.78,-0.45 v -0.31 c 0.32,0.02 0.86,0.04 1.1,0.04 0.35,0 0.7,-0.02 1.04,-0.04 v 0.31 c -0.66,0 -0.7,0.05 -0.7,0.44 z"
   id="path3230" />
<path
   style="fill:#000000;stroke-width:0"
   inkscape:connector-curvature="0"
   d="m 234.37,713.26 0,0.03 0,0.02 -0.01,0.03 0,0.03 -0.01,0.03 -0.01,0.02 0,0.03 -0.01,0.02 -0.02,0.03 -0.01,0.02 -0.01,0.02 -0.01,0.02 -0.02,0.02 -0.02,0.02 -0.01,0.02 -0.02,0.02 -0.02,0.02 -0.02,0.01 -0.02,0.02 -0.02,0.01 -0.02,0.01 -0.02,0.01 -0.03,0.02 -0.02,0.01 -0.02,0 -0.03,0.01 -0.02,0.01 -0.03,0 -0.02,0.01 -0.03,0 -0.02,0 -0.03,0 c -0.31,0 -0.53,-0.26 -0.53,-0.52 0,-0.27 0.22,-0.53 0.53,-0.53 0.28,0 0.53,0.21 0.53,0.53 z"
   id="path3232" />
<path
   style="fill:#000000;stroke-width:0"
   inkscape:connector-curvature="0"
   d="m 237.06,711.11 h 1.42 v 0.3 h -1.42 v 1.84 h -0.25 c -0.01,-0.82 -0.31,-1.89 -1.29,-1.92 v -0.22 h 0.85 v -2.75 c 0,-1.22 0.93,-1.34 1.28,-1.34 0.71,0 0.99,0.7 0.99,1.34 v 0.57 h -0.25 v -0.55 c 0,-0.74 -0.3,-1.12 -0.66,-1.12 -0.67,0 -0.67,0.91 -0.67,1.08 z"
   id="path3234" />
<path
   style="fill:#000000;stroke-width:0"
   inkscape:connector-curvature="0"
   d="m 240.97,711.52 -1.39,-0.11 v -0.3 c 0.64,0 0.73,-0.06 0.73,-0.55 v -2.68 c 0,-0.45 -0.11,-0.45 -0.77,-0.45 v -0.31 c 0.31,0.02 0.85,0.04 1.09,0.04 0.35,0 0.7,-0.02 1.04,-0.04 v 0.31 c -0.66,0 -0.7,0.05 -0.7,0.44 z"
   id="path3236" />
<path
   style="fill:#000000;stroke-width:0"
   inkscape:connector-curvature="0"
   d="m 241.01,713.26 0,0.03 0,0.02 -0.01,0.03 0,0.03 -0.01,0.03 0,0.02 -0.01,0.03 -0.01,0.02 -0.01,0.03 -0.02,0.02 -0.01,0.02 -0.01,0.02 -0.02,0.02 -0.01,0.02 -0.02,0.02 -0.02,0.02 -0.02,0.02 -0.02,0.01 -0.02,0.02 -0.02,0.01 -0.02,0.01 -0.02,0.01 -0.02,0.02 -0.03,0.01 -0.02,0 -0.02,0.01 -0.03,0.01 -0.02,0 -0.03,0.01 -0.03,0 -0.02,0 -0.03,0 c -0.31,0 -0.53,-0.26 -0.53,-0.52 0,-0.27 0.22,-0.53 0.53,-0.53 0.28,0 0.53,0.21 0.53,0.53 z"
   id="path3238" />
<path
   style="fill:#000000;stroke-width:0"
   inkscape:connector-curvature="0"
   d="m 245.29,707.88 0.01,-0.04 0,-0.03 0.01,-0.04 0.01,-0.04 0.01,-0.04 0.01,-0.03 0.01,-0.04 0.02,-0.03 0.01,-0.04 0.02,-0.03 0.02,-0.04 0.01,-0.03 0.02,-0.03 0.03,-0.04 0.02,-0.03 0.02,-0.03 0.03,-0.02 0.02,-0.03 0.03,-0.03 0.03,-0.02 0.03,-0.02 0.03,-0.03 0.03,-0.02 0.04,-0.01 0.03,-0.02 0.04,-0.01 0.04,-0.02 0.03,-0.01 0.04,0 0.05,-0.01 0.04,0 0.04,0 c 0.21,0 0.82,0.14 0.82,0.94 v 0.56 h -0.25 v -0.56 c 0,-0.58 -0.25,-0.64 -0.36,-0.64 -0.33,0 -0.37,0.45 -0.37,0.5 v 1.99 c 0,0.42 0,0.81 -0.36,1.18 -0.39,0.38 -0.88,0.54 -1.36,0.54 -0.82,0 -1.51,-0.46 -1.51,-1.12 0,-0.3 0.2,-0.47 0.46,-0.47 0.28,0 0.46,0.2 0.46,0.46 0,0.12 -0.05,0.45 -0.51,0.46 0.27,0.35 0.76,0.45 1.08,0.45 0.49,0 1.05,-0.38 1.05,-1.27 v -0.37 -0.21 -0.99 c 0,-0.95 -0.71,-1.29 -1.16,-1.29 -0.49,0 -0.9,0.35 -0.9,0.85 0,0.55 0.42,1.37 2.06,1.43 h 0 v 0.21 c -0.5,-0.03 -1.2,-0.06 -1.83,-0.36 -0.75,-0.33 -1,-0.85 -1,-1.29 0,-0.81 0.97,-1.05 1.6,-1.05 0.66,0 1.11,0.39 1.3,0.86 z"
   id="path3240" />
<path
   style="fill:#000000;stroke-width:0"
   inkscape:connector-curvature="0"
   d="m 248.72,714.03 -1.43,-0.11 v -0.31 c 0.69,0 0.77,-0.07 0.77,-0.55 v -5.18 c 0,-0.45 -0.11,-0.45 -0.77,-0.45 v -0.31 c 0.32,0.02 0.85,0.04 1.1,0.04 0.25,0 0.74,-0.02 1.11,-0.04 v 0.31 c -0.67,0 -0.78,0 -0.78,0.45 z"
   id="path3242" />
<path
   style="fill:#000000;stroke-width:0"
   inkscape:connector-curvature="0"
   d="m 251.49,711.52 -1.4,-0.11 v -0.3 c 0.65,0 0.74,-0.06 0.74,-0.55 v -2.68 c 0,-0.45 -0.11,-0.45 -0.78,-0.45 v -0.31 c 0.32,0.02 0.86,0.04 1.1,0.04 0.35,0 0.7,-0.02 1.03,-0.04 v 0.31 c -0.65,0 -0.69,0.05 -0.69,0.44 z"
   id="path3244" />
<path
   style="fill:#000000;stroke-width:0"
   inkscape:connector-curvature="0"
   d="m 251.53,713.26 0,0.03 -0.01,0.02 0,0.03 0,0.03 -0.01,0.03 -0.01,0.02 -0.01,0.03 -0.01,0.02 -0.01,0.03 -0.01,0.02 -0.01,0.02 -0.02,0.02 -0.01,0.02 -0.02,0.02 -0.01,0.02 -0.02,0.02 -0.02,0.02 -0.02,0.01 -0.02,0.02 -0.02,0.01 -0.02,0.01 -0.02,0.01 -0.03,0.02 -0.02,0.01 -0.02,0 -0.03,0.01 -0.02,0.01 -0.03,0 -0.02,0.01 -0.03,0 -0.02,0 -0.03,0 c -0.31,0 -0.53,-0.26 -0.53,-0.52 0,-0.27 0.22,-0.53 0.53,-0.53 0.28,0 0.53,0.21 0.53,0.53 z"
   id="path3246" />
<path
   style="fill:#000000;stroke-width:0"
   inkscape:connector-curvature="0"
   d="m 254.56,709.06 0.03,-0.01 0.02,0 0.03,-0.01 0.03,-0.01 0.04,0 0.03,-0.01 0.04,-0.01 0.04,-0.01 0.04,-0.02 0.04,-0.01 0.05,-0.02 0.04,-0.01 0.04,-0.02 0.05,-0.02 0.04,-0.02 0.04,-0.03 0.05,-0.02 0.04,-0.03 0.04,-0.03 0.04,-0.04 0.04,-0.03 0.03,-0.04 0.04,-0.04 0.03,-0.04 0.03,-0.04 0.01,-0.03 0.01,-0.02 0.02,-0.03 0.01,-0.02 0.01,-0.03 0.01,-0.03 0,-0.02 0.01,-0.03 0.01,-0.03 0,-0.03 0.01,-0.03 0,-0.03 0,-0.04 0,-0.03 c 0,-0.51 -0.35,-0.91 -1.12,-0.91 -0.84,0 -1.2,0.57 -1.39,1.42 -0.03,0.13 -0.04,0.17 -0.14,0.17 -0.13,0 -0.13,-0.07 -0.13,-0.25 v -1.32 c 0,-0.16 0,-0.23 0.11,-0.23 0.05,0 0.06,0.01 0.25,0.2 0.02,0.01 0.02,0.03 0.2,0.22 0.44,-0.41 0.88,-0.42 1.1,-0.42 1.14,0 1.6,0.66 1.6,1.38 0,0.53 -0.3,0.82 -0.42,0.94 -0.33,0.32 -0.72,0.4 -1.14,0.48 -0.55,0.11 -1.22,0.24 -1.22,0.82 0,0.35 0.26,0.76 1.11,0.76 1.1,0 1.15,-0.9 1.17,-1.21 0.01,-0.09 0.1,-0.09 0.12,-0.09 0.13,0 0.13,0.05 0.13,0.24 v 1 c 0,0.17 0,0.24 -0.11,0.24 -0.05,0 -0.07,0 -0.2,-0.12 -0.03,-0.04 -0.13,-0.12 -0.17,-0.16 -0.38,0.28 -0.79,0.28 -0.94,0.28 -1.21,0 -1.59,-0.66 -1.59,-1.22 0,-0.35 0.16,-0.63 0.43,-0.85 0.32,-0.25 0.6,-0.31 1.31,-0.45 z"
   id="path3248" />
<path
   style="fill:#000000;stroke-width:0"
   inkscape:connector-curvature="0"
   d="m 260.31,709.42 0.01,0 0.01,0 0.01,0 0.01,0 0.01,0 0,0 0.01,0 0.01,0 0.01,0 0.01,0 0,0.01 0.01,0 0.02,0 0.01,0 0.01,0 0.01,0 0.01,0 0.01,0.01 0.01,0 0.01,0 0.01,0.01 0,0 0.01,0.01 0.01,0 0,0.01 0.01,0.01 0,0 0,0.01 0,0.01 0.01,0 0,0.01 0,0 0,0.01 0,0 0,0.01 0,0.01 0,0 0,0.01 0,0.01 0.01,0 0,0.01 0,0.01 0,0.01 0,0.01 0,0 0,0.01 0,0.01 0,0.01 c 0,0.99 -0.54,1.95 -1.79,1.95 -1.15,0 -2.07,-1.02 -2.07,-2.26 0,-1.34 1.05,-2.3 2.19,-2.3 1.22,0 1.67,1.1 1.67,1.29 0,0.1 -0.08,0.12 -0.13,0.12 -0.09,0 -0.11,-0.06 -0.13,-0.14 -0.35,-1.03 -1.25,-1.03 -1.35,-1.03 -0.5,0 -0.9,0.3 -1.12,0.67 -0.3,0.48 -0.3,1.14 -0.3,1.49 l 0.01,0.21 c 0.06,1.49 0.89,1.73 1.23,1.73 1.03,0 1.13,-1.34 1.13,-1.73 h -2.36 l -0.01,-0.21 z"
   id="path3250" />
<path
   style="fill:#000000;stroke-width:0"
   inkscape:connector-curvature="0"
   d="m 268.11,710.91 -0.02,0 -0.03,0 -0.03,0 -0.03,-0.01 -0.03,0 -0.03,0 -0.01,0 -0.01,0 -0.02,-0.01 -0.01,0 -0.02,0 -0.01,-0.01 -0.01,0 -0.02,-0.01 -0.01,0 -0.01,-0.01 -0.02,0 -0.01,-0.01 -0.01,-0.01 -0.01,-0.01 -0.02,-0.01 -0.01,-0.01 -0.01,-0.01 -0.02,-0.01 -0.01,-0.01 -0.01,-0.01 c -0.16,-0.15 -0.18,-0.32 -0.18,-0.39 0,-0.24 0.18,-0.35 0.37,-0.35 0.28,0 0.55,0.24 0.55,0.64 0,0.49 -0.46,0.85 -1.17,0.85 -1.35,0 -2.67,-1.42 -2.67,-2.82 0,-0.9 0.57,-1.68 1.61,-1.68 1.43,0 2.26,1.05 2.26,1.17 0,0.06 -0.06,0.13 -0.12,0.13 -0.04,0 -0.06,-0.02 -0.13,-0.1 -0.78,-0.99 -1.87,-0.99 -1.99,-0.99 -0.63,0 -0.9,0.49 -0.9,1.09 0,0.41 0.2,1.37 0.54,1.99 0.31,0.57 0.86,0.99 1.41,0.99 0.34,0 0.72,-0.12 0.85,-0.39 z"
   id="path3252" />
<path
   style="fill:#000000;stroke-width:0"
   inkscape:connector-curvature="0"
   d="m 270.74,709.98 0,0.01 0,0.01 -0.01,0.01 0,0.01 0,0.01 0,0.01 -0.01,0.01 0,0.02 0,0.01 -0.01,0.01 0,0.01 -0.01,0.01 -0.01,0.01 0,0.01 -0.01,0.01 -0.01,0.01 -0.01,0.01 -0.01,0.01 -0.01,0.01 -0.01,0.01 -0.01,0 -0.01,0.01 -0.01,0.01 -0.02,0.01 -0.01,0 -0.01,0.01 -0.02,0 -0.01,0 -0.02,0.01 -0.02,0 -0.01,0 -0.02,0 c -0.19,0 -0.39,-0.18 -0.39,-0.38 0,-0.12 0.09,-0.27 0.28,-0.27 0.2,0 0.39,0.2 0.39,0.39 z"
   id="path3254" />
<path
   style="fill:#000000;stroke-width:0"
   inkscape:connector-curvature="0"
   d="m 269.32,706.44 -0.01,-0.01 0,-0.02 -0.02,-0.03 0,-0.02 -0.01,-0.02 0,-0.01 -0.01,-0.02 0,-0.02 0,-0.02 -0.01,-0.02 0,-0.01 0,-0.01 0,-0.01 0,-0.01 -0.01,-0.01 0,-0.02 0,-0.01 0,-0.01 0,-0.01 c 0,-0.32 0.28,-0.59 0.67,-0.59 0.69,0 1,0.96 1,1.06 0,0.1 -0.09,0.1 -0.11,0.1 -0.1,0 -0.11,-0.05 -0.14,-0.12 -0.16,-0.56 -0.46,-0.84 -0.73,-0.84 -0.14,0 -0.18,0.09 -0.18,0.24 0,0.16 0.05,0.29 0.11,0.44 0.07,0.19 0.15,0.38 0.23,0.56 0.06,0.17 0.31,0.8 0.34,0.88 0.02,0.07 0.04,0.16 0.04,0.23 0,0.32 -0.28,0.59 -0.66,0.59 -0.69,0 -1.01,-0.95 -1.01,-1.07 0,-0.09 0.09,-0.09 0.12,-0.09 0.09,0 0.1,0.04 0.12,0.11 0.18,0.6 0.49,0.85 0.75,0.85 0.11,0 0.17,-0.05 0.17,-0.24 0,-0.16 -0.04,-0.27 -0.21,-0.7 z"
   id="path3256" />
<path
   style="fill:#000000;stroke-width:0"
   inkscape:connector-curvature="0"
   d="m 278.44,707.88 0,-0.04 0.01,-0.03 0,-0.04 0.01,-0.04 0.01,-0.04 0.01,-0.03 0.01,-0.04 0.02,-0.03 0.01,-0.04 0.02,-0.03 0.02,-0.04 0.02,-0.03 0.02,-0.03 0.02,-0.04 0.02,-0.03 0.02,-0.03 0.03,-0.02 0.03,-0.03 0.02,-0.03 0.03,-0.02 0.03,-0.02 0.03,-0.03 0.04,-0.02 0.03,-0.01 0.04,-0.02 0.03,-0.01 0.04,-0.02 0.04,-0.01 0.04,0 0.04,-0.01 0.04,0 0.04,0 c 0.21,0 0.82,0.14 0.82,0.94 v 0.56 h -0.25 v -0.56 c 0,-0.58 -0.25,-0.64 -0.36,-0.64 -0.33,0 -0.37,0.45 -0.37,0.5 v 1.99 c 0,0.42 0,0.81 -0.35,1.18 -0.39,0.38 -0.89,0.54 -1.37,0.54 -0.82,0 -1.5,-0.46 -1.5,-1.12 0,-0.3 0.19,-0.47 0.45,-0.47 0.28,0 0.46,0.2 0.46,0.46 0,0.12 -0.05,0.45 -0.51,0.46 0.27,0.35 0.76,0.45 1.08,0.45 0.49,0 1.06,-0.38 1.06,-1.27 v -0.37 -0.21 -0.99 c 0,-0.95 -0.72,-1.29 -1.17,-1.29 -0.49,0 -0.9,0.35 -0.9,0.85 0,0.55 0.42,1.37 2.07,1.43 h 0 v 0.21 c -0.51,-0.03 -1.21,-0.06 -1.84,-0.36 -0.74,-0.33 -0.99,-0.85 -0.99,-1.29 0,-0.81 0.96,-1.05 1.59,-1.05 0.66,0 1.12,0.39 1.31,0.86 z"
   id="path3258" />
<path
   style="fill:#000000;stroke-width:0"
   inkscape:connector-curvature="0"
   d="m 281.2,710.55 v -2.67 c 0,-0.45 -0.12,-0.45 -0.78,-0.45 v -0.31 c 0.35,0.02 0.85,0.04 1.12,0.04 0.26,0 0.78,-0.02 1.12,-0.04 v 0.31 c -0.67,0 -0.78,0 -0.78,0.45 v 1.83 c 0,1.04 0.71,1.59 1.35,1.59 0.63,0 0.74,-0.53 0.74,-1.1 v -2.32 c 0,-0.45 -0.11,-0.45 -0.78,-0.45 v -0.31 c 0.35,0.02 0.86,0.04 1.13,0.04 0.25,0 0.77,-0.02 1.11,-0.04 v 0.31 c -0.52,0 -0.77,0 -0.78,0.3 v 1.9 c 0,0.86 0,1.17 -0.3,1.53 -0.15,0.17 -0.47,0.36 -1.05,0.36 -0.73,0 -1.2,-0.42 -1.48,-1.04 v 1.04 l -1.4,-0.11 v -0.3 c 0.69,0 0.78,-0.07 0.78,-0.56 z"
   id="path3260" />
<path
   style="fill:#000000;stroke-width:0"
   inkscape:connector-curvature="0"
   d="m 289.42,707.67 v -0.65 l 1.47,0.1 v 0.31 c -0.7,0 -0.78,0.07 -0.78,0.56 v 6.04 l -1.44,-0.11 v -0.31 c 0.7,0 0.78,-0.07 0.78,-0.55 v -2.15 c -0.29,0.36 -0.72,0.61 -1.25,0.61 l 0.03,-0.22 c 0.35,0 0.77,-0.14 1.08,-0.59 0.11,-0.17 0.11,-0.19 0.11,-0.37 h 0 v -2.04 c 0,-0.18 0,-0.2 -0.11,-0.37 -0.3,-0.48 -0.75,-0.7 -1.17,-0.7 -0.45,0 -0.81,0.26 -1.05,0.64 -0.26,0.41 -0.29,0.98 -0.29,1.39 0,0.36 0.02,0.96 0.31,1.41 0.21,0.31 0.59,0.63 1.12,0.63 l -0.03,0.22 c -1.18,0 -2.23,-0.97 -2.23,-2.25 0,-1.27 0.98,-2.25 2.12,-2.25 0.63,0 1.08,0.33 1.33,0.65 z"
   id="path3262" />
<path
   style="fill:#000000;stroke-width:0"
   inkscape:connector-curvature="0"
   d="m 298.86,707.84 v -0.77 l 1.76,0.05 v 0.47 c -0.62,0 -0.69,0 -0.69,0.39 v 3.62 l -1.82,-0.08 v -0.46 c 0.62,0 0.69,0 0.69,-0.39 v -1.9 c 0,-0.82 -0.51,-1.35 -1.24,-1.35 -0.77,0 -0.8,0.25 -0.8,0.79 v 3.39 l -1.82,-0.08 v -0.46 c 0.62,0 0.68,0 0.68,-0.39 v -2.32 c 0,-1.07 0.81,-1.28 1.8,-1.28 0.26,0 0.98,0 1.44,0.77 z"
   id="path3264" />
</g>    <g
       style="font-style:normal;font-variant:normal;font-weight:normal;font-stretch:normal;letter-spacing:normal;word-spacing:normal;text-anchor:start;fill:none;stroke:#000000;stroke-linecap:butt;stroke-linejoin:miter;stroke-miterlimit:10.43299961;stroke-opacity:1;stroke-dasharray:none;stroke-dashoffset:0"
       ns0:preamble=""
       ns0:text="Solve PE\n"
       word-spacing="normal"
       letter-spacing="normal"
       font-size-adjust="none"
       font-stretch="normal"
       font-weight="normal"
       font-variant="normal"
       font-style="normal"
       stroke-miterlimit="10.433"
       xml:space="preserve"
       transform="matrix(1,0,0,-1,-37.237959,1330.5839)"
       id="g3508">
<path
   id="path3510"
   d="m 226.91,710.99 -1.28,0.3 c -0.61,0.15 -1,0.69 -1,1.27 0,0.7 0.54,1.3 1.31,1.3 1.67,0 1.89,-1.63 1.95,-2.08 0.01,-0.06 0.01,-0.12 0.12,-0.12 0.13,0 0.13,0.05 0.13,0.24 v 2 c 0,0.17 0,0.24 -0.11,0.24 -0.07,0 -0.08,-0.01 -0.15,-0.13 l -0.35,-0.56 c -0.3,0.28 -0.71,0.69 -1.6,0.69 -1.1,0 -1.94,-0.87 -1.94,-1.93 0,-0.82 0.53,-1.55 1.31,-1.82 0.11,-0.04 0.61,-0.16 1.31,-0.33 0.27,-0.07 0.57,-0.14 0.85,-0.51 0.21,-0.26 0.31,-0.58 0.31,-0.91 0,-0.71 -0.5,-1.42 -1.34,-1.42 -0.29,0 -1.04,0.04 -1.57,0.53 -0.58,0.54 -0.61,1.18 -0.62,1.53 -0.01,0.1 -0.09,0.1 -0.12,0.1 -0.13,0 -0.13,-0.06 -0.13,-0.24 v -1.99 c 0,-0.17 0,-0.24 0.11,-0.24 0.07,0 0.08,0.02 0.15,0.12 0,0.01 0.03,0.05 0.36,0.57 0.31,-0.34 0.94,-0.69 1.83,-0.69 1.17,0 1.97,0.97 1.97,2.07 0,0.99 -0.66,1.81 -1.5,2.01 z"
   inkscape:connector-curvature="0"
   style="fill:#000000;stroke-width:0" />
<path
   id="path3512"
   d="m 233.66,709.26 0,0.11 -0.01,0.12 -0.01,0.12 -0.02,0.11 -0.03,0.11 -0.03,0.11 -0.03,0.11 -0.04,0.11 -0.05,0.1 -0.05,0.1 -0.05,0.1 -0.06,0.09 -0.06,0.09 -0.06,0.09 -0.07,0.09 -0.08,0.08 -0.07,0.07 -0.08,0.08 -0.09,0.07 -0.08,0.06 -0.09,0.06 -0.1,0.06 -0.09,0.05 -0.1,0.05 -0.1,0.04 -0.1,0.04 -0.1,0.03 -0.11,0.03 -0.11,0.02 -0.11,0.01 -0.11,0.01 -0.11,0 -0.01,-0.22 c 0.44,0 0.87,-0.21 1.13,-0.64 0.26,-0.43 0.26,-1.01 0.26,-1.39 0,-0.35 0,-0.89 -0.22,-1.33 -0.22,-0.45 -0.66,-0.74 -1.16,-0.74 h 0 c -0.43,0 -0.87,0.21 -1.14,0.67 -0.25,0.44 -0.25,1.05 -0.25,1.4 0,0.39 0,0.93 0.24,1.37 0.27,0.46 0.74,0.66 1.14,0.66 l 0.01,0.22 c -1.25,0 -2.21,-1.08 -2.21,-2.32 0,-1.29 1.03,-2.24 2.2,-2.24 1.2,0 2.21,0.97 2.21,2.24 z"
   inkscape:connector-curvature="0"
   style="fill:#000000;stroke-width:0" />
<path
   id="path3514"
   d="m 235.71,714.03 -1.43,-0.11 v -0.31 c 0.7,0 0.77,-0.07 0.77,-0.55 v -5.18 c 0,-0.45 -0.1,-0.45 -0.77,-0.45 v -0.31 c 0.33,0.02 0.85,0.04 1.1,0.04 0.25,0 0.74,-0.02 1.11,-0.04 v 0.31 c -0.67,0 -0.78,0 -0.78,0.45 z"
   inkscape:connector-curvature="0"
   style="fill:#000000;stroke-width:0" />
<path
   id="path3516"
   d="m 240.86,710.44 0.01,0.02 0.01,0.02 0.01,0.03 0.01,0.02 0.01,0.03 0.01,0.02 0.02,0.03 0.01,0.03 0.02,0.03 0.01,0.02 0.02,0.03 0.02,0.03 0.02,0.03 0.02,0.02 0.02,0.03 0.03,0.02 0.02,0.03 0.03,0.02 0.03,0.03 0.03,0.02 0.04,0.02 0.03,0.02 0.04,0.02 0.04,0.02 0.04,0.02 0.05,0.01 0.05,0.01 0.05,0.01 0.05,0.01 0.02,0.01 0.03,0 0.03,0 0.03,0 0.03,0.01 0.03,0 v 0.3 c -0.23,-0.01 -0.52,-0.02 -0.75,-0.02 -0.24,0 -0.69,0.02 -0.87,0.02 v -0.3 c 0.37,-0.01 0.48,-0.24 0.48,-0.43 0,-0.09 -0.02,-0.13 -0.06,-0.24 l -1.01,-2.54 -1.12,2.78 c -0.06,0.13 -0.06,0.15 -0.06,0.17 0,0.26 0.39,0.26 0.57,0.26 v 0.3 c -0.3,0 -0.86,-0.02 -1.09,-0.02 -0.27,0 -0.66,0.01 -0.97,0.02 v -0.3 c 0.63,0 0.67,-0.06 0.8,-0.37 l 1.44,-3.53 c 0.06,-0.14 0.08,-0.19 0.21,-0.19 0.13,0 0.17,0.08 0.21,0.19 z"
   inkscape:connector-curvature="0"
   style="fill:#000000;stroke-width:0" />
<path
   id="path3518"
   d="m 245.58,709.42 0.01,0 0.01,0 0.01,0 0.01,0 0.01,0 0.01,0 0.01,0 0.01,0 0,0 0.01,0 0.01,0.01 0.01,0 0.01,0 0.01,0 0.02,0 0.01,0 0.01,0 0.01,0.01 0.01,0 0.01,0 0,0.01 0.01,0 0.01,0.01 0,0 0.01,0.01 0,0.01 0,0 0.01,0.01 0,0.01 0,0 0,0.01 0,0 0.01,0.01 0,0 0,0.01 0,0.01 0,0 0,0.01 0,0.01 0,0 0,0.01 0,0.01 0,0.01 0,0.01 0,0 0,0.01 0,0.01 0,0.01 c 0,0.99 -0.54,1.95 -1.78,1.95 -1.16,0 -2.07,-1.02 -2.07,-2.26 0,-1.34 1.04,-2.3 2.19,-2.3 1.21,0 1.66,1.1 1.66,1.29 0,0.1 -0.08,0.12 -0.13,0.12 -0.09,0 -0.11,-0.06 -0.13,-0.14 -0.35,-1.03 -1.24,-1.03 -1.34,-1.03 -0.5,0 -0.9,0.3 -1.13,0.67 -0.3,0.48 -0.3,1.14 -0.3,1.49 l 0.01,0.21 c 0.06,1.49 0.9,1.73 1.24,1.73 1.02,0 1.12,-1.34 1.12,-1.73 h -2.36 l -0.01,-0.21 z"
   inkscape:connector-curvature="0"
   style="fill:#000000;stroke-width:0" />
<path
   id="path3520"
   d="m 251.71,710.27 -0.03,0.26 v 2.69 c 0,0.32 0.02,0.39 0.49,0.39 h 0.89 c 1.58,0 1.58,-1.05 1.58,-1.54 0,-0.47 0,-1.54 -1.58,-1.54 h -1.38 l 0.03,-0.26 h 1.69 c 1.19,0 2.27,0.81 2.27,1.8 0,0.98 -0.99,1.85 -2.35,1.85 h -3.52 v -0.31 h 0.24 c 0.77,0 0.79,-0.1 0.79,-0.46 v -5.25 c 0,-0.36 -0.02,-0.47 -0.79,-0.47 h -0.24 v -0.31 c 0.35,0.04 1.09,0.04 1.46,0.04 0.38,0 1.13,0 1.48,-0.04 v 0.31 h -0.24 c -0.77,0 -0.79,0.11 -0.79,0.47 z"
   inkscape:connector-curvature="0"
   style="fill:#000000;stroke-width:0" />
<path
   id="path3522"
   d="m 262.72,709.69 h -0.25 c -0.25,-1.53 -0.48,-2.26 -2.19,-2.26 h -1.33 c -0.47,0 -0.49,0.07 -0.49,0.4 v 2.66 h 0.9 c 0.97,0 1.08,-0.32 1.08,-1.17 h 0.25 v 2.64 h -0.25 c 0,-0.85 -0.11,-1.16 -1.08,-1.16 h -0.9 v 2.39 c 0,0.33 0.02,0.39 0.49,0.39 h 1.29 c 1.52,0 1.79,-0.54 1.95,-1.93 h 0.25 l -0.28,2.24 h -5.61 v -0.31 h 0.24 c 0.77,0 0.79,-0.11 0.79,-0.46 v -5.22 c 0,-0.36 -0.02,-0.47 -0.79,-0.47 h -0.24 v -0.31 h 5.75 z"
   inkscape:connector-curvature="0"
   style="fill:#000000;stroke-width:0" />
</g>    <path
       style="fill:none;stroke:#000000;stroke-width:1px;stroke-linecap:butt;stroke-linejoin:miter;stroke-opacity:1;marker-end:url(#Arrow1Mend)"
       d="m 259.07894,137.3573 18.01865,0 0,-17.04466 -16.07069,0"
       id="path3649"
       inkscape:connector-curvature="0"
       transform="translate(0,489.86218)"
       sodipodi:nodetypes="cccc" />
    <g
       id="g5342"
       transform="matrix(1,0,0,-1,-188.98296,1376.4428)"
       xml:space="preserve"
       stroke-miterlimit="10.433"
       font-style="normal"
       font-variant="normal"
       font-weight="normal"
       font-stretch="normal"
       font-size-adjust="none"
       letter-spacing="normal"
       word-spacing="normal"
       ns0:text="\\centering\nCompute next \\\\\ntime step in NP\n\n\n"
       ns0:preamble=""
       style="font-style:normal;font-variant:normal;font-weight:normal;font-stretch:normal;letter-spacing:normal;word-spacing:normal;text-anchor:start;fill:none;stroke:#000000;stroke-linecap:butt;stroke-linejoin:miter;stroke-miterlimit:10.43299961;stroke-opacity:1;stroke-dasharray:none;stroke-dashoffset:0">
<path
   style="fill:#000000;stroke-width:0"
   inkscape:connector-curvature="0"
   d="m 370.78,713.9 0,0.02 0,0.01 0,0.02 0,0.01 0,0.02 0,0.01 0,0.01 0,0.01 0,0.01 0,0.01 0,0.01 0,0.01 0,0.01 -0.01,0.01 0,0.01 0,0.01 0,0 -0.01,0.01 0,0 0,0.01 -0.01,0.01 0,0 -0.01,0 0,0.01 -0.01,0 -0.01,0 0,0.01 -0.01,0 -0.01,0 -0.01,0 -0.01,0 -0.01,0 c -0.04,0 -0.08,0 -0.16,-0.12 l -0.49,-0.73 c -0.37,0.35 -0.88,0.85 -1.84,0.85 -1.86,0 -3.47,-1.58 -3.47,-3.61 0,-2.06 1.62,-3.62 3.47,-3.62 1.63,0 2.6,1.38 2.6,2.53 0,0.1 0,0.17 -0.13,0.17 -0.11,0 -0.11,-0.06 -0.12,-0.16 -0.08,-1.42 -1.14,-2.23 -2.23,-2.23 -0.61,0 -2.56,0.33 -2.56,3.3 0,2.97 1.94,3.31 2.55,3.31 1.09,0 1.98,-0.9 2.17,-2.36 0.02,-0.13 0.02,-0.17 0.16,-0.17 0.16,0 0.16,0.04 0.16,0.24 z"
   id="path5344" />
<path
   style="fill:#000000;stroke-width:0"
   inkscape:connector-curvature="0"
   d="m 376.04,709.26 0,0.11 -0.01,0.12 -0.01,0.12 -0.02,0.11 -0.03,0.11 -0.03,0.11 -0.03,0.11 -0.04,0.11 -0.05,0.1 -0.04,0.1 -0.06,0.1 -0.06,0.09 -0.06,0.09 -0.06,0.09 -0.07,0.09 -0.08,0.08 -0.07,0.07 -0.08,0.08 -0.09,0.07 -0.08,0.06 -0.09,0.06 -0.09,0.06 -0.1,0.05 -0.1,0.05 -0.1,0.04 -0.1,0.04 -0.1,0.03 -0.11,0.03 -0.11,0.02 -0.11,0.01 -0.11,0.01 -0.11,0 -0.01,-0.22 c 0.44,0 0.87,-0.21 1.13,-0.64 0.26,-0.43 0.26,-1.01 0.26,-1.39 0,-0.35 0,-0.89 -0.22,-1.33 -0.22,-0.45 -0.66,-0.74 -1.16,-0.74 h 0 c -0.43,0 -0.87,0.21 -1.14,0.67 -0.25,0.44 -0.25,1.05 -0.25,1.4 0,0.39 0,0.93 0.25,1.37 0.26,0.46 0.73,0.66 1.13,0.66 l 0.01,0.22 c -1.24,0 -2.21,-1.08 -2.21,-2.32 0,-1.29 1.04,-2.24 2.2,-2.24 1.21,0 2.21,0.97 2.21,2.24 z"
   id="path5346" />
<path
   style="fill:#000000;stroke-width:0"
   inkscape:connector-curvature="0"
   d="m 377.43,710.55 v -2.67 c 0,-0.45 -0.11,-0.45 -0.78,-0.45 v -0.31 c 0.35,0.02 0.86,0.04 1.13,0.04 0.26,0 0.77,-0.02 1.11,-0.04 v 0.31 c -0.67,0 -0.78,0 -0.78,0.45 v 1.83 c 0,1.04 0.71,1.59 1.35,1.59 0.63,0 0.74,-0.53 0.74,-1.1 v -2.32 c 0,-0.45 -0.11,-0.45 -0.78,-0.45 v -0.31 c 0.35,0.02 0.86,0.04 1.13,0.04 0.26,0 0.77,-0.02 1.11,-0.04 v 0.31 c -0.67,0 -0.77,0 -0.77,0.45 v 1.83 c 0,1.04 0.7,1.59 1.34,1.59 0.63,0 0.74,-0.53 0.74,-1.1 v -2.32 c 0,-0.45 -0.11,-0.45 -0.78,-0.45 v -0.31 c 0.35,0.02 0.86,0.04 1.13,0.04 0.26,0 0.78,-0.02 1.11,-0.04 v 0.31 c -0.51,0 -0.76,0 -0.77,0.3 v 1.9 c 0,0.86 0,1.17 -0.31,1.53 -0.14,0.17 -0.47,0.36 -1.05,0.36 -0.84,0 -1.28,-0.59 -1.44,-0.97 -0.14,0.86 -0.88,0.97 -1.33,0.97 -0.73,0 -1.2,-0.42 -1.48,-1.04 v 1.04 l -1.4,-0.11 v -0.3 c 0.7,0 0.78,-0.07 0.78,-0.56 z"
   id="path5348" />
<path
   style="fill:#000000;stroke-width:0"
   inkscape:connector-curvature="0"
   d="m 386.38,707.71 0.14,0.13 c -0.14,0.21 -0.14,0.22 -0.14,0.42 v 2.22 c 0.29,0.51 0.77,0.8 1.28,0.8 0.73,0 1.34,-0.88 1.34,-2 0,-1.21 -0.7,-2.05 -1.44,-2.05 -0.4,0 -0.77,0.2 -1.04,0.61 l -0.14,-0.13 c 0.05,-0.16 0.47,-0.69 1.22,-0.69 1.19,0 2.23,0.97 2.23,2.26 0,1.26 -0.97,2.24 -2.09,2.24 -0.78,0 -1.19,-0.43 -1.39,-0.65 v 0.65 l -1.44,-0.11 v -0.3 c 0.71,0 0.78,-0.06 0.78,-0.5 v -4.66 c 0,-0.45 -0.11,-0.45 -0.78,-0.45 v -0.31 c 0.34,0.01 0.86,0.03 1.12,0.03 0.27,0 0.77,-0.02 1.12,-0.03 v 0.31 c -0.66,0 -0.77,0 -0.77,0.45 v 1.67 z"
   id="path5350" />
<path
   style="fill:#000000;stroke-width:0"
   inkscape:connector-curvature="0"
   d="m 394.07,707.91 v -0.89 l 1.43,0.1 v 0.31 c -0.7,0 -0.78,0.07 -0.78,0.56 v 3.53 l -1.46,-0.11 v -0.3 c 0.69,0 0.78,-0.07 0.78,-0.56 v -1.77 c 0,-0.87 -0.48,-1.55 -1.21,-1.55 -0.84,0 -0.88,0.47 -0.88,0.99 v 3.3 l -1.46,-0.11 v -0.3 c 0.77,0 0.77,-0.03 0.77,-0.92 v -1.49 c 0,-0.78 0,-1.68 1.52,-1.68 0.56,0 1,0.27 1.29,0.89 z"
   id="path5352" />
<path
   style="fill:#000000;stroke-width:0"
   inkscape:connector-curvature="0"
   d="m 397.43,711.11 h 1.42 v 0.3 h -1.42 v 1.84 h -0.25 c -0.01,-0.82 -0.31,-1.89 -1.29,-1.92 v -0.22 h 0.85 v -2.75 c 0,-1.22 0.93,-1.34 1.28,-1.34 0.71,0 0.99,0.7 0.99,1.34 v 0.57 h -0.25 v -0.55 c 0,-0.74 -0.3,-1.12 -0.66,-1.12 -0.67,0 -0.67,0.91 -0.67,1.08 z"
   id="path5354" />
<path
   style="fill:#000000;stroke-width:0"
   inkscape:connector-curvature="0"
   d="m 403.46,709.42 0.02,0 0,0 0.01,0 0.01,0 0.01,0 0.01,0 0.01,0 0.01,0 0.01,0 0,0 0.01,0.01 0.01,0 0.01,0 0.02,0 0.01,0 0.01,0 0.01,0 0.01,0.01 0.01,0 0.01,0 0,0.01 0.01,0 0.01,0.01 0,0 0.01,0.01 0,0.01 0.01,0 0,0.01 0,0.01 0,0 0,0.01 0.01,0 0,0.01 0,0 0,0.01 0,0.01 0,0 0,0.01 0,0.01 0,0 0,0.01 0,0.01 0,0.01 0,0.01 0,0 0,0.01 0,0.01 0,0.01 c 0,0.99 -0.53,1.95 -1.78,1.95 -1.16,0 -2.07,-1.02 -2.07,-2.26 0,-1.34 1.04,-2.3 2.19,-2.3 1.22,0 1.66,1.1 1.66,1.29 0,0.1 -0.08,0.12 -0.13,0.12 -0.09,0 -0.1,-0.06 -0.13,-0.14 -0.34,-1.03 -1.24,-1.03 -1.34,-1.03 -0.5,0 -0.9,0.3 -1.13,0.67 -0.3,0.48 -0.3,1.14 -0.3,1.49 l 0.01,0.21 c 0.06,1.49 0.9,1.73 1.24,1.73 1.03,0 1.13,-1.34 1.13,-1.73 h -2.37 l -0.01,-0.21 z"
   id="path5356" />
<path
   style="fill:#000000;stroke-width:0"
   inkscape:connector-curvature="0"
   d="m 408.42,710.55 v -2.67 c 0,-0.45 -0.11,-0.45 -0.78,-0.45 v -0.31 c 0.35,0.02 0.86,0.04 1.13,0.04 0.26,0 0.78,-0.02 1.11,-0.04 v 0.31 c -0.66,0 -0.77,0 -0.77,0.45 v 1.83 c 0,1.04 0.7,1.59 1.34,1.59 0.63,0 0.74,-0.53 0.74,-1.1 v -2.32 c 0,-0.45 -0.11,-0.45 -0.78,-0.45 v -0.31 c 0.35,0.02 0.86,0.04 1.13,0.04 0.26,0 0.78,-0.02 1.11,-0.04 v 0.31 c -0.51,0 -0.76,0 -0.77,0.3 v 1.9 c 0,0.86 0,1.17 -0.31,1.53 -0.14,0.17 -0.47,0.36 -1.05,0.36 -0.73,0 -1.19,-0.42 -1.47,-1.04 v 1.04 l -1.41,-0.11 v -0.3 c 0.7,0 0.78,-0.07 0.78,-0.56 z"
   id="path5358" />
<path
   style="fill:#000000;stroke-width:0"
   inkscape:connector-curvature="0"
   d="m 416.74,709.42 0.02,0 0,0 0.01,0 0.01,0 0.01,0 0.01,0 0.01,0 0.01,0 0.01,0 0,0 0.01,0.01 0.01,0 0.01,0 0.02,0 0.01,0 0.01,0 0.01,0 0.01,0.01 0.01,0 0.01,0 0,0.01 0.01,0 0.01,0.01 0,0 0.01,0.01 0,0.01 0.01,0 0,0.01 0,0.01 0,0 0,0.01 0.01,0 0,0.01 0,0 0,0.01 0,0.01 0,0 0,0.01 0,0.01 0,0 0,0.01 0,0.01 0,0.01 0,0.01 0,0 0,0.01 0,0.01 0,0.01 c 0,0.99 -0.53,1.95 -1.78,1.95 -1.16,0 -2.07,-1.02 -2.07,-2.26 0,-1.34 1.04,-2.3 2.19,-2.3 1.22,0 1.66,1.1 1.66,1.29 0,0.1 -0.08,0.12 -0.13,0.12 -0.09,0 -0.1,-0.06 -0.13,-0.14 -0.34,-1.03 -1.24,-1.03 -1.34,-1.03 -0.5,0 -0.9,0.3 -1.13,0.67 -0.3,0.48 -0.3,1.14 -0.3,1.49 l 0.01,0.21 c 0.06,1.49 0.9,1.73 1.24,1.73 1.03,0 1.13,-1.34 1.13,-1.73 h -2.37 l -0.01,-0.21 z"
   id="path5360" />
<path
   style="fill:#000000;stroke-width:0"
   inkscape:connector-curvature="0"
   d="m 420.14,709.46 0.06,0.08 0.06,0.07 0.06,0.08 0.06,0.07 0.12,0.16 0.06,0.07 0.07,0.08 0.06,0.08 0.06,0.07 0.05,0.07 0.06,0.07 0.03,0.03 0.02,0.03 0.03,0.03 0.03,0.03 0.02,0.03 0.03,0.03 0.02,0.02 0.02,0.03 c 0.31,0.36 0.72,0.51 1.19,0.52 v 0.3 c -0.26,-0.01 -0.56,-0.02 -0.82,-0.02 -0.3,0 -0.83,0.02 -0.96,0.02 v -0.3 c 0.21,-0.02 0.29,-0.15 0.29,-0.31 0,-0.16 -0.1,-0.29 -0.15,-0.35 l -0.61,-0.78 -0.78,1.01 c -0.09,0.1 -0.09,0.12 -0.09,0.18 0,0.15 0.15,0.24 0.35,0.25 v 0.3 c -0.26,0 -0.92,-0.02 -1.08,-0.02 -0.21,0 -0.68,0.01 -0.95,0.02 v -0.3 c 0.7,0 0.71,-0.01 1.18,-0.61 l 0.99,-1.28 c -0.47,-0.6 -0.47,-0.62 -0.94,-1.19 -0.48,-0.58 -1.07,-0.6 -1.28,-0.6 v -0.31 c 0.26,0.03 0.57,0.04 0.83,0.04 0.29,0 0.71,-0.02 0.95,-0.04 v 0.31 c -0.22,0.03 -0.29,0.16 -0.29,0.31 0,0.22 0.29,0.55 0.9,1.27 0.29,-0.39 0.36,-0.5 0.75,-1 0.08,-0.11 0.21,-0.27 0.21,-0.33 0,-0.09 -0.09,-0.24 -0.36,-0.25 v -0.31 c 0.3,0.02 0.86,0.04 1.08,0.04 0.27,0 0.66,-0.01 0.96,-0.04 v 0.31 c -0.54,0 -0.72,0.02 -0.95,0.31 z"
   id="path5362" />
<path
   style="fill:#000000;stroke-width:0"
   inkscape:connector-curvature="0"
   d="m 424.27,711.11 h 1.42 v 0.3 h -1.42 v 1.84 h -0.25 c -0.01,-0.82 -0.31,-1.89 -1.29,-1.92 v -0.22 h 0.85 v -2.75 c 0,-1.22 0.93,-1.34 1.28,-1.34 0.71,0 0.99,0.7 0.99,1.34 v 0.57 h -0.25 v -0.55 c 0,-0.74 -0.3,-1.12 -0.67,-1.12 -0.66,0 -0.66,0.91 -0.66,1.08 z"
   id="path5364" />
<path
   style="fill:#000000;stroke-width:0"
   inkscape:connector-curvature="0"
   d="m 362.18,699.15 h 1.43 v 0.31 h -1.43 v 1.83 h -0.25 c -0.01,-0.82 -0.3,-1.88 -1.28,-1.92 v -0.22 h 0.85 v -2.75 c 0,-1.22 0.92,-1.34 1.28,-1.34 0.71,0 0.99,0.71 0.99,1.34 v 0.57 h -0.25 v -0.55 c 0,-0.73 -0.3,-1.11 -0.67,-1.11 -0.67,0 -0.67,0.91 -0.67,1.07 z"
   id="path5366" />
<path
   style="fill:#000000;stroke-width:0"
   inkscape:connector-curvature="0"
   d="m 366.1,699.57 -1.4,-0.11 v -0.31 c 0.65,0 0.74,-0.06 0.74,-0.55 v -2.67 c 0,-0.45 -0.11,-0.45 -0.78,-0.45 v -0.31 c 0.32,0.01 0.86,0.03 1.1,0.03 0.35,0 0.7,-0.02 1.04,-0.03 v 0.31 c -0.66,0 -0.7,0.05 -0.7,0.44 z"
   id="path5368" />
<path
   style="fill:#000000;stroke-width:0"
   inkscape:connector-curvature="0"
   d="m 366.14,701.3 0,0.03 0,0.03 -0.01,0.03 0,0.02 -0.01,0.03 -0.01,0.03 0,0.02 -0.01,0.03 -0.02,0.02 -0.01,0.02 -0.01,0.03 -0.01,0.02 -0.02,0.02 -0.02,0.02 -0.01,0.02 -0.02,0.01 -0.02,0.02 -0.02,0.02 -0.02,0.01 -0.02,0.02 -0.02,0.01 -0.02,0.01 -0.03,0.01 -0.02,0.01 -0.02,0.01 -0.03,0.01 -0.02,0 -0.03,0.01 -0.02,0 -0.03,0.01 -0.02,0 -0.03,0 c -0.31,0 -0.53,-0.27 -0.53,-0.53 0,-0.27 0.22,-0.53 0.53,-0.53 0.28,0 0.53,0.21 0.53,0.53 z"
   id="path5370" />
<path
   style="fill:#000000;stroke-width:0"
   inkscape:connector-curvature="0"
   d="m 368.2,698.59 v -2.66 c 0,-0.45 -0.11,-0.45 -0.78,-0.45 v -0.31 c 0.35,0.01 0.86,0.03 1.13,0.03 0.26,0 0.78,-0.02 1.11,-0.03 v 0.31 c -0.66,0 -0.77,0 -0.77,0.45 v 1.83 c 0,1.03 0.7,1.59 1.34,1.59 0.63,0 0.74,-0.54 0.74,-1.11 v -2.31 c 0,-0.45 -0.11,-0.45 -0.78,-0.45 v -0.31 c 0.35,0.01 0.86,0.03 1.13,0.03 0.26,0 0.78,-0.02 1.11,-0.03 v 0.31 c -0.66,0 -0.77,0 -0.77,0.45 v 1.83 c 0,1.03 0.7,1.59 1.34,1.59 0.63,0 0.74,-0.54 0.74,-1.11 v -2.31 c 0,-0.45 -0.11,-0.45 -0.78,-0.45 v -0.31 c 0.35,0.01 0.86,0.03 1.13,0.03 0.26,0 0.78,-0.02 1.12,-0.03 v 0.31 c -0.52,0 -0.77,0 -0.78,0.3 v 1.9 c 0,0.85 0,1.16 -0.31,1.52 -0.14,0.17 -0.47,0.37 -1.05,0.37 -0.83,0 -1.27,-0.6 -1.44,-0.98 -0.14,0.87 -0.88,0.98 -1.33,0.98 -0.73,0 -1.19,-0.43 -1.47,-1.05 v 1.05 l -1.41,-0.11 v -0.31 c 0.7,0 0.78,-0.07 0.78,-0.56 z"
   id="path5372" />
<path
   style="fill:#000000;stroke-width:0"
   inkscape:connector-curvature="0"
   d="m 379.29,697.47 0.01,0 0.01,0 0.01,0 0.01,0 0.01,0 0.01,0 0.01,0 0.01,0 0,0 0.01,0 0.01,0 0.01,0 0.01,0 0.01,0 0.02,0 0.01,0.01 0.01,0 0.01,0 0.01,0 0,0.01 0.01,0 0.01,0.01 0,0 0.01,0.01 0.01,0 0,0.01 0,0.01 0.01,0.01 0,0 0,0.01 0,0 0,0.01 0,0 0.01,0.01 0,0 0,0.01 0,0.01 0,0 0,0.01 0,0.01 0,0.01 0,0 0,0.01 0,0.01 0,0.01 0,0.01 0,0.01 0,0.01 c 0,0.98 -0.54,1.95 -1.78,1.95 -1.16,0 -2.08,-1.03 -2.08,-2.27 0,-1.33 1.05,-2.3 2.2,-2.3 1.21,0 1.66,1.1 1.66,1.29 0,0.1 -0.08,0.12 -0.13,0.12 -0.09,0 -0.11,-0.06 -0.13,-0.14 -0.35,-1.02 -1.24,-1.02 -1.34,-1.02 -0.5,0 -0.9,0.3 -1.13,0.67 -0.3,0.47 -0.3,1.13 -0.3,1.49 l 0.01,0.21 c 0.06,1.48 0.9,1.73 1.24,1.73 1.02,0 1.12,-1.34 1.12,-1.73 h -2.36 l -0.01,-0.21 z"
   id="path5374" />
<path
   style="fill:#000000;stroke-width:0"
   inkscape:connector-curvature="0"
   d="m 385.22,697.1 0.02,0 0.03,-0.01 0.03,0 0.03,-0.01 0.03,-0.01 0.04,-0.01 0.04,-0.01 0.04,-0.01 0.04,-0.01 0.04,-0.01 0.04,-0.02 0.05,-0.02 0.04,-0.02 0.05,-0.02 0.04,-0.02 0.04,-0.02 0.05,-0.03 0.04,-0.03 0.04,-0.03 0.04,-0.03 0.04,-0.04 0.03,-0.03 0.04,-0.04 0.03,-0.05 0.03,-0.04 0.01,-0.02 0.01,-0.03 0.01,-0.02 0.01,-0.03 0.01,-0.02 0.01,-0.03 0.01,-0.03 0.01,-0.03 0,-0.03 0.01,-0.03 0,-0.03 0.01,-0.03 0,-0.03 0,-0.04 c 0,-0.5 -0.35,-0.9 -1.13,-0.9 -0.83,0 -1.19,0.57 -1.38,1.41 -0.03,0.13 -0.04,0.17 -0.14,0.17 -0.13,0 -0.13,-0.07 -0.13,-0.25 v -1.31 c 0,-0.17 0,-0.24 0.11,-0.24 0.05,0 0.06,0.01 0.25,0.2 0.02,0.02 0.02,0.04 0.2,0.23 0.44,-0.42 0.88,-0.43 1.09,-0.43 1.15,0 1.61,0.67 1.61,1.38 0,0.53 -0.3,0.83 -0.42,0.95 -0.33,0.32 -0.72,0.4 -1.14,0.48 -0.56,0.11 -1.22,0.24 -1.22,0.81 0,0.35 0.25,0.76 1.11,0.76 1.1,0 1.15,-0.9 1.17,-1.21 0.01,-0.08 0.1,-0.08 0.12,-0.08 0.13,0 0.13,0.05 0.13,0.24 v 1 c 0,0.17 0,0.24 -0.11,0.24 -0.05,0 -0.07,0 -0.2,-0.12 -0.03,-0.04 -0.13,-0.13 -0.17,-0.16 -0.38,0.28 -0.79,0.28 -0.94,0.28 -1.21,0 -1.59,-0.67 -1.59,-1.22 0,-0.35 0.16,-0.63 0.43,-0.85 0.32,-0.26 0.6,-0.32 1.31,-0.46 z"
   id="path5376" />
<path
   style="fill:#000000;stroke-width:0"
   inkscape:connector-curvature="0"
   d="m 388.8,699.15 h 1.43 v 0.31 h -1.43 v 1.83 h -0.25 c -0.01,-0.82 -0.31,-1.88 -1.28,-1.92 v -0.22 h 0.84 v -2.75 c 0,-1.22 0.93,-1.34 1.29,-1.34 0.71,0 0.99,0.71 0.99,1.34 v 0.57 h -0.25 v -0.55 c 0,-0.73 -0.3,-1.11 -0.67,-1.11 -0.67,0 -0.67,0.91 -0.67,1.07 z"
   id="path5378" />
<path
   style="fill:#000000;stroke-width:0"
   inkscape:connector-curvature="0"
   d="m 394.84,697.47 0.01,0 0.01,0 0.01,0 0.01,0 0.01,0 0.01,0 0.01,0 0,0 0.01,0 0.01,0 0.01,0 0,0 0.02,0 0.01,0 0.01,0 0.01,0.01 0.02,0 0.01,0 0,0 0.01,0.01 0.01,0 0.01,0.01 0,0 0.01,0.01 0,0 0.01,0.01 0,0.01 0.01,0.01 0,0 0,0.01 0,0 0,0.01 0,0 0,0.01 0,0 0,0.01 0.01,0.01 0,0 0,0.01 0,0.01 0,0.01 0,0 0,0.01 0,0.01 0,0.01 0,0.01 0,0.01 0,0.01 c 0,0.98 -0.54,1.95 -1.79,1.95 -1.15,0 -2.07,-1.03 -2.07,-2.27 0,-1.33 1.05,-2.3 2.19,-2.3 1.22,0 1.67,1.1 1.67,1.29 0,0.1 -0.08,0.12 -0.13,0.12 -0.09,0 -0.11,-0.06 -0.13,-0.14 -0.35,-1.02 -1.25,-1.02 -1.35,-1.02 -0.49,0 -0.89,0.3 -1.12,0.67 -0.3,0.47 -0.3,1.13 -0.3,1.49 l 0.01,0.21 c 0.06,1.48 0.9,1.73 1.23,1.73 1.03,0 1.13,-1.34 1.13,-1.73 h -2.36 l -0.01,-0.21 z"
   id="path5380" />
<path
   style="fill:#000000;stroke-width:0"
   inkscape:connector-curvature="0"
   d="m 397.12,695.76 0.14,0.13 c -0.14,0.21 -0.14,0.21 -0.14,0.41 v 2.22 c 0.29,0.51 0.78,0.8 1.29,0.8 0.73,0 1.34,-0.88 1.34,-2 0,-1.21 -0.7,-2.04 -1.44,-2.04 -0.4,0 -0.78,0.2 -1.05,0.61 l -0.14,-0.13 c 0.05,-0.16 0.47,-0.7 1.23,-0.7 1.19,0 2.22,0.98 2.22,2.26 0,1.26 -0.96,2.25 -2.08,2.25 -0.78,0 -1.2,-0.44 -1.4,-0.66 v 0.66 l -1.43,-0.11 v -0.31 c 0.71,0 0.78,-0.06 0.78,-0.5 V 694 c 0,-0.45 -0.11,-0.45 -0.78,-0.45 v -0.31 c 0.34,0.01 0.86,0.03 1.11,0.03 0.28,0 0.78,-0.02 1.13,-0.03 v 0.31 c -0.67,0 -0.78,0 -0.78,0.45 v 1.67 z"
   id="path5382" />
<path
   style="fill:#000000;stroke-width:0"
   inkscape:connector-curvature="0"
   d="m 406.01,699.57 -1.4,-0.11 v -0.31 c 0.65,0 0.74,-0.06 0.74,-0.55 v -2.67 c 0,-0.45 -0.11,-0.45 -0.78,-0.45 v -0.31 c 0.32,0.01 0.86,0.03 1.1,0.03 0.35,0 0.7,-0.02 1.03,-0.03 v 0.31 c -0.65,0 -0.69,0.05 -0.69,0.44 z"
   id="path5384" />
<path
   style="fill:#000000;stroke-width:0"
   inkscape:connector-curvature="0"
   d="m 406.05,701.3 0,0.03 -0.01,0.03 0,0.03 0,0.02 -0.01,0.03 -0.01,0.03 -0.01,0.02 -0.01,0.03 -0.01,0.02 -0.01,0.02 -0.01,0.03 -0.02,0.02 -0.01,0.02 -0.02,0.02 -0.01,0.02 -0.02,0.01 -0.02,0.02 -0.02,0.02 -0.02,0.01 -0.02,0.02 -0.02,0.01 -0.02,0.01 -0.03,0.01 -0.02,0.01 -0.02,0.01 -0.03,0.01 -0.02,0 -0.03,0.01 -0.02,0 -0.03,0.01 -0.02,0 -0.03,0 c -0.31,0 -0.53,-0.27 -0.53,-0.53 0,-0.27 0.22,-0.53 0.53,-0.53 0.28,0 0.53,0.21 0.53,0.53 z"
   id="path5386" />
<path
   style="fill:#000000;stroke-width:0"
   inkscape:connector-curvature="0"
   d="m 408.11,698.59 v -2.66 c 0,-0.45 -0.11,-0.45 -0.78,-0.45 v -0.31 c 0.35,0.01 0.86,0.03 1.13,0.03 0.25,0 0.77,-0.02 1.11,-0.03 v 0.31 c -0.67,0 -0.78,0 -0.78,0.45 v 1.83 c 0,1.03 0.71,1.59 1.35,1.59 0.63,0 0.74,-0.54 0.74,-1.11 v -2.31 c 0,-0.45 -0.11,-0.45 -0.78,-0.45 v -0.31 c 0.35,0.01 0.86,0.03 1.13,0.03 0.26,0 0.77,-0.02 1.11,-0.03 v 0.31 c -0.51,0 -0.76,0 -0.77,0.3 v 1.9 c 0,0.85 0,1.16 -0.31,1.52 -0.14,0.17 -0.47,0.37 -1.05,0.37 -0.73,0 -1.2,-0.43 -1.48,-1.05 v 1.05 l -1.4,-0.11 v -0.31 c 0.7,0 0.78,-0.07 0.78,-0.56 z"
   id="path5388" />
<path
   style="fill:#000000;stroke-width:0"
   inkscape:connector-curvature="0"
   d="m 418.18,701.84 -0.01,0.01 -0.01,0.01 -0.01,0.01 0,0.01 -0.01,0.01 -0.01,0 0,0.01 -0.01,0.01 -0.01,0.01 0,0 -0.01,0.01 -0.01,0 0,0.01 -0.01,0 0,0 -0.01,0.01 -0.01,0 -0.01,0 0,0.01 -0.01,0 -0.01,0 -0.01,0 -0.01,0 -0.01,0 -0.01,0.01 -0.01,0 -0.02,0 -0.01,0 -0.01,0 -0.01,0 -0.01,0 -0.01,0 -0.01,0 0,0 -0.01,0 h -1.7 v -0.31 h 0.29 c 0.15,0 0.35,-0.01 0.5,-0.02 0.23,-0.03 0.24,-0.04 0.24,-0.23 v -5.19 c 0,-0.27 0,-0.74 -1.03,-0.74 v -0.31 c 0.35,0.01 0.84,0.03 1.17,0.03 0.33,0 0.82,-0.02 1.16,-0.03 v 0.31 c -1.02,0 -1.02,0.47 -1.02,0.74 v 5.17 c 0.05,-0.05 0.06,-0.06 0.1,-0.12 l 4.07,-5.97 c 0.08,-0.12 0.09,-0.13 0.16,-0.13 0.14,0 0.14,0.07 0.14,0.26 v 5.49 c 0,0.27 0,0.74 1.03,0.74 v 0.31 c -0.35,-0.01 -0.84,-0.03 -1.17,-0.03 -0.32,0 -0.81,0.02 -1.16,0.03 v -0.31 c 1.02,0 1.02,-0.47 1.02,-0.74 v -4.25 z"
   id="path5390" />
<path
   style="fill:#000000;stroke-width:0"
   inkscape:connector-curvature="0"
   d="m 425.6,698.32 -0.03,0.25 v 2.69 c 0,0.33 0.02,0.4 0.49,0.4 h 0.88 c 1.59,0 1.59,-1.06 1.59,-1.54 0,-0.47 0,-1.55 -1.59,-1.55 h -1.37 l 0.03,-0.25 h 1.68 c 1.2,0 2.27,0.8 2.27,1.8 0,0.97 -0.98,1.85 -2.35,1.85 h -3.52 v -0.31 h 0.24 c 0.77,0 0.79,-0.11 0.79,-0.47 v -5.24 c 0,-0.36 -0.02,-0.47 -0.79,-0.47 h -0.24 v -0.31 c 0.35,0.03 1.09,0.03 1.47,0.03 0.38,0 1.13,0 1.47,-0.03 v 0.31 h -0.23 c -0.77,0 -0.79,0.11 -0.79,0.47 z"
   id="path5392" />
</g>    <g
       style="font-style:normal;font-variant:normal;font-weight:normal;font-stretch:normal;letter-spacing:normal;word-spacing:normal;text-anchor:start;fill:none;stroke:#000000;stroke-linecap:butt;stroke-linejoin:miter;stroke-miterlimit:10.43299961;stroke-opacity:1;stroke-dasharray:none;stroke-dashoffset:0"
       ns0:preamble=""
       ns0:text="\\centering\nCompute next\\\\ \ntime step in NS\n\n\n"
       word-spacing="normal"
       letter-spacing="normal"
       font-size-adjust="none"
       font-stretch="normal"
       font-weight="normal"
       font-variant="normal"
       font-style="normal"
       stroke-miterlimit="10.433"
       xml:space="preserve"
       transform="matrix(1,0,0,-1,-188.98296,1429.0043)"
       id="g5655">
<path
   id="path5657"
   d="m 370.78,713.9 0,0.02 0,0.01 0,0.02 0,0.01 0,0.02 0,0.01 0,0.01 0,0.01 0,0.01 0,0.01 0,0.01 0,0.01 0,0.01 -0.01,0.01 0,0.01 0,0.01 0,0 -0.01,0.01 0,0 0,0.01 -0.01,0.01 0,0 -0.01,0 0,0.01 -0.01,0 -0.01,0 0,0.01 -0.01,0 -0.01,0 -0.01,0 -0.01,0 -0.01,0 c -0.04,0 -0.08,0 -0.16,-0.12 l -0.49,-0.73 c -0.37,0.35 -0.88,0.85 -1.84,0.85 -1.86,0 -3.47,-1.58 -3.47,-3.61 0,-2.06 1.62,-3.62 3.47,-3.62 1.63,0 2.6,1.38 2.6,2.53 0,0.1 0,0.17 -0.13,0.17 -0.11,0 -0.11,-0.06 -0.12,-0.16 -0.08,-1.42 -1.14,-2.23 -2.23,-2.23 -0.61,0 -2.56,0.33 -2.56,3.3 0,2.97 1.94,3.31 2.55,3.31 1.09,0 1.98,-0.9 2.17,-2.36 0.02,-0.13 0.02,-0.17 0.16,-0.17 0.16,0 0.16,0.04 0.16,0.24 z"
   inkscape:connector-curvature="0"
   style="fill:#000000;stroke-width:0" />
<path
   id="path5659"
   d="m 376.04,709.26 0,0.11 -0.01,0.12 -0.01,0.12 -0.02,0.11 -0.03,0.11 -0.03,0.11 -0.03,0.11 -0.04,0.11 -0.05,0.1 -0.04,0.1 -0.06,0.1 -0.06,0.09 -0.06,0.09 -0.06,0.09 -0.07,0.09 -0.08,0.08 -0.07,0.07 -0.08,0.08 -0.09,0.07 -0.08,0.06 -0.09,0.06 -0.09,0.06 -0.1,0.05 -0.1,0.05 -0.1,0.04 -0.1,0.04 -0.1,0.03 -0.11,0.03 -0.11,0.02 -0.11,0.01 -0.11,0.01 -0.11,0 -0.01,-0.22 c 0.44,0 0.87,-0.21 1.13,-0.64 0.26,-0.43 0.26,-1.01 0.26,-1.39 0,-0.35 0,-0.89 -0.22,-1.33 -0.22,-0.45 -0.66,-0.74 -1.16,-0.74 h 0 c -0.43,0 -0.87,0.21 -1.14,0.67 -0.25,0.44 -0.25,1.05 -0.25,1.4 0,0.39 0,0.93 0.25,1.37 0.26,0.46 0.73,0.66 1.13,0.66 l 0.01,0.22 c -1.24,0 -2.21,-1.08 -2.21,-2.32 0,-1.29 1.04,-2.24 2.2,-2.24 1.21,0 2.21,0.97 2.21,2.24 z"
   inkscape:connector-curvature="0"
   style="fill:#000000;stroke-width:0" />
<path
   id="path5661"
   d="m 377.43,710.55 v -2.67 c 0,-0.45 -0.11,-0.45 -0.78,-0.45 v -0.31 c 0.35,0.02 0.86,0.04 1.13,0.04 0.26,0 0.77,-0.02 1.11,-0.04 v 0.31 c -0.67,0 -0.78,0 -0.78,0.45 v 1.83 c 0,1.04 0.71,1.59 1.35,1.59 0.63,0 0.74,-0.53 0.74,-1.1 v -2.32 c 0,-0.45 -0.11,-0.45 -0.78,-0.45 v -0.31 c 0.35,0.02 0.86,0.04 1.13,0.04 0.26,0 0.77,-0.02 1.11,-0.04 v 0.31 c -0.67,0 -0.77,0 -0.77,0.45 v 1.83 c 0,1.04 0.7,1.59 1.34,1.59 0.63,0 0.74,-0.53 0.74,-1.1 v -2.32 c 0,-0.45 -0.11,-0.45 -0.78,-0.45 v -0.31 c 0.35,0.02 0.86,0.04 1.13,0.04 0.26,0 0.78,-0.02 1.11,-0.04 v 0.31 c -0.51,0 -0.76,0 -0.77,0.3 v 1.9 c 0,0.86 0,1.17 -0.31,1.53 -0.14,0.17 -0.47,0.36 -1.05,0.36 -0.84,0 -1.28,-0.59 -1.44,-0.97 -0.14,0.86 -0.88,0.97 -1.33,0.97 -0.73,0 -1.2,-0.42 -1.48,-1.04 v 1.04 l -1.4,-0.11 v -0.3 c 0.7,0 0.78,-0.07 0.78,-0.56 z"
   inkscape:connector-curvature="0"
   style="fill:#000000;stroke-width:0" />
<path
   id="path5663"
   d="m 386.38,707.71 0.14,0.13 c -0.14,0.21 -0.14,0.22 -0.14,0.42 v 2.22 c 0.29,0.51 0.77,0.8 1.28,0.8 0.73,0 1.34,-0.88 1.34,-2 0,-1.21 -0.7,-2.05 -1.44,-2.05 -0.4,0 -0.77,0.2 -1.04,0.61 l -0.14,-0.13 c 0.05,-0.16 0.47,-0.69 1.22,-0.69 1.19,0 2.23,0.97 2.23,2.26 0,1.26 -0.97,2.24 -2.09,2.24 -0.78,0 -1.19,-0.43 -1.39,-0.65 v 0.65 l -1.44,-0.11 v -0.3 c 0.71,0 0.78,-0.06 0.78,-0.5 v -4.66 c 0,-0.45 -0.11,-0.45 -0.78,-0.45 v -0.31 c 0.34,0.01 0.86,0.03 1.12,0.03 0.27,0 0.77,-0.02 1.12,-0.03 v 0.31 c -0.66,0 -0.77,0 -0.77,0.45 v 1.67 z"
   inkscape:connector-curvature="0"
   style="fill:#000000;stroke-width:0" />
<path
   id="path5665"
   d="m 394.07,707.91 v -0.89 l 1.43,0.1 v 0.31 c -0.7,0 -0.78,0.07 -0.78,0.56 v 3.53 l -1.46,-0.11 v -0.3 c 0.69,0 0.78,-0.07 0.78,-0.56 v -1.77 c 0,-0.87 -0.48,-1.55 -1.21,-1.55 -0.84,0 -0.88,0.47 -0.88,0.99 v 3.3 l -1.46,-0.11 v -0.3 c 0.77,0 0.77,-0.03 0.77,-0.92 v -1.49 c 0,-0.78 0,-1.68 1.52,-1.68 0.56,0 1,0.27 1.29,0.89 z"
   inkscape:connector-curvature="0"
   style="fill:#000000;stroke-width:0" />
<path
   id="path5667"
   d="m 397.43,711.11 h 1.42 v 0.3 h -1.42 v 1.84 h -0.25 c -0.01,-0.82 -0.31,-1.89 -1.29,-1.92 v -0.22 h 0.85 v -2.75 c 0,-1.22 0.93,-1.34 1.28,-1.34 0.71,0 0.99,0.7 0.99,1.34 v 0.57 h -0.25 v -0.55 c 0,-0.74 -0.3,-1.12 -0.66,-1.12 -0.67,0 -0.67,0.91 -0.67,1.08 z"
   inkscape:connector-curvature="0"
   style="fill:#000000;stroke-width:0" />
<path
   id="path5669"
   d="m 403.46,709.42 0.02,0 0,0 0.01,0 0.01,0 0.01,0 0.01,0 0.01,0 0.01,0 0.01,0 0,0 0.01,0.01 0.01,0 0.01,0 0.02,0 0.01,0 0.01,0 0.01,0 0.01,0.01 0.01,0 0.01,0 0,0.01 0.01,0 0.01,0.01 0,0 0.01,0.01 0,0.01 0.01,0 0,0.01 0,0.01 0,0 0,0.01 0.01,0 0,0.01 0,0 0,0.01 0,0.01 0,0 0,0.01 0,0.01 0,0 0,0.01 0,0.01 0,0.01 0,0.01 0,0 0,0.01 0,0.01 0,0.01 c 0,0.99 -0.53,1.95 -1.78,1.95 -1.16,0 -2.07,-1.02 -2.07,-2.26 0,-1.34 1.04,-2.3 2.19,-2.3 1.22,0 1.66,1.1 1.66,1.29 0,0.1 -0.08,0.12 -0.13,0.12 -0.09,0 -0.1,-0.06 -0.13,-0.14 -0.34,-1.03 -1.24,-1.03 -1.34,-1.03 -0.5,0 -0.9,0.3 -1.13,0.67 -0.3,0.48 -0.3,1.14 -0.3,1.49 l 0.01,0.21 c 0.06,1.49 0.9,1.73 1.24,1.73 1.03,0 1.13,-1.34 1.13,-1.73 h -2.37 l -0.01,-0.21 z"
   inkscape:connector-curvature="0"
   style="fill:#000000;stroke-width:0" />
<path
   id="path5671"
   d="m 408.42,710.55 v -2.67 c 0,-0.45 -0.11,-0.45 -0.78,-0.45 v -0.31 c 0.35,0.02 0.86,0.04 1.13,0.04 0.26,0 0.78,-0.02 1.11,-0.04 v 0.31 c -0.66,0 -0.77,0 -0.77,0.45 v 1.83 c 0,1.04 0.7,1.59 1.34,1.59 0.63,0 0.74,-0.53 0.74,-1.1 v -2.32 c 0,-0.45 -0.11,-0.45 -0.78,-0.45 v -0.31 c 0.35,0.02 0.86,0.04 1.13,0.04 0.26,0 0.78,-0.02 1.11,-0.04 v 0.31 c -0.51,0 -0.76,0 -0.77,0.3 v 1.9 c 0,0.86 0,1.17 -0.31,1.53 -0.14,0.17 -0.47,0.36 -1.05,0.36 -0.73,0 -1.19,-0.42 -1.47,-1.04 v 1.04 l -1.41,-0.11 v -0.3 c 0.7,0 0.78,-0.07 0.78,-0.56 z"
   inkscape:connector-curvature="0"
   style="fill:#000000;stroke-width:0" />
<path
   id="path5673"
   d="m 416.74,709.42 0.02,0 0,0 0.01,0 0.01,0 0.01,0 0.01,0 0.01,0 0.01,0 0.01,0 0,0 0.01,0.01 0.01,0 0.01,0 0.02,0 0.01,0 0.01,0 0.01,0 0.01,0.01 0.01,0 0.01,0 0,0.01 0.01,0 0.01,0.01 0,0 0.01,0.01 0,0.01 0.01,0 0,0.01 0,0.01 0,0 0,0.01 0.01,0 0,0.01 0,0 0,0.01 0,0.01 0,0 0,0.01 0,0.01 0,0 0,0.01 0,0.01 0,0.01 0,0.01 0,0 0,0.01 0,0.01 0,0.01 c 0,0.99 -0.53,1.95 -1.78,1.95 -1.16,0 -2.07,-1.02 -2.07,-2.26 0,-1.34 1.04,-2.3 2.19,-2.3 1.22,0 1.66,1.1 1.66,1.29 0,0.1 -0.08,0.12 -0.13,0.12 -0.09,0 -0.1,-0.06 -0.13,-0.14 -0.34,-1.03 -1.24,-1.03 -1.34,-1.03 -0.5,0 -0.9,0.3 -1.13,0.67 -0.3,0.48 -0.3,1.14 -0.3,1.49 l 0.01,0.21 c 0.06,1.49 0.9,1.73 1.24,1.73 1.03,0 1.13,-1.34 1.13,-1.73 h -2.37 l -0.01,-0.21 z"
   inkscape:connector-curvature="0"
   style="fill:#000000;stroke-width:0" />
<path
   id="path5675"
   d="m 420.14,709.46 0.06,0.08 0.06,0.07 0.06,0.08 0.06,0.07 0.12,0.16 0.06,0.07 0.07,0.08 0.06,0.08 0.06,0.07 0.05,0.07 0.06,0.07 0.03,0.03 0.02,0.03 0.03,0.03 0.03,0.03 0.02,0.03 0.03,0.03 0.02,0.02 0.02,0.03 c 0.31,0.36 0.72,0.51 1.19,0.52 v 0.3 c -0.26,-0.01 -0.56,-0.02 -0.82,-0.02 -0.3,0 -0.83,0.02 -0.96,0.02 v -0.3 c 0.21,-0.02 0.29,-0.15 0.29,-0.31 0,-0.16 -0.1,-0.29 -0.15,-0.35 l -0.61,-0.78 -0.78,1.01 c -0.09,0.1 -0.09,0.12 -0.09,0.18 0,0.15 0.15,0.24 0.35,0.25 v 0.3 c -0.26,0 -0.92,-0.02 -1.08,-0.02 -0.21,0 -0.68,0.01 -0.95,0.02 v -0.3 c 0.7,0 0.71,-0.01 1.18,-0.61 l 0.99,-1.28 c -0.47,-0.6 -0.47,-0.62 -0.94,-1.19 -0.48,-0.58 -1.07,-0.6 -1.28,-0.6 v -0.31 c 0.26,0.03 0.57,0.04 0.83,0.04 0.29,0 0.71,-0.02 0.95,-0.04 v 0.31 c -0.22,0.03 -0.29,0.16 -0.29,0.31 0,0.22 0.29,0.55 0.9,1.27 0.29,-0.39 0.36,-0.5 0.75,-1 0.08,-0.11 0.21,-0.27 0.21,-0.33 0,-0.09 -0.09,-0.24 -0.36,-0.25 v -0.31 c 0.3,0.02 0.86,0.04 1.08,0.04 0.27,0 0.66,-0.01 0.96,-0.04 v 0.31 c -0.54,0 -0.72,0.02 -0.95,0.31 z"
   inkscape:connector-curvature="0"
   style="fill:#000000;stroke-width:0" />
<path
   id="path5677"
   d="m 424.27,711.11 h 1.42 v 0.3 h -1.42 v 1.84 h -0.25 c -0.01,-0.82 -0.31,-1.89 -1.29,-1.92 v -0.22 h 0.85 v -2.75 c 0,-1.22 0.93,-1.34 1.28,-1.34 0.71,0 0.99,0.7 0.99,1.34 v 0.57 h -0.25 v -0.55 c 0,-0.74 -0.3,-1.12 -0.67,-1.12 -0.66,0 -0.66,0.91 -0.66,1.08 z"
   inkscape:connector-curvature="0"
   style="fill:#000000;stroke-width:0" />
<path
   id="path5679"
   d="m 362.81,699.15 h 1.42 v 0.31 h -1.42 v 1.83 h -0.25 c -0.01,-0.82 -0.31,-1.88 -1.29,-1.92 v -0.22 h 0.85 v -2.75 c 0,-1.22 0.93,-1.34 1.29,-1.34 0.7,0 0.98,0.71 0.98,1.34 v 0.57 h -0.25 v -0.55 c 0,-0.73 -0.3,-1.11 -0.66,-1.11 -0.67,0 -0.67,0.91 -0.67,1.07 z"
   inkscape:connector-curvature="0"
   style="fill:#000000;stroke-width:0" />
<path
   id="path5681"
   d="m 366.72,699.57 -1.39,-0.11 v -0.31 c 0.64,0 0.73,-0.06 0.73,-0.55 v -2.67 c 0,-0.45 -0.11,-0.45 -0.77,-0.45 v -0.31 c 0.32,0.01 0.85,0.03 1.09,0.03 0.35,0 0.7,-0.02 1.04,-0.03 v 0.31 c -0.66,0 -0.7,0.05 -0.7,0.44 z"
   inkscape:connector-curvature="0"
   style="fill:#000000;stroke-width:0" />
<path
   id="path5683"
   d="m 366.76,701.3 0,0.03 0,0.03 0,0.03 -0.01,0.02 -0.01,0.03 0,0.03 -0.01,0.02 -0.01,0.03 -0.01,0.02 -0.01,0.02 -0.02,0.03 -0.01,0.02 -0.02,0.02 -0.01,0.02 -0.02,0.02 -0.02,0.01 -0.02,0.02 -0.02,0.02 -0.02,0.01 -0.02,0.02 -0.02,0.01 -0.02,0.01 -0.02,0.01 -0.03,0.01 -0.02,0.01 -0.02,0.01 -0.03,0 -0.02,0.01 -0.03,0 -0.02,0.01 -0.03,0 -0.03,0 c -0.31,0 -0.53,-0.27 -0.53,-0.53 0,-0.27 0.22,-0.53 0.53,-0.53 0.28,0 0.53,0.21 0.53,0.53 z"
   inkscape:connector-curvature="0"
   style="fill:#000000;stroke-width:0" />
<path
   id="path5685"
   d="m 368.82,698.59 v -2.66 c 0,-0.45 -0.11,-0.45 -0.78,-0.45 v -0.31 c 0.35,0.01 0.86,0.03 1.13,0.03 0.26,0 0.78,-0.02 1.12,-0.03 v 0.31 c -0.67,0 -0.78,0 -0.78,0.45 v 1.83 c 0,1.03 0.71,1.59 1.35,1.59 0.62,0 0.73,-0.54 0.73,-1.11 v -2.31 c 0,-0.45 -0.11,-0.45 -0.77,-0.45 v -0.31 c 0.34,0.01 0.85,0.03 1.12,0.03 0.26,0 0.78,-0.02 1.12,-0.03 v 0.31 c -0.67,0 -0.78,0 -0.78,0.45 v 1.83 c 0,1.03 0.71,1.59 1.35,1.59 0.62,0 0.73,-0.54 0.73,-1.11 v -2.31 c 0,-0.45 -0.11,-0.45 -0.77,-0.45 v -0.31 c 0.34,0.01 0.85,0.03 1.12,0.03 0.26,0 0.78,-0.02 1.12,-0.03 v 0.31 c -0.52,0 -0.77,0 -0.78,0.3 v 1.9 c 0,0.85 0,1.16 -0.31,1.52 -0.14,0.17 -0.47,0.37 -1.04,0.37 -0.84,0 -1.28,-0.6 -1.45,-0.98 -0.14,0.87 -0.88,0.98 -1.33,0.98 -0.72,0 -1.19,-0.43 -1.47,-1.05 v 1.05 l -1.41,-0.11 v -0.31 c 0.7,0 0.78,-0.07 0.78,-0.56 z"
   inkscape:connector-curvature="0"
   style="fill:#000000;stroke-width:0" />
<path
   id="path5687"
   d="m 379.92,697.47 0.01,0 0,0 0.01,0 0.01,0 0.01,0 0.01,0 0.01,0 0.01,0 0.01,0 0,0 0.01,0 0.01,0 0.01,0 0.02,0 0.01,0 0.01,0.01 0.01,0 0.01,0 0.01,0 0.01,0.01 0,0 0.01,0.01 0.01,0 0,0.01 0.01,0 0,0.01 0.01,0.01 0,0.01 0,0 0,0.01 0,0 0.01,0.01 0,0 0,0.01 0,0 0,0.01 0,0.01 0,0 0,0.01 0,0.01 0,0.01 0,0 0,0.01 0,0.01 0,0.01 0,0.01 0,0.01 0,0.01 c 0,0.98 -0.54,1.95 -1.78,1.95 -1.16,0 -2.07,-1.03 -2.07,-2.27 0,-1.33 1.04,-2.3 2.19,-2.3 1.21,0 1.66,1.1 1.66,1.29 0,0.1 -0.08,0.12 -0.13,0.12 -0.09,0 -0.11,-0.06 -0.13,-0.14 -0.34,-1.02 -1.24,-1.02 -1.34,-1.02 -0.5,0 -0.9,0.3 -1.13,0.67 -0.3,0.47 -0.3,1.13 -0.3,1.49 l 0.01,0.21 c 0.06,1.48 0.9,1.73 1.24,1.73 1.03,0 1.13,-1.34 1.13,-1.73 h -2.37 l -0.01,-0.21 z"
   inkscape:connector-curvature="0"
   style="fill:#000000;stroke-width:0" />
<path
   id="path5689"
   d="m 385.85,697.1 0.02,0 0.02,-0.01 0.03,0 0.03,-0.01 0.04,-0.01 0.03,-0.01 0.04,-0.01 0.04,-0.01 0.04,-0.01 0.04,-0.01 0.05,-0.02 0.04,-0.02 0.04,-0.02 0.05,-0.02 0.04,-0.02 0.05,-0.02 0.04,-0.03 0.04,-0.03 0.04,-0.03 0.04,-0.03 0.04,-0.04 0.04,-0.03 0.03,-0.04 0.03,-0.05 0.03,-0.04 0.01,-0.02 0.02,-0.03 0.01,-0.02 0.01,-0.03 0.01,-0.02 0.01,-0.03 0,-0.03 0.01,-0.03 0.01,-0.03 0,-0.03 0.01,-0.03 0,-0.03 0,-0.03 0,-0.04 c 0,-0.5 -0.35,-0.9 -1.12,-0.9 -0.84,0 -1.2,0.57 -1.39,1.41 -0.03,0.13 -0.04,0.17 -0.14,0.17 -0.13,0 -0.13,-0.07 -0.13,-0.25 v -1.31 c 0,-0.17 0,-0.24 0.11,-0.24 0.05,0 0.06,0.01 0.25,0.2 0.02,0.02 0.02,0.04 0.2,0.23 0.44,-0.42 0.89,-0.43 1.1,-0.43 1.14,0 1.6,0.67 1.6,1.38 0,0.53 -0.3,0.83 -0.42,0.95 -0.33,0.32 -0.72,0.4 -1.14,0.48 -0.55,0.11 -1.22,0.24 -1.22,0.81 0,0.35 0.26,0.76 1.12,0.76 1.09,0 1.14,-0.9 1.16,-1.21 0.01,-0.08 0.1,-0.08 0.12,-0.08 0.13,0 0.13,0.05 0.13,0.24 v 1 c 0,0.17 0,0.24 -0.11,0.24 -0.05,0 -0.07,0 -0.2,-0.12 -0.03,-0.04 -0.13,-0.13 -0.17,-0.16 -0.38,0.28 -0.78,0.28 -0.93,0.28 -1.22,0 -1.6,-0.67 -1.6,-1.22 0,-0.35 0.16,-0.63 0.43,-0.85 0.32,-0.26 0.6,-0.32 1.32,-0.46 z"
   inkscape:connector-curvature="0"
   style="fill:#000000;stroke-width:0" />
<path
   id="path5691"
   d="m 389.43,699.15 h 1.42 v 0.31 h -1.42 v 1.83 h -0.25 c -0.01,-0.82 -0.31,-1.88 -1.29,-1.92 v -0.22 h 0.85 v -2.75 c 0,-1.22 0.93,-1.34 1.28,-1.34 0.71,0 0.99,0.71 0.99,1.34 v 0.57 h -0.25 v -0.55 c 0,-0.73 -0.3,-1.11 -0.67,-1.11 -0.66,0 -0.66,0.91 -0.66,1.07 z"
   inkscape:connector-curvature="0"
   style="fill:#000000;stroke-width:0" />
<path
   id="path5693"
   d="m 395.46,697.47 0.01,0 0.01,0 0.01,0 0.01,0 0.01,0 0.01,0 0.01,0 0.01,0 0,0 0.01,0 0.01,0 0.01,0 0.01,0 0.01,0 0.02,0 0.01,0.01 0.01,0 0.01,0 0.01,0 0.01,0.01 0,0 0.01,0.01 0.01,0 0,0.01 0.01,0 0,0.01 0,0.01 0.01,0.01 0,0 0,0.01 0,0 0,0.01 0.01,0 0,0.01 0,0 0,0.01 0,0.01 0,0 0,0.01 0,0.01 0,0.01 0,0 0,0.01 0,0.01 0,0.01 0,0.01 0,0.01 0,0.01 c 0,0.98 -0.54,1.95 -1.78,1.95 -1.16,0 -2.07,-1.03 -2.07,-2.27 0,-1.33 1.04,-2.3 2.19,-2.3 1.21,0 1.66,1.1 1.66,1.29 0,0.1 -0.08,0.12 -0.13,0.12 -0.09,0 -0.11,-0.06 -0.13,-0.14 -0.35,-1.02 -1.24,-1.02 -1.34,-1.02 -0.5,0 -0.9,0.3 -1.13,0.67 -0.3,0.47 -0.3,1.13 -0.3,1.49 l 0.01,0.21 c 0.06,1.48 0.9,1.73 1.24,1.73 1.02,0 1.12,-1.34 1.12,-1.73 h -2.36 l -0.01,-0.21 z"
   inkscape:connector-curvature="0"
   style="fill:#000000;stroke-width:0" />
<path
   id="path5695"
   d="m 397.75,695.76 0.14,0.13 c -0.14,0.21 -0.14,0.21 -0.14,0.41 v 2.22 c 0.29,0.51 0.77,0.8 1.28,0.8 0.73,0 1.34,-0.88 1.34,-2 0,-1.21 -0.7,-2.04 -1.44,-2.04 -0.39,0 -0.77,0.2 -1.04,0.61 l -0.14,-0.13 c 0.05,-0.16 0.47,-0.7 1.22,-0.7 1.19,0 2.23,0.98 2.23,2.26 0,1.26 -0.97,2.25 -2.09,2.25 -0.78,0 -1.19,-0.44 -1.39,-0.66 v 0.66 l -1.44,-0.11 v -0.31 c 0.71,0 0.78,-0.06 0.78,-0.5 V 694 c 0,-0.45 -0.11,-0.45 -0.78,-0.45 v -0.31 c 0.34,0.01 0.86,0.03 1.12,0.03 0.27,0 0.78,-0.02 1.12,-0.03 v 0.31 c -0.66,0 -0.77,0 -0.77,0.45 v 1.67 z"
   inkscape:connector-curvature="0"
   style="fill:#000000;stroke-width:0" />
<path
   id="path5697"
   d="m 406.63,699.57 -1.4,-0.11 v -0.31 c 0.65,0 0.74,-0.06 0.74,-0.55 v -2.67 c 0,-0.45 -0.11,-0.45 -0.78,-0.45 v -0.31 c 0.32,0.01 0.86,0.03 1.1,0.03 0.35,0 0.7,-0.02 1.04,-0.03 v 0.31 c -0.66,0 -0.7,0.05 -0.7,0.44 z"
   inkscape:connector-curvature="0"
   style="fill:#000000;stroke-width:0" />
<path
   id="path5699"
   d="m 406.67,701.3 0,0.03 0,0.03 -0.01,0.03 0,0.02 -0.01,0.03 0,0.03 -0.01,0.02 -0.01,0.03 -0.01,0.02 -0.02,0.02 -0.01,0.03 -0.01,0.02 -0.02,0.02 -0.01,0.02 -0.02,0.02 -0.02,0.01 -0.02,0.02 -0.02,0.02 -0.02,0.01 -0.02,0.02 -0.02,0.01 -0.02,0.01 -0.02,0.01 -0.03,0.01 -0.02,0.01 -0.03,0.01 -0.02,0 -0.03,0.01 -0.02,0 -0.03,0.01 -0.02,0 -0.03,0 c -0.31,0 -0.53,-0.27 -0.53,-0.53 0,-0.27 0.22,-0.53 0.53,-0.53 0.28,0 0.53,0.21 0.53,0.53 z"
   inkscape:connector-curvature="0"
   style="fill:#000000;stroke-width:0" />
<path
   id="path5701"
   d="m 408.73,698.59 v -2.66 c 0,-0.45 -0.11,-0.45 -0.78,-0.45 v -0.31 c 0.35,0.01 0.86,0.03 1.13,0.03 0.26,0 0.78,-0.02 1.12,-0.03 v 0.31 c -0.67,0 -0.78,0 -0.78,0.45 v 1.83 c 0,1.03 0.7,1.59 1.34,1.59 0.63,0 0.74,-0.54 0.74,-1.11 v -2.31 c 0,-0.45 -0.11,-0.45 -0.78,-0.45 v -0.31 c 0.35,0.01 0.86,0.03 1.13,0.03 0.26,0 0.78,-0.02 1.12,-0.03 v 0.31 c -0.52,0 -0.77,0 -0.78,0.3 v 1.9 c 0,0.85 0,1.16 -0.31,1.52 -0.14,0.17 -0.47,0.37 -1.05,0.37 -0.72,0 -1.19,-0.43 -1.47,-1.05 v 1.05 l -1.41,-0.11 v -0.31 c 0.7,0 0.78,-0.07 0.78,-0.56 z"
   inkscape:connector-curvature="0"
   style="fill:#000000;stroke-width:0" />
<path
   id="path5703"
   d="m 418.8,701.84 -0.01,0.01 -0.01,0.01 0,0.01 -0.01,0.01 -0.01,0.01 0,0 -0.01,0.01 -0.01,0.01 0,0.01 -0.01,0 -0.01,0.01 0,0 -0.01,0.01 0,0 -0.01,0 -0.01,0.01 -0.01,0 0,0 -0.01,0.01 -0.01,0 -0.01,0 -0.01,0 -0.01,0 -0.01,0 -0.01,0.01 -0.01,0 -0.01,0 -0.02,0 -0.01,0 -0.01,0 -0.01,0 -0.01,0 0,0 -0.01,0 -0.01,0 h -1.69 v -0.31 h 0.28 c 0.15,0 0.35,-0.01 0.5,-0.02 0.23,-0.03 0.24,-0.04 0.24,-0.23 v -5.19 c 0,-0.27 0,-0.74 -1.02,-0.74 v -0.31 c 0.34,0.01 0.83,0.03 1.16,0.03 0.33,0 0.82,-0.02 1.17,-0.03 v 0.31 c -1.03,0 -1.03,0.47 -1.03,0.74 v 5.17 c 0.05,-0.05 0.06,-0.06 0.1,-0.12 l 4.07,-5.97 c 0.09,-0.12 0.1,-0.13 0.17,-0.13 0.14,0 0.14,0.07 0.14,0.26 v 5.49 c 0,0.27 0,0.74 1.02,0.74 v 0.31 c -0.35,-0.01 -0.83,-0.03 -1.16,-0.03 -0.33,0 -0.82,0.02 -1.17,0.03 v -0.31 c 1.03,0 1.03,-0.47 1.03,-0.74 v -4.25 z"
   inkscape:connector-curvature="0"
   style="fill:#000000;stroke-width:0" />
<path
   id="path5705"
   d="m 427.44,699.03 -1.28,0.31 c -0.62,0.15 -1.01,0.69 -1.01,1.26 0,0.7 0.54,1.31 1.32,1.31 1.66,0 1.88,-1.63 1.94,-2.08 0.01,-0.06 0.01,-0.12 0.12,-0.12 0.13,0 0.13,0.05 0.13,0.24 v 2 c 0,0.17 0,0.24 -0.11,0.24 -0.07,0 -0.08,-0.01 -0.15,-0.13 l -0.35,-0.57 c -0.29,0.29 -0.7,0.7 -1.59,0.7 -1.11,0 -1.94,-0.88 -1.94,-1.93 0,-0.83 0.52,-1.56 1.3,-1.83 0.11,-0.03 0.62,-0.15 1.32,-0.32 0.27,-0.07 0.57,-0.14 0.84,-0.51 0.21,-0.26 0.31,-0.59 0.31,-0.92 0,-0.7 -0.49,-1.42 -1.33,-1.42 -0.29,0 -1.05,0.05 -1.58,0.54 -0.58,0.53 -0.61,1.17 -0.61,1.53 -0.01,0.1 -0.09,0.1 -0.12,0.1 -0.13,0 -0.13,-0.07 -0.13,-0.25 v -1.99 c 0,-0.17 0,-0.24 0.11,-0.24 0.07,0 0.07,0.02 0.14,0.13 0,0.01 0.03,0.04 0.36,0.57 0.31,-0.34 0.95,-0.7 1.84,-0.7 1.16,0 1.96,0.98 1.96,2.07 0,1 -0.66,1.81 -1.49,2.01 z"
   inkscape:connector-curvature="0"
   style="fill:#000000;stroke-width:0" />
</g>    <path
       style="fill:none;stroke:#000000;stroke-width:1px;stroke-linecap:butt;stroke-linejoin:miter;stroke-opacity:1;marker-end:url(#Arrow1Mend)"
       d="m 206.48397,274.68862 107.62489,0 0,-175.803564 -106.65091,0"
       id="path5849"
       inkscape:connector-curvature="0"
       transform="translate(0,489.86218)"
       sodipodi:nodetypes="cccc" />
  </g>
</svg>
