<?xml version="1.0" encoding="UTF-8" standalone="no"?>
<!-- Created with Inkscape (http://www.inkscape.org/) -->

<svg
   xmlns:ns0="http://www.iki.fi/pav/software/textext/"
   xmlns:dc="http://purl.org/dc/elements/1.1/"
   xmlns:cc="http://creativecommons.org/ns#"
   xmlns:rdf="http://www.w3.org/1999/02/22-rdf-syntax-ns#"
   xmlns:svg="http://www.w3.org/2000/svg"
   xmlns="http://www.w3.org/2000/svg"
   xmlns:sodipodi="http://sodipodi.sourceforge.net/DTD/sodipodi-0.dtd"
   xmlns:inkscape="http://www.inkscape.org/namespaces/inkscape"
   width="187.5"
   height="187.5"
   id="svg2"
   version="1.1"
   inkscape:version="0.48.0 r9654"
   sodipodi:docname="lattice_d2q7.pdf">
  <sodipodi:namedview
     id="base"
     pagecolor="#ffffff"
     bordercolor="#666666"
     borderopacity="1.0"
     inkscape:pageopacity="0.0"
     inkscape:pageshadow="2"
     inkscape:zoom="3.1621591"
     inkscape:cx="93.78007"
     inkscape:cy="93.71396"
     inkscape:document-units="px"
     inkscape:current-layer="layer1"
     showgrid="false"
     units="pt"
     inkscape:window-width="1440"
     inkscape:window-height="801"
     inkscape:window-x="0"
     inkscape:window-y="0"
     inkscape:window-maximized="0"
     showguides="true"
     inkscape:guide-bbox="true" />
  <defs
     id="defs4">
    <inkscape:path-effect
       effect="spiro"
       id="path-effect6931"
       is_visible="true" />
    <inkscape:path-effect
       effect="spiro"
       id="path-effect6927"
       is_visible="true" />
    <inkscape:path-effect
       effect="spiro"
       id="path-effect6923"
       is_visible="true" />
    <inkscape:path-effect
       effect="spiro"
       id="path-effect5815"
       is_visible="true" />
    <inkscape:path-effect
       effect="spiro"
       id="path-effect5811"
       is_visible="true" />
    <inkscape:path-effect
       effect="spiro"
       id="path-effect5807"
       is_visible="true" />
    <inkscape:path-effect
       effect="spiro"
       id="path-effect5803"
       is_visible="true" />
    <marker
       inkscape:stockid="Arrow1Mend"
       orient="auto"
       refY="0.0"
       refX="0.0"
       id="Arrow1Mend"
       style="overflow:visible;">
      <path
         id="path4007"
         d="M 0.0,0.0 L 5.0,-5.0 L -12.5,0.0 L 5.0,5.0 L 0.0,0.0 z "
         style="fill-rule:evenodd;stroke:#000000;stroke-width:1.0pt;marker-start:none;"
         transform="scale(0.4) rotate(180) translate(10,0)" />
    </marker>
    <marker
       inkscape:stockid="Arrow1Mstart"
       orient="auto"
       refY="0.0"
       refX="0.0"
       id="Arrow1Mstart"
       style="overflow:visible">
      <path
         id="path4004"
         d="M 0.0,0.0 L 5.0,-5.0 L -12.5,0.0 L 5.0,5.0 L 0.0,0.0 z "
         style="fill-rule:evenodd;stroke:#000000;stroke-width:1.0pt;marker-start:none"
         transform="scale(0.4) translate(10,0)" />
    </marker>
    <inkscape:path-effect
       effect="spiro"
       id="path-effect3993"
       is_visible="true" />
    <inkscape:path-effect
       effect="spiro"
       id="path-effect3989"
       is_visible="true" />
    <inkscape:path-effect
       effect="spiro"
       id="path-effect3985"
       is_visible="true" />
    <inkscape:path-effect
       effect="spiro"
       id="path-effect3981"
       is_visible="true" />
  </defs>
  <metadata
     id="metadata7">
    <rdf:RDF>
      <cc:Work
         rdf:about="">
        <dc:format>image/svg+xml</dc:format>
        <dc:type
           rdf:resource="http://purl.org/dc/dcmitype/StillImage" />
        <dc:title></dc:title>
      </cc:Work>
    </rdf:RDF>
  </metadata>
  <g
     inkscape:label="Layer 1"
     inkscape:groupmode="layer"
     id="layer1"
     transform="translate(0,-864.86221)">
    <path
       sodipodi:type="star"
       style="fill:none;stroke:#000000;stroke-width:1;stroke-miterlimit:4;stroke-opacity:1;stroke-dasharray:1, 2;stroke-dashoffset:0"
       id="path5780"
       sodipodi:sides="6"
       sodipodi:cx="14.863262"
       sodipodi:cy="11.038291"
       sodipodi:r1="86.138005"
       sodipodi:r2="79.212303"
       sodipodi:arg1="1.0480072"
       sodipodi:arg2="1.571606"
       inkscape:flatsided="true"
       inkscape:rounded="0"
       inkscape:randomized="0"
       d="m 57.871854,85.670841 -86.13798,-0.06974 -43.008592,-74.63255 43.129388,-74.562808 86.13798,0.06974 43.00859,74.63255 z"
       transform="translate(79.692385,947.71699)"
       inkscape:transform-center-x="0.73292787"
       inkscape:transform-center-y="-8.6499447" />
    <g
       ns0:preamble=""
       ns0:text="2\n"
       word-spacing="normal"
       letter-spacing="normal"
       font-size-adjust="none"
       font-stretch="normal"
       font-weight="normal"
       font-variant="normal"
       font-style="normal"
       stroke-miterlimit="10.433"
       xml:space="preserve"
       transform="matrix(1.5,0,0,-1.5,-196.45219,1943.4142)"
       id="g5236"
       style="font-style:normal;font-variant:normal;font-weight:normal;font-stretch:normal;letter-spacing:normal;word-spacing:normal;text-anchor:start;fill:none;stroke:#000000;stroke-linecap:butt;stroke-linejoin:miter;stroke-miterlimit:10.43299961;stroke-opacity:1;stroke-dasharray:none;stroke-dashoffset:0">
<path
   id="path5238"
   d="m 227.91,708.86 h -0.25 c -0.05,-0.3 -0.12,-0.74 -0.22,-0.89 -0.07,-0.08 -0.73,-0.08 -0.95,-0.08 h -1.79 l 1.06,1.03 c 1.55,1.37 2.15,1.91 2.15,2.9 0,1.14 -0.9,1.93 -2.12,1.93 -1.12,0 -1.86,-0.91 -1.86,-1.8 0,-0.55 0.5,-0.55 0.53,-0.55 0.17,0 0.52,0.11 0.52,0.52 0,0.26 -0.18,0.52 -0.53,0.52 -0.08,0 -0.1,0 -0.13,-0.01 0.23,0.65 0.77,1.02 1.34,1.02 0.91,0 1.34,-0.81 1.34,-1.63 0,-0.79 -0.5,-1.58 -1.05,-2.2 l -1.91,-2.13 c -0.11,-0.11 -0.11,-0.13 -0.11,-0.37 h 3.7 z"
   inkscape:connector-curvature="0"
   style="fill:#000000;stroke-width:0" />
</g>    <g
       id="content"
       transform="matrix(1.5,0,0,-1.5,-154.52563,2024.7209)"
       xml:space="preserve"
       stroke-miterlimit="10.433"
       font-style="normal"
       font-variant="normal"
       font-weight="normal"
       font-stretch="normal"
       font-size-adjust="none"
       letter-spacing="normal"
       word-spacing="normal"
       ns0:text="1\n"
       ns0:preamble=""
       style="font-style:normal;font-variant:normal;font-weight:normal;font-stretch:normal;letter-spacing:normal;word-spacing:normal;text-anchor:start;fill:none;stroke:#000000;stroke-linecap:butt;stroke-linejoin:miter;stroke-miterlimit:10.43299961;stroke-opacity:1;stroke-dasharray:none;stroke-dashoffset:0">
<path
   d="m 226.36,713.49 0,0.02 0,0.01 0,0.01 0,0.01 0,0.01 0,0.01 0,0.01 0,0 0,0.01 0,0.01 0,0.01 0,0.01 0,0 0,0.01 0,0.01 0,0.01 0,0 0,0.01 0,0.01 -0.01,0.01 0,0.01 0,0.01 -0.01,0.01 0,0.01 -0.01,0 0,0.01 -0.01,0 -0.01,0.01 0,0 -0.01,0.01 -0.01,0 0,0 -0.01,0 0,0 -0.01,0.01 0,0 -0.01,0 -0.01,0 0,0 -0.01,0 -0.01,0 -0.01,0 0,0 -0.01,0 -0.01,0 -0.01,0 -0.01,0 -0.01,0 -0.01,0 -0.01,0 -0.01,0 -0.01,0 c -0.62,-0.63 -1.49,-0.63 -1.81,-0.63 v -0.31 c 0.2,0 0.79,0 1.3,0.26 v -5.16 c 0,-0.36 -0.02,-0.48 -0.92,-0.48 h -0.32 v -0.31 c 0.35,0.04 1.22,0.04 1.61,0.04 0.4,0 1.27,0 1.62,-0.04 v 0.31 h -0.32 c -0.9,0 -0.93,0.11 -0.93,0.48 z"
   id="path5281"
   inkscape:connector-curvature="0"
   style="fill:#000000;stroke-width:0" />
</g>    <g
       ns0:preamble=""
       ns0:text="3\n"
       word-spacing="normal"
       letter-spacing="normal"
       font-size-adjust="none"
       font-stretch="normal"
       font-weight="normal"
       font-variant="normal"
       font-style="normal"
       stroke-miterlimit="10.433"
       xml:space="preserve"
       transform="matrix(1.5,0,0,-1.5,-290.82905,1943.2154)"
       id="g5325"
       style="font-style:normal;font-variant:normal;font-weight:normal;font-stretch:normal;letter-spacing:normal;word-spacing:normal;text-anchor:start;fill:none;stroke:#000000;stroke-linecap:butt;stroke-linejoin:miter;stroke-miterlimit:10.43299961;stroke-opacity:1;stroke-dasharray:none;stroke-dashoffset:0">
<path
   id="path5327"
   d="m 226.32,710.63 0.08,0.02 0.07,0.03 0.08,0.03 0.07,0.04 0.07,0.03 0.07,0.04 0.06,0.04 0.07,0.04 0.06,0.05 0.06,0.05 0.06,0.04 0.05,0.05 0.06,0.06 0.05,0.05 0.05,0.05 0.05,0.06 0.04,0.06 0.04,0.06 0.04,0.06 0.04,0.06 0.04,0.06 0.03,0.07 0.03,0.07 0.02,0.06 0.03,0.07 0.02,0.07 0.02,0.07 0.01,0.07 0.01,0.07 0.01,0.07 0.01,0.08 0,0.07 c 0,0.82 -0.88,1.37 -1.84,1.37 -1,0 -1.76,-0.59 -1.76,-1.35 0,-0.33 0.22,-0.52 0.51,-0.52 0.31,0 0.51,0.22 0.51,0.51 0,0.5 -0.47,0.5 -0.62,0.5 0.31,0.49 0.97,0.62 1.32,0.62 0.41,0 0.96,-0.22 0.96,-1.12 0,-0.12 -0.02,-0.7 -0.28,-1.13 -0.3,-0.48 -0.64,-0.51 -0.89,-0.52 -0.08,-0.01 -0.31,-0.03 -0.38,-0.03 -0.08,-0.01 -0.15,-0.02 -0.15,-0.12 0,-0.11 0.07,-0.11 0.24,-0.11 h 0.43 c 0.82,0 1.19,-0.68 1.19,-1.65 0,-1.36 -0.69,-1.65 -1.13,-1.65 -0.42,0 -1.17,0.17 -1.52,0.76 0.35,-0.05 0.66,0.17 0.66,0.55 0,0.36 -0.27,0.56 -0.56,0.56 -0.24,0 -0.56,-0.14 -0.56,-0.58 0,-0.91 0.93,-1.56 2.01,-1.56 1.22,0 2.13,0.9 2.13,1.92 0,0.81 -0.63,1.59 -1.67,1.8 z"
   inkscape:connector-curvature="0"
   style="fill:#000000;stroke-width:0" />
</g>    <g
       id="g5375"
       transform="matrix(1.5,0,0,-1.5,-335.33233,2024.8624)"
       xml:space="preserve"
       stroke-miterlimit="10.433"
       font-style="normal"
       font-variant="normal"
       font-weight="normal"
       font-stretch="normal"
       font-size-adjust="none"
       letter-spacing="normal"
       word-spacing="normal"
       ns0:text="4\n"
       ns0:preamble=""
       style="font-style:normal;font-variant:normal;font-weight:normal;font-stretch:normal;letter-spacing:normal;word-spacing:normal;text-anchor:start;fill:none;stroke:#000000;stroke-linecap:butt;stroke-linejoin:miter;stroke-miterlimit:10.43299961;stroke-opacity:1;stroke-dasharray:none;stroke-dashoffset:0">
<path
   d="m 223.71,708.77 h 2.65 v -0.87 c 0,-0.36 -0.02,-0.47 -0.76,-0.47 h -0.2 v -0.31 c 0.4,0.04 0.92,0.04 1.34,0.04 0.42,0 0.95,0 1.36,-0.04 v 0.31 h -0.21 c -0.74,0 -0.76,0.11 -0.76,0.47 v 0.87 h 1 v 0.31 h -1 v 4.52 c 0,0.2 0,0.26 -0.16,0.26 -0.09,0 -0.12,0 -0.2,-0.12 l -3.06,-4.66 h 0.28 l 2.43,3.71 v -3.71 h -2.43 -0.28 z"
   id="path5377"
   inkscape:connector-curvature="0"
   style="fill:#000000;stroke-width:0" />
</g>    <g
       ns0:preamble=""
       ns0:text="5\n"
       word-spacing="normal"
       letter-spacing="normal"
       font-size-adjust="none"
       font-stretch="normal"
       font-weight="normal"
       font-variant="normal"
       font-style="normal"
       stroke-miterlimit="10.433"
       xml:space="preserve"
       transform="matrix(1.5,0,0,-1.5,-290.08439,2105.9766)"
       id="g5429"
       style="font-style:normal;font-variant:normal;font-weight:normal;font-stretch:normal;letter-spacing:normal;word-spacing:normal;text-anchor:start;fill:none;stroke:#000000;stroke-linecap:butt;stroke-linejoin:miter;stroke-miterlimit:10.43299961;stroke-opacity:1;stroke-dasharray:none;stroke-dashoffset:0">
<path
   id="path5431"
   d="m 227.91,709.12 0,0.12 -0.01,0.1 -0.01,0.11 -0.02,0.11 -0.02,0.1 -0.02,0.11 -0.03,0.1 -0.04,0.1 -0.03,0.09 -0.04,0.1 -0.05,0.09 -0.05,0.09 -0.05,0.08 -0.05,0.08 -0.06,0.08 -0.07,0.08 -0.06,0.07 -0.07,0.07 -0.07,0.07 -0.07,0.06 -0.08,0.05 -0.08,0.06 -0.08,0.05 -0.09,0.04 -0.08,0.04 -0.09,0.04 -0.09,0.03 -0.1,0.02 -0.09,0.02 -0.1,0.01 -0.1,0.01 -0.1,0 c -0.47,0 -0.9,-0.15 -1.26,-0.5 v 1.94 c 0.2,-0.06 0.53,-0.13 0.85,-0.13 1.22,0 1.92,0.91 1.92,1.03 0,0.06 -0.03,0.11 -0.1,0.11 -0.01,0 -0.03,0 -0.08,-0.03 -0.2,-0.09 -0.69,-0.29 -1.36,-0.29 -0.39,0 -0.85,0.08 -1.32,0.28 -0.08,0.03 -0.1,0.03 -0.12,0.03 -0.1,0 -0.1,-0.08 -0.1,-0.23 v -2.95 c 0,-0.18 0,-0.26 0.14,-0.26 0.07,0 0.09,0.03 0.13,0.09 0.11,0.16 0.48,0.7 1.28,0.7 0.52,0 0.77,-0.46 0.85,-0.64 0.16,-0.37 0.18,-0.76 0.18,-1.25 0,-0.35 0,-0.95 -0.24,-1.37 -0.24,-0.39 -0.61,-0.65 -1.07,-0.65 -0.72,0 -1.29,0.53 -1.46,1.12 0.03,-0.01 0.06,-0.02 0.17,-0.02 0.33,0 0.5,0.25 0.5,0.49 0,0.24 -0.17,0.49 -0.5,0.49 -0.14,0 -0.49,-0.08 -0.49,-0.53 0,-0.86 0.69,-1.82 1.81,-1.82 1.15,0 2.17,0.95 2.17,2.21 z"
   inkscape:connector-curvature="0"
   style="fill:#000000;stroke-width:0" />
</g>    <g
       id="g5487"
       transform="matrix(1.5,0,0,-1.5,-196.42863,2103.6549)"
       xml:space="preserve"
       stroke-miterlimit="10.433"
       font-style="normal"
       font-variant="normal"
       font-weight="normal"
       font-stretch="normal"
       font-size-adjust="none"
       letter-spacing="normal"
       word-spacing="normal"
       ns0:text="6\n"
       ns0:preamble=""
       style="font-style:normal;font-variant:normal;font-weight:normal;font-stretch:normal;letter-spacing:normal;word-spacing:normal;text-anchor:start;fill:none;stroke:#000000;stroke-linecap:butt;stroke-linejoin:miter;stroke-miterlimit:10.43299961;stroke-opacity:1;stroke-dasharray:none;stroke-dashoffset:0">
<path
   d="m 224.75,710.39 v 0.24 c 0,2.52 1.23,2.88 1.74,2.88 0.24,0 0.66,-0.06 0.88,-0.4 -0.15,0 -0.55,0 -0.55,-0.45 0,-0.31 0.24,-0.46 0.46,-0.46 0.16,0 0.46,0.09 0.46,0.48 0,0.6 -0.44,1.07 -1.27,1.07 -1.27,0 -2.62,-1.28 -2.62,-3.48 0,-2.66 1.16,-3.36 2.08,-3.36 1.11,0 2.06,0.93 2.06,2.25 0,1.26 -0.89,2.22 -2,2.22 l -0.01,-0.23 c 0.16,0 0.62,0 0.93,-0.62 0.18,-0.37 0.18,-0.88 0.18,-1.37 0,-0.47 0,-0.97 -0.17,-1.33 -0.3,-0.6 -0.76,-0.65 -0.99,-0.65 h 0 c -0.62,0 -0.92,0.6 -0.98,0.75 -0.18,0.47 -0.18,1.27 -0.18,1.44 0,0.78 0.32,1.78 1.21,1.78 l 0.01,0.23 c -0.67,0 -1.04,-0.51 -1.24,-0.99 z"
   id="path5489"
   inkscape:connector-curvature="0"
   style="fill:#000000;stroke-width:0" />
</g>    <g
       ns0:preamble=""
       ns0:text="0\n"
       word-spacing="normal"
       letter-spacing="normal"
       font-size-adjust="none"
       font-stretch="normal"
       font-weight="normal"
       font-variant="normal"
       font-style="normal"
       stroke-miterlimit="10.433"
       xml:space="preserve"
       transform="matrix(1.5,0,0,-1.5,-244.24744,2013.1043)"
       id="g5685"
       style="font-style:normal;font-variant:normal;font-weight:normal;font-stretch:normal;letter-spacing:normal;word-spacing:normal;text-anchor:start;fill:none;stroke:#000000;stroke-linecap:butt;stroke-linejoin:miter;stroke-miterlimit:10.43299961;stroke-opacity:1;stroke-dasharray:none;stroke-dashoffset:0">
<path
   id="path5687"
   d="m 228.02,710.31 0,0.15 -0.01,0.15 0,0.15 -0.01,0.15 -0.01,0.14 -0.01,0.15 -0.01,0.15 -0.02,0.15 -0.02,0.14 -0.03,0.15 -0.03,0.14 -0.04,0.15 -0.04,0.14 -0.05,0.14 -0.06,0.14 -0.03,0.07 -0.03,0.07 c -0.46,0.95 -1.28,1.11 -1.7,1.11 -0.59,0 -1.32,-0.26 -1.73,-1.18 -0.32,-0.69 -0.37,-1.46 -0.37,-2.26 0,-0.75 0.04,-1.64 0.45,-2.4 0.43,-0.81 1.16,-1 1.64,-1 v 0.21 c -0.39,0 -0.97,0.25 -1.15,1.21 -0.11,0.6 -0.11,1.51 -0.11,2.1 0,0.64 0,1.29 0.08,1.83 0.19,1.19 0.93,1.27 1.18,1.27 0.33,0 0.99,-0.18 1.18,-1.16 0.1,-0.56 0.1,-1.31 0.1,-1.94 0,-0.75 0,-1.42 -0.11,-2.06 -0.15,-0.95 -0.72,-1.25 -1.17,-1.25 h 0 v -0.21 c 0.54,0 1.3,0.2 1.74,1.15 0.32,0.69 0.37,1.46 0.37,2.25 z"
   inkscape:connector-curvature="0"
   style="fill:#000000;stroke-width:0" />
</g>    <path
       style="fill:none;stroke:#000000;stroke-width:1px;stroke-linecap:butt;stroke-linejoin:miter;stroke-opacity:1;marker-start:url(#Arrow1Mstart);marker-end:url(#Arrow1Mend)"
       d="M 52.495777,20.525479 137.24799,167.26066"
       id="path6921"
       inkscape:path-effect="#path-effect6923"
       inkscape:original-d="M 52.495777,20.525479 137.24799,167.26066"
       inkscape:connector-curvature="0"
       transform="translate(0,864.86221)"
       sodipodi:nodetypes="cc" />
    <path
       style="fill:none;stroke:#000000;stroke-width:1px;stroke-linecap:butt;stroke-linejoin:miter;stroke-opacity:1;marker-start:url(#Arrow1Mstart);marker-end:url(#Arrow1Mend)"
       d="M 52.495777,166.94442 137.24799,20.525479"
       id="path6925"
       inkscape:path-effect="#path-effect6927"
       inkscape:original-d="M 52.495777,166.94442 137.24799,20.525479"
       inkscape:connector-curvature="0"
       transform="translate(0,864.86221)"
       sodipodi:nodetypes="cc" />
    <path
       style="fill:none;stroke:#000000;stroke-width:1px;stroke-linecap:butt;stroke-linejoin:miter;stroke-opacity:1;marker-start:url(#Arrow1Mstart);marker-end:url(#Arrow1Mend)"
       d="M 10.752148,94.209311 178.0429,93.893072"
       id="path6929"
       inkscape:path-effect="#path-effect6931"
       inkscape:original-d="M 10.752148,94.209311 178.0429,93.893072"
       inkscape:connector-curvature="0"
       transform="translate(0,864.86221)"
       sodipodi:nodetypes="cc" />
  </g>
</svg>
