<?xml version="1.0" encoding="UTF-8" standalone="no"?>
<!-- Created with Inkscape (http://www.inkscape.org/) -->

<svg
   xmlns:ns0="http://www.iki.fi/pav/software/textext/"
   xmlns:dc="http://purl.org/dc/elements/1.1/"
   xmlns:cc="http://creativecommons.org/ns#"
   xmlns:rdf="http://www.w3.org/1999/02/22-rdf-syntax-ns#"
   xmlns:svg="http://www.w3.org/2000/svg"
   xmlns="http://www.w3.org/2000/svg"
   xmlns:sodipodi="http://sodipodi.sourceforge.net/DTD/sodipodi-0.dtd"
   xmlns:inkscape="http://www.inkscape.org/namespaces/inkscape"
   width="425"
   height="1052.3625"
   id="svg2"
   version="1.1"
   inkscape:version="0.48.0 r9654"
   sodipodi:docname="square_setup.pdf">
  <sodipodi:namedview
     id="base"
     pagecolor="#ffffff"
     bordercolor="#666666"
     borderopacity="1.0"
     inkscape:pageopacity="0.0"
     inkscape:pageshadow="2"
     inkscape:zoom="5.7409576"
     inkscape:cx="82.628924"
     inkscape:cy="988.77021"
     inkscape:document-units="px"
     inkscape:current-layer="content"
     showgrid="false"
     units="pt"
     inkscape:window-width="1440"
     inkscape:window-height="801"
     inkscape:window-x="0"
     inkscape:window-y="0"
     inkscape:window-maximized="0" />
  <defs
     id="defs4">
    <marker
       style="overflow:visible;"
       id="Arrow1Mend"
       refX="0.0"
       refY="0.0"
       orient="auto"
       inkscape:stockid="Arrow1Mend">
      <path
         transform="scale(0.4) rotate(180) translate(10,0)"
         style="fill-rule:evenodd;stroke:#000000;stroke-width:1.0pt;marker-start:none;"
         d="M 0.0,0.0 L 5.0,-5.0 L -12.5,0.0 L 5.0,5.0 L 0.0,0.0 z "
         id="path5377" />
    </marker>
  </defs>
  <metadata
     id="metadata7">
    <rdf:RDF>
      <cc:Work
         rdf:about="">
        <dc:format>image/svg+xml</dc:format>
        <dc:type
           rdf:resource="http://purl.org/dc/dcmitype/StillImage" />
        <dc:title></dc:title>
      </cc:Work>
    </rdf:RDF>
  </metadata>
  <g
     inkscape:label="Layer 1"
     inkscape:groupmode="layer"
     id="layer1"
     transform="translate(0,2.9121094e-4)">
    <rect
       ry="0"
       y="35.202515"
       x="24.349258"
       height="29.073833"
       width="29.073833"
       id="rect6004"
       style="fill:none;stroke:#000000;stroke-width:0.92616713;stroke-linecap:butt;stroke-miterlimit:4;stroke-opacity:1;stroke-dasharray:none;stroke-dashoffset:0" />
    <rect
       ry="0"
       y="35.202515"
       x="82.701897"
       height="29.073833"
       width="29.073833"
       id="rect6040"
       style="fill:none;stroke:#000000;stroke-width:0.92616713;stroke-linecap:butt;stroke-miterlimit:4;stroke-opacity:1;stroke-dasharray:none;stroke-dashoffset:0" />
    <rect
       ry="0"
       y="93.555153"
       x="24.175074"
       height="29.073833"
       width="29.073833"
       id="rect6042"
       style="fill:none;stroke:#000000;stroke-width:0.92616713;stroke-linecap:butt;stroke-miterlimit:4;stroke-opacity:1;stroke-dasharray:none;stroke-dashoffset:0" />
    <rect
       ry="0"
       y="93.206779"
       x="82.353523"
       height="29.073833"
       width="29.073833"
       id="rect6044"
       style="fill:none;stroke:#000000;stroke-width:0.92616713;stroke-linecap:butt;stroke-miterlimit:4;stroke-opacity:1;stroke-dasharray:none;stroke-dashoffset:0" />
    <rect
       y="21.523779"
       x="10.625405"
       height="58.178448"
       width="55.914017"
       id="rect6046"
       style="fill:none;stroke:#000000;stroke-width:1;stroke-linecap:butt;stroke-miterlimit:4;stroke-opacity:1;stroke-dasharray:1, 1;stroke-dashoffset:0" />
    <path
       transform="translate(0,-2.9121094e-4)"
       inkscape:connector-curvature="0"
       id="path6048"
       d="m 35.534142,86.147436 60.442878,0"
       style="fill:none;stroke:#000000;stroke-width:1px;stroke-linecap:butt;stroke-linejoin:miter;stroke-opacity:1;marker-end:url(#Arrow1Mend)" />
    <g
       style="font-style:normal;font-variant:normal;font-weight:normal;font-stretch:normal;letter-spacing:normal;word-spacing:normal;text-anchor:start;fill:none;stroke:#000000;stroke-linecap:butt;stroke-linejoin:miter;stroke-miterlimit:10.43299961;stroke-opacity:1;stroke-dasharray:none;stroke-dashoffset:0"
       ns0:preamble=""
       ns0:text="-$\\nabla P$\n\n\n"
       text-anchor="start"
       word-spacing="normal"
       letter-spacing="normal"
       font-size-adjust="none"
       font-stretch="normal"
       font-weight="normal"
       font-variant="normal"
       font-style="normal"
       fill-opacity="1"
       fill-rule="evenodd"
       fill="none"
       stroke-opacity="1"
       stroke-dashoffset="0"
       stroke-dasharray="none"
       stroke-miterlimit="10.433"
       stroke-linejoin="miter"
       stroke-linecap="butt"
       stroke="black"
       xml:space="preserve"
       transform="matrix(1,0,0,-1,-144.78273,788.14695)"
       id="content">
<polygon
   id="polygon6313"
   points="226.18,709.56 223.54,709.56 223.54,708.99 226.18,708.99 "
   transform="translate(-3.4837394,-0.17418697)"
   style="fill:#000000;stroke-width:0" />
<path
   id="path6315"
   d="m 231.56882,713.54581 0,0.01 0,0 0,0.01 0.01,0 0,0 0,0.01 0,0 0,0 0.01,0.01 0,0 0,0 0,0.01 0,0 0,0 0.01,0.01 0,0 0,0 0,0.01 0,0 0.01,0.01 0,0 0,0.01 0,0 0,0 0,0.01 0,0 0,0 0.01,0 0,0.01 0,0 0,0 0,0 0,0 0,0.01 0,0 0,0 0,0 0,0 0,0 c 0,0.08 -0.06,0.08 -0.22,0.08 h -6.92 c -0.16,0 -0.22,0 -0.22,-0.08 0,-0.01 0,-0.03 0.05,-0.12 l 3.37,-6.74 c 0.07,-0.13 0.09,-0.18 0.26,-0.18 0.17,0 0.19,0.05 0.26,0.18 l 0.03,0.75 -2.74,5.49 h 5.48 l -2.73,-5.49 h -0.01 l -0.03,-0.75 z"
   inkscape:connector-curvature="0"
   style="fill:#000000;stroke-width:0" />
<path
   id="path6317"
   d="m 234.58626,710.09581 0.05,0.26 0.67,2.71 c 0.09,0.34 0.11,0.37 0.54,0.37 h 0.96 c 0.83,0 1.35,-0.27 1.35,-0.95 0,-0.39 -0.19,-1.25 -0.58,-1.6 -0.5,-0.45 -1.1,-0.53 -1.54,-0.53 h -1.4 l -0.05,-0.26 h 1.7 c 1.42,0 2.8,1.03 2.8,2.15 0,0.77 -0.66,1.5 -1.96,1.5 h -3.23 c -0.19,0 -0.3,0 -0.3,-0.19 0,-0.12 0.09,-0.12 0.29,-0.12 0.13,0 0.31,-0.01 0.43,-0.02 0.16,-0.02 0.22,-0.05 0.22,-0.16 0,-0.03 -0.01,-0.07 -0.04,-0.18 l -1.34,-5.35 c -0.1,-0.39 -0.12,-0.47 -0.91,-0.47 -0.17,0 -0.28,0 -0.28,-0.19 0,-0.12 0.12,-0.12 0.15,-0.12 0.28,0 0.99,0.04 1.27,0.04 0.21,0 0.43,-0.01 0.64,-0.01 0.22,0 0.44,-0.03 0.64,-0.03 0.08,0 0.2,0 0.2,0.2 0,0.11 -0.09,0.11 -0.28,0.11 -0.36,0 -0.64,0 -0.64,0.18 0,0.06 0.02,0.11 0.03,0.17 z"
   inkscape:connector-curvature="0"
   style="fill:#000000;stroke-width:0" />
</g>  </g>
</svg>
